<?xml version="1.0" encoding="UTF-8" standalone="no"?> <!-- Created with Vectornator Pro for iOS (http://vectornator.io/) --><!DOCTYPE svg PUBLIC "-//W3C//DTD SVG 1.1//EN" "http://www.w3.org/Graphics/SVG/1.1/DTD/svg11.dtd">
<svg height="100%" style="fill-rule:evenodd;clip-rule:evenodd;stroke-linecap:round;stroke-linejoin:round;" xmlns:xlink="http://www.w3.org/1999/xlink" xmlns="http://www.w3.org/2000/svg" xml:space="preserve" width="100%" xmlns:vectornator="http://vectornator.io" version="1.1" viewBox="0 0 3840 2160">
<metadata>
<vectornator:setting key="RulersVisible" value="1"/>
<vectornator:setting key="SnapToEdges" value="0"/>
<vectornator:setting key="Units" value="Pixels"/>
<vectornator:setting key="DynamicGuides" value="0"/>
<vectornator:setting key="SnapToPoints" value="0"/>
<vectornator:setting key="CMYKEnabledKey" value="0"/>
<vectornator:setting key="SnapToGrid" value="0"/>
<vectornator:setting key="ShowGrid" value="1"/>
<vectornator:setting key="GridSpacing" value="36"/>
</metadata>
<defs/>
<g id="Stone line" vectornator:layerName="Stone line">
<path d="M2300.41+396.896C2284.22+357.928+2261.54+277.124+2261.54+277.124C2261.54+277.124+2200.28+270.019+2109.48+249.349C2019.89+228.953+1915.97+214.49+1856.56+278.433C1816.95+321.061+1722.01+411.461+1684.6+501.259C1654.01+574.687+1633.28+604.167+1620.01+680.712C1606.74+757.257+1641.16+842.621+1684.11+913.334C1720.95+973.986+1799.84+1052.69+1850.69+1064.6C1960.84+1090.41+2045.73+1035.28+2100.52+1006.17C2144.65+982.724+2237.6+852.009+2251.68+807.504C2265.77+762.999+2280.38+683.114+2280.38+683.114C2280.38+683.114+2298.58+622.858+2308.27+582.974C2317.96+543.091+2314.64+554.532+2319.15+523.581C2323.66+492.628+2319.88+443.726+2300.41+396.896Z" stroke="#606060" stroke-width="1.95" fill="#a1a1a1" opacity="1" stroke-linejoin="round"/>
</g>
<g id="Tree0" vectornator:layerName="Tree0">
<path d="M2258.85+394.992C2252.2+338.053+2239.66+306.295+2239.66+306.295L2081.34+263.934C2081.34+263.934+1987.14+240.327+1899.96+296.157C1812.77+351.988+1768.72+406.637+1735.12+492.171C1709.67+556.984+1686.35+579.015+1669.84+653.754C1653.32+728.493+1666.57+786.21+1666.57+786.21C1666.57+786.21+1668.53+832.479+1705.34+893.734C1736.91+946.275+1804.54+1007.11+1848.65+1017.12C1944.18+1038.78+2014.97+1022.25+2076.28+963.471C2137.59+904.694+2190.11+838.202+2206.79+785.785C2223.47+733.369+2231.37+673.237+2231.37+673.237C2231.37+673.237+2234.14+664.293+2237.99+651.341C2243.49+632.885+2251.22+606.291+2256.34+585.844C2265.05+551.048+2262.08+561.034+2266.23+534.052C2270.38+507.07+2265.49+451.931+2258.85+394.992Z" stroke="#606060" stroke-width="1.95" fill="#e2e2e2" opacity="1" stroke-linejoin="round"/>
</g>
<g id="Roots2" vectornator:layerName="Roots2">
<path d="M2300.41+396.896C2284.22+357.928+2261.54+277.124+2261.54+277.124C2261.54+277.124+2200.28+270.019+2109.48+249.349C2019.89+228.953+1915.97+214.49+1856.56+278.433C1816.95+321.061+1722.01+411.461+1684.6+501.259C1654.01+574.687+1633.28+604.167+1620.01+680.712C1606.74+757.257+1641.16+842.621+1684.11+913.334C1720.95+973.986+1799.84+1052.69+1850.69+1064.6C1960.84+1090.41+2045.73+1035.28+2100.52+1006.17C2144.65+982.724+2237.6+852.009+2251.68+807.504C2265.77+762.999+2280.38+683.114+2280.38+683.114C2280.38+683.114+2298.58+622.858+2308.27+582.974C2317.96+543.091+2314.64+554.532+2319.15+523.581C2323.66+492.628+2319.88+443.726+2300.41+396.896Z" stroke="#606060" stroke-width="1.95" fill="#a1a1a1" opacity="1" stroke-linejoin="round"/>
</g>
<g id="Roots1" vectornator:layerName="Roots1">
<path d="M2258.85+394.992C2252.2+338.053+2239.66+306.295+2239.66+306.295L2081.34+263.934C2081.34+263.934+1987.14+240.327+1899.96+296.157C1812.77+351.988+1768.72+406.637+1735.12+492.171C1709.67+556.984+1686.35+579.015+1669.84+653.754C1653.32+728.493+1666.57+786.21+1666.57+786.21C1666.57+786.21+1668.53+832.479+1705.34+893.734C1736.91+946.275+1804.54+1007.11+1848.65+1017.12C1944.18+1038.78+2014.97+1022.25+2076.28+963.471C2137.59+904.694+2190.11+838.202+2206.79+785.785C2223.47+733.369+2231.37+673.237+2231.37+673.237C2231.37+673.237+2234.14+664.293+2237.99+651.341C2243.49+632.885+2251.22+606.291+2256.34+585.844C2265.05+551.048+2262.08+561.034+2266.23+534.052C2270.38+507.07+2265.49+451.931+2258.85+394.992Z" stroke="#606060" stroke-width="1.95" fill="#e2e2e2" opacity="1" stroke-linejoin="round"/>
</g>
<g id="Shadow" vectornator:layerName="Shadow">
<path d="M2258.85+394.992C2252.2+338.053+2239.66+306.295+2239.66+306.295L2081.34+263.934C2081.34+263.934+1987.14+240.327+1899.96+296.157C1812.77+351.988+1768.72+406.637+1735.12+492.171C1709.67+556.984+1686.35+579.015+1669.84+653.754C1653.32+728.493+1666.57+786.21+1666.57+786.21C1666.57+786.21+1668.53+832.479+1705.34+893.734C1736.91+946.275+1804.54+1007.11+1848.65+1017.12C1944.18+1038.78+2014.97+1022.25+2076.28+963.471C2137.59+904.694+2190.11+838.202+2206.79+785.785C2223.47+733.369+2231.37+673.237+2231.37+673.237C2231.37+673.237+2234.14+664.293+2237.99+651.341C2243.49+632.885+2251.22+606.291+2256.34+585.844C2265.05+551.048+2262.08+561.034+2266.23+534.052C2270.38+507.07+2265.49+451.931+2258.85+394.992Z" stroke="#606060" stroke-width="1.95" fill="#e2e2e2" opacity="1" stroke-linejoin="round"/>
</g>
<g id="Stone face" vectornator:layerName="Stone face">
<path d="M2204.21+357.275C2155.09+402.281+2139.26+457.855+2102.87+510.374C2086.24+534.361+2063.71+538.52+2043.32+555.622C2025.38+570.674+2012.25+590.858+2000.23+610.851C1969.25+662.357+1957.58+729.276+1921.17+776.743C1903.06+800.345+1864.29+797.626+1846.55+820.528C1820.26+854.479+1794.44+888.807+1768.37+922.932L1769.41+924.298C1795.55+890.04+1821.46+855.6+1847.82+821.514C1865.38+798.815+1904.2+801.288+1922.34+777.924C1959.21+730.427+1971.23+663.609+2002.22+611.961C2014.08+592.2+2027.08+572.13+2044.45+556.921C2064.46+539.404+2087.54+535.45+2104.22+511.42C2142.51+456.245+2153.83+409.842+2205.02+358.063L2204.21+357.275ZM2162.92+367.431C2112.04+386.422+2072.64+406.577+2036.3+448.171C1974.85+518.525+1939.27+606.98+1879.01+677.659C1817.63+749.648+1735.78+781.383+1740.66+894.398L1742.62+894.034C1734.9+787.386+1822.44+747.582+1880.18+678.643C1939.74+607.542+1976.89+519.874+2038.31+449.715C2074.47+408.409+2112.73+387.696+2163.2+368.158L2162.92+367.431ZM2052.35+332.525C1894.13+360.898+1831.84+491.794+1748.42+616.071L1749.25+616.83C1831.99+493.596+1894.97+361.443+2052.43+332.952L2052.35+332.525ZM2132.75+364.693C1973.42+372.86+1907.58+505.12+1819.19+615.242C1800.86+638.084+1773.32+649.029+1753.62+669.852C1730.68+694.096+1720.6+727.627+1713.43+759.362L1714.37+759.698C1721.24+727.953+1731.86+694.916+1754.52+670.602C1774.09+649.591+1801.85+639.197+1820.04+616.04C1905.94+506.659+1977.51+373.854+2132.75+364.96L2132.75+364.693ZM2219.56+412.158L2217.96+411.621C2203.44+449.492+2201.26+519.621+2181.66+549.269C2158.76+583.913+2119.24+606.388+2094.32+639.976C2066.67+677.235+2049.05+721.155+2022.12+757.983C1993.43+797.223+1955.93+826.375+1922.64+861.146C1880.18+905.495+1837.24+947.613+1772.42+948.499L1772.48+949.281C1843.97+954.877+1889.12+894.476+1935.36+850.787C1966.14+821.709+1998.57+793.619+2023.6+759.141C2050.5+722.087+2068.09+678.193+2095.87+641.026C2120.66+607.852+2161.18+585.246+2182.9+550.175C2196.68+527.921+2210.76+442.467+2219.56+412.158ZM2181.11+645.491C2153.69+696.337+2119.59+748.842+2079.14+794.949C2117.08+754.813+2150.81+707.402+2181.75+645.821L2181.11+645.491ZM2079.14+794.949C2037.61+838.888+1990.98+874.097+1937.08+908.933C1948.14+902.281+1959.24+895.702+1970.27+888.99C2010.51+864.5+2046.85+831.761+2079.14+794.949ZM1937.08+908.933C1898.5+932.124+1859.8+955.116+1821.17+978.234L1821.46+979.466C1863.5+954.43+1901.81+931.724+1937.08+908.933ZM2209.35+698.005C2160.95+771.672+2144.03+847.12+2063.42+897.407C2018.38+925.504+1971.08+952.19+1923.29+975.284C1910.01+981.703+1877.81+987.599+1869.83+1000.8C1884.54+988.159+1913.95+982.736+1932.14+973.927C1988.25+946.745+2052.6+915.841+2100.15+875.176C2153.7+829.388+2177.26+758.055+2210.65+698.734L2209.35+698.005ZM1869.83+1000.8C1869.8+1000.82+1869.76+1000.85+1869.73+1000.87L1868.71+1002.89C1868.99+1002.17+1869.41+1001.49+1869.83+1000.8Z" stroke="#606060" stroke-width="1.95" fill="#606060" opacity="1" stroke-linejoin="round"/>
</g>
<g id="Stone HL" vectornator:layerName="Stone HL">
<path d="M2204.21+357.275C2155.09+402.281+2139.26+457.855+2102.87+510.374C2086.24+534.361+2063.71+538.52+2043.32+555.622C2025.38+570.674+2012.25+590.858+2000.23+610.851C1969.25+662.357+1957.58+729.276+1921.17+776.743C1903.06+800.345+1864.29+797.626+1846.55+820.528C1820.26+854.479+1794.44+888.807+1768.37+922.932L1769.41+924.298C1795.55+890.04+1821.46+855.6+1847.82+821.514C1865.38+798.815+1904.2+801.288+1922.34+777.924C1959.21+730.427+1971.23+663.609+2002.22+611.961C2014.08+592.2+2027.08+572.13+2044.45+556.921C2064.46+539.404+2087.54+535.45+2104.22+511.42C2142.51+456.245+2153.83+409.842+2205.02+358.063L2204.21+357.275ZM2162.92+367.431C2112.04+386.422+2072.64+406.577+2036.3+448.171C1974.85+518.525+1939.27+606.98+1879.01+677.659C1817.63+749.648+1735.78+781.383+1740.66+894.398L1742.62+894.034C1734.9+787.386+1822.44+747.582+1880.18+678.643C1939.74+607.542+1976.89+519.874+2038.31+449.715C2074.47+408.409+2112.73+387.696+2163.2+368.158L2162.92+367.431ZM2052.35+332.525C1894.13+360.898+1831.84+491.794+1748.42+616.071L1749.25+616.83C1831.99+493.596+1894.97+361.443+2052.43+332.952L2052.35+332.525ZM2132.75+364.693C1973.42+372.86+1907.58+505.12+1819.19+615.242C1800.86+638.084+1773.32+649.029+1753.62+669.852C1730.68+694.096+1720.6+727.627+1713.43+759.362L1714.37+759.698C1721.24+727.953+1731.86+694.916+1754.52+670.602C1774.09+649.591+1801.85+639.197+1820.04+616.04C1905.94+506.659+1977.51+373.854+2132.75+364.96L2132.75+364.693ZM2219.56+412.158L2217.96+411.621C2203.44+449.492+2201.26+519.621+2181.66+549.269C2158.76+583.913+2119.24+606.388+2094.32+639.976C2066.67+677.235+2049.05+721.155+2022.12+757.983C1993.43+797.223+1955.93+826.375+1922.64+861.146C1880.18+905.495+1837.24+947.613+1772.42+948.499L1772.48+949.281C1843.97+954.877+1889.12+894.476+1935.36+850.787C1966.14+821.709+1998.57+793.619+2023.6+759.141C2050.5+722.087+2068.09+678.193+2095.87+641.026C2120.66+607.852+2161.18+585.246+2182.9+550.175C2196.68+527.921+2210.76+442.467+2219.56+412.158ZM2181.11+645.491C2153.69+696.337+2119.59+748.842+2079.14+794.949C2117.08+754.813+2150.81+707.402+2181.75+645.821L2181.11+645.491ZM2079.14+794.949C2037.61+838.888+1990.98+874.097+1937.08+908.933C1948.14+902.281+1959.24+895.702+1970.27+888.99C2010.51+864.5+2046.85+831.761+2079.14+794.949ZM1937.08+908.933C1898.5+932.124+1859.8+955.116+1821.17+978.234L1821.46+979.466C1863.5+954.43+1901.81+931.724+1937.08+908.933ZM2209.35+698.005C2160.95+771.672+2144.03+847.12+2063.42+897.407C2018.38+925.504+1971.08+952.19+1923.29+975.284C1910.01+981.703+1877.81+987.599+1869.83+1000.8C1884.54+988.159+1913.95+982.736+1932.14+973.927C1988.25+946.745+2052.6+915.841+2100.15+875.176C2153.7+829.388+2177.26+758.055+2210.65+698.734L2209.35+698.005ZM1869.83+1000.8C1869.8+1000.82+1869.76+1000.85+1869.73+1000.87L1868.71+1002.89C1868.99+1002.17+1869.41+1001.49+1869.83+1000.8Z" stroke="#606060" stroke-width="1.95" fill="#606060" opacity="1" stroke-linejoin="round"/>
</g>
<g id="Tree2" vectornator:layerName="Tree2">
<path d="M2204.21+357.275C2155.09+402.281+2139.26+457.855+2102.87+510.374C2086.24+534.361+2063.71+538.52+2043.32+555.622C2025.38+570.674+2012.25+590.858+2000.23+610.851C1969.25+662.357+1957.58+729.276+1921.17+776.743C1903.06+800.345+1864.29+797.626+1846.55+820.528C1820.26+854.479+1794.44+888.807+1768.37+922.932L1769.41+924.298C1795.55+890.04+1821.46+855.6+1847.82+821.514C1865.38+798.815+1904.2+801.288+1922.34+777.924C1959.21+730.427+1971.23+663.609+2002.22+611.961C2014.08+592.2+2027.08+572.13+2044.45+556.921C2064.46+539.404+2087.54+535.45+2104.22+511.42C2142.51+456.245+2153.83+409.842+2205.02+358.063L2204.21+357.275ZM2162.92+367.431C2112.04+386.422+2072.64+406.577+2036.3+448.171C1974.85+518.525+1939.27+606.98+1879.01+677.659C1817.63+749.648+1735.78+781.383+1740.66+894.398L1742.62+894.034C1734.9+787.386+1822.44+747.582+1880.18+678.643C1939.74+607.542+1976.89+519.874+2038.31+449.715C2074.47+408.409+2112.73+387.696+2163.2+368.158L2162.92+367.431ZM2052.35+332.525C1894.13+360.898+1831.84+491.794+1748.42+616.071L1749.25+616.83C1831.99+493.596+1894.97+361.443+2052.43+332.952L2052.35+332.525ZM2132.75+364.693C1973.42+372.86+1907.58+505.12+1819.19+615.242C1800.86+638.084+1773.32+649.029+1753.62+669.852C1730.68+694.096+1720.6+727.627+1713.43+759.362L1714.37+759.698C1721.24+727.953+1731.86+694.916+1754.52+670.602C1774.09+649.591+1801.85+639.197+1820.04+616.04C1905.94+506.659+1977.51+373.854+2132.75+364.96L2132.75+364.693ZM2219.56+412.158L2217.96+411.621C2203.44+449.492+2201.26+519.621+2181.66+549.269C2158.76+583.913+2119.24+606.388+2094.32+639.976C2066.67+677.235+2049.05+721.155+2022.12+757.983C1993.43+797.223+1955.93+826.375+1922.64+861.146C1880.18+905.495+1837.24+947.613+1772.42+948.499L1772.48+949.281C1843.97+954.877+1889.12+894.476+1935.36+850.787C1966.14+821.709+1998.57+793.619+2023.6+759.141C2050.5+722.087+2068.09+678.193+2095.87+641.026C2120.66+607.852+2161.18+585.246+2182.9+550.175C2196.68+527.921+2210.76+442.467+2219.56+412.158ZM2181.11+645.491C2153.69+696.337+2119.59+748.842+2079.14+794.949C2117.08+754.813+2150.81+707.402+2181.75+645.821L2181.11+645.491ZM2079.14+794.949C2037.61+838.888+1990.98+874.097+1937.08+908.933C1948.14+902.281+1959.24+895.702+1970.27+888.99C2010.51+864.5+2046.85+831.761+2079.14+794.949ZM1937.08+908.933C1898.5+932.124+1859.8+955.116+1821.17+978.234L1821.46+979.466C1863.5+954.43+1901.81+931.724+1937.08+908.933ZM2209.35+698.005C2160.95+771.672+2144.03+847.12+2063.42+897.407C2018.38+925.504+1971.08+952.19+1923.29+975.284C1910.01+981.703+1877.81+987.599+1869.83+1000.8C1884.54+988.159+1913.95+982.736+1932.14+973.927C1988.25+946.745+2052.6+915.841+2100.15+875.176C2153.7+829.388+2177.26+758.055+2210.65+698.734L2209.35+698.005ZM1869.83+1000.8C1869.8+1000.82+1869.76+1000.85+1869.73+1000.87L1868.71+1002.89C1868.99+1002.17+1869.41+1001.49+1869.83+1000.8Z" stroke="#606060" stroke-width="1.95" fill="#606060" opacity="1" stroke-linejoin="round"/>
</g>
<g id="Roots0" vectornator:layerName="Roots0">
<path d="M1654.82+852.797C1670.29+886.179+1702.39+887.323+1702.39+887.323C1702.39+887.323+1681.27+838.763+1686.27+859.026C1691.28+879.29+1814.81+1009.07+1922.85+1003.41C1946.48+1002.18+1999.16+992.667+2042.49+963.919C2116.71+914.674+2183.64+834.499+2183.64+834.499C2183.64+834.499+2165.9+861.976+2143.19+890.631C2122.92+916.208+2097.31+943.342+2098.86+942.91C2217.67+909.913+2253.73+801.854+2253.73+801.854C2253.73+801.854+2235.8+854.45+2162.48+945.745C2132.15+983.504+2113.48+998.169+2104.63+1003.55C2042.29+1041.44+1973.47+1075.62+1883.04+1069.88C1769.05+1062.64+1672.45+902.027+1654.78+854.267" fill-opacity="0.4375" fill="#606060" opacity="1"/>
</g>
<g id="Earth" vectornator:layerName="Earth">
<path d="M3328.3+4453.78C3345.36+4451.4+3315.43+4991.29+3331.69+4999.82C3355.24+5012.18+247.426+5486.19+48.6543+5138.88C-150.117+4791.56+36.1526+4395.48+65.6121+4392.73C74.5861+4391.9+274.8+4436.75+605.713+4443.24C762.364+4446.32+942.997+4448.75+1135.17+4450.66C1395.18+4453.25+1676.32+4454.87+1947.77+4455.8C2280.36+4456.95+2598.41+4457.05+2845.26+4456.62C3068.74+4456.24+3233.85+4455.41+3298.57+4454.52C3316.33+4454.28+3326.53+4454.03+3328.3+4453.78Z" fill-opacity="0.706019" fill="#535353" opacity="1"/>
</g>
<g id="Water" vectornator:layerName="Water">
<path d="M3435.37+1278.27C3477.32+1267.65+3541.65+1258.53+3624.6+1250.76C4592.27+1160.05+8093.31+1252.14+8138.32+1275.16C8171.5+1292.13+8212.99+4347.85+8172.82+4370.68C8127.36+4396.53-4090.22+4477.06-4097.25+4475.67C-4111.09+4472.94-4264.39+1329.24-3765.11+1199.66C-3493.9+1129.28-988.688+1279.77+123.77+1318.37C380.652+1327.28+563.271+1330.23+626.972+1323.11C692.455+1315.79+748.268+1304.97+797.369+1292.44C889.329+1268.96+957.746+1239.48+1022.05+1215.76C1089+1191.06+1151.49+1172.61+1231.45+1173.68C1274.47+1174.25+1322.55+1180.48+1379.1+1194.43C1426.66+1206.16+1480.22+1223.35+1541.8+1247.23C1600.43+1269.96+1651.77+1288.75+1697.37+1303.94C1735.48+1316.64+1769.58+1326.82+1800.59+1334.69C1933.77+1368.52+2009.93+1359.82+2101.16+1324.86C2139.57+1310.14+2180.64+1290.76+2229.76+1267.94C2265.74+1251.23+2306.04+1232.67+2352.76+1212.73C2441.71+1174.79+2516.68+1176.13+2589.16+1194.93C2654.66+1211.93+2718.12+1243.19+2788.02+1272.6C2825.62+1288.42+2865.09+1303.71+2907.73+1315.96C2937.75+1324.58+2969.35+1331.7+3002.99+1336.43C3045.52+1342.42+3091.31+1344.61+3141.29+1341.22C3171.87+1339.15+3204.02+1334.99+3237.96+1328.34C3261.22+1323.78+3285.32+1318.04+3310.33+1311.01C3338.82+1303+3368.48+1293.3+3399.42+1281.72" fill-opacity="0.602272" fill="#007e9f" opacity="1"/>
</g>
</svg>
