<?xml version="1.0" encoding="UTF-8" standalone="no"?> <!-- Created with Vectornator Pro for iOS (http://vectornator.io/) --><!DOCTYPE svg PUBLIC "-//W3C//DTD SVG 1.1//EN" "http://www.w3.org/Graphics/SVG/1.1/DTD/svg11.dtd">
<svg height="100%" style="fill-rule:evenodd;clip-rule:evenodd;stroke-linecap:round;stroke-linejoin:round;" xmlns:xlink="http://www.w3.org/1999/xlink" xmlns="http://www.w3.org/2000/svg" xml:space="preserve" width="100%" xmlns:vectornator="http://vectornator.io" version="1.1" viewBox="0 0 3840 2160">
<metadata>
<vectornator:setting key="RulersVisible" value="1"/>
<vectornator:setting key="SnapToEdges" value="0"/>
<vectornator:setting key="Units" value="Pixels"/>
<vectornator:setting key="DynamicGuides" value="0"/>
<vectornator:setting key="SnapToPoints" value="0"/>
<vectornator:setting key="CMYKEnabledKey" value="0"/>
<vectornator:setting key="SnapToGrid" value="0"/>
<vectornator:setting key="ShowGrid" value="1"/>
<vectornator:setting key="GridSpacing" value="36"/>
</metadata>
<defs/>
<g id="Space" vectornator:layerName="Space">
<path d="M-3109.69+2444.16C-3122.25+1426.87-1090.45-2124.09+1400.42-2124.09C3891.28-2124.09+6568.77-1517.33+6996.88+2239.08C7282.56+4745.83+3891.28+7012.41+1400.42+7012.41C-1090.45+7012.41-3097.13+3461.45-3109.69+2444.16Z" fill-opacity="0" fill="#00243f" opacity="1"/>
</g>
<g id="Sky" vectornator:layerName="Sky">
<path d="M-1054.23-558.531L-214.646-695.082L3850.96-558.531C3874.32-558.531+9722.58-879.811+9722.58-856.445L8932.2+3607.38C8932.2+3630.75+3874.32+2940.59+3850.96+2940.59L-1054.23+2940.59C-1077.6+2940.59-1096.54+2921.65-1096.54+2898.28L-1216.02+824.049L-1096.54-302.498C-1096.54-325.863-1077.6-558.531-1054.23-558.531Z" opacity="1" fill="#94d1ff"/>
</g>
<g id="Earth" vectornator:layerName="Earth">
<path d="M4675.08+1378.54C5048.37+1704.51+4831.4+4578.32+4591.46+4765.44C4472.98+4857.85+3258.55+5899.6+2059.62+5787.51C236.881+5617.1-1794.1+4228.22-1808.12+4202.31C-1831.36+4159.35-1203.89+2323.01-316.821+1563.24C472.602+887.096+1259.47+760.886+1338.99+749.481C1418.51+738.076+1618.57+675.703+1641.04+675.939C1671.44+676.259+1883.26+579.595+1943.14+600.984C1954.02+604.869+1975.67+595.385+1978.93+605.102C1985.98+626.081+2037.64+620.153+2052.97+601.839C2059.8+593.68+2157.5+594.008+2161.27+594.127C2274.35+597.668+2315.67+631.657+2412.8+636.103C2470.99+638.767+2897.87+814.493+3370.76+801.871C3654.43+794.301+4516.09+1239.7+4675.08+1378.54Z" fill-opacity="0.706019" fill="#834700" opacity="1"/>
</g>
<g id="Tree0" vectornator:layerName="Tree0">
<path d="M1947.77+797.153C1947.77+797.153+1919.86+796.906+1899.25+816.957C1878.64+837.008+1870.01+854.044+1866.37+878.485C1863.61+897.006+1858.58+904.224+1858.99+924.774C1859.39+945.324+1866.97+959.558+1866.97+959.558C1866.97+959.558+1870.63+971.513+1885.03+985.194C1891.92+991.736+1902.1+998.178+1912.02+1002.63C1909.44+1005.63+1906.43+1011.18+1907.14+1020.71C1909+1045.41+1921.5+1045.2+1929.9+1062.16C1938.3+1079.13+1944.33+1085.17+1939.17+1103.34C1934.01+1121.52+1903.02+1126.29+1893.76+1139.78C1884.5+1153.27+1876.43+1168.66+1879.48+1180.59C1880.33+1183.95+1869.69+1232.14+1869.69+1232.14C1869.69+1232.14+1840.22+1248.81+1830.19+1276.8C1825.07+1291.07+1834.49+1335.14+1834.49+1335.14C1834.49+1335.14+1797.6+1346.33+1795.08+1355.95C1793.06+1363.68+1805.6+1394.25+1816.64+1445.03C1819.72+1459.2+1660.5+1465.82+1625.82+1510.64C1606.45+1535.66+1672.54+1639.01+1658.33+1669.26C1655.31+1675.7+1619.39+1641.07+1572.85+1639.71C1512.05+1637.94+1436.95+1668.68+1432.16+1675.88C1378.17+1757.03+1415.05+1904.53+1415.2+1905.05C1415.42+1905.79+1418.91+1772.04+1487.45+1707.93C1490.54+1705.05+1574.91+1662.61+1587.29+1690.97C1593.54+1705.29+1528.81+1731.23+1515.88+1764.86C1505.47+1791.91+1587.38+1840.75+1587.38+1840.75L1498.77+1882.67L1418.6+2002.14C1418.6+2002.14+1463.44+1940.03+1516.93+1899.21C1558.51+1867.47+1611.63+1858.58+1612.46+1837.54C1613.58+1809.16+1527.12+1805.09+1540.58+1782.14C1558.95+1750.82+1617.48+1719.73+1626.13+1702.66C1638.36+1678.53+1702.7+1671.97+1706.21+1666.97C1726.37+1638.3+1668.35+1537.22+1692.41+1515.24C1746.46+1465.85+1887.56+1486.43+1888.63+1481.74C1890.31+1474.33+1874.56+1401.87+1874.56+1401.87L1866.89+1340.7C1866.89+1340.7+1876.01+1314.95+1882.44+1301.67C1891.77+1282.39+1901.99+1270.83+1902.97+1273.69C1910.06+1294.28+1918.67+1322.61+1924.73+1340.48C1933.87+1367.38+2001.51+1391.39+2005.16+1395.74C2011.04+1402.76+2018.98+1414.45+2024.31+1421.61C2055.93+1464.12+2020.78+1537.42+2020.78+1537.42C2020.78+1537.42+2072.74+1459.77+2039.25+1400.33C2029.18+1382.45+1973.61+1368.18+1963.16+1351.78C1956.85+1341.89+1952.33+1331.79+1948.67+1321.66C1947.68+1318.92+1959.11+1299.98+1983.06+1304.88C1992.69+1306.85+2008.03+1324.69+2024.5+1328.76C2050.61+1335.21+2077.99+1328.12+2077.99+1328.12C2077.99+1328.12+2051.32+1325.8+2027.84+1314.5C2015.8+1308.7+2009.14+1291.6+1997.9+1289.84C1966.94+1284.96+1937.86+1286.06+1936.96+1283.02C1934.41+1274.4+1931.63+1265.92+1928.03+1257.69C1902.61+1199.68+1924.55+1179.94+1928.7+1171.7C1935.25+1158.71+1929.43+1146.81+1950.34+1138.68C1950.34+1138.68+1953.46+1149.63+1974.37+1151.33C1983.44+1152.07+1996.16+1156.04+2006.41+1155.36C2024.4+1154.17+2038.24+1155.63+2039.76+1160.14C2046.92+1181.5+2052.72+1185.7+2052.72+1185.7C2052.72+1185.7+2070.09+1191.36+2079.32+1202.09C2085.95+1209.79+2076.16+1222.57+2086.86+1240.87C2097.55+1259.17+2151.72+1242.41+2130.21+1276.59C2119.82+1293.1+2082.28+1344.8+2087.31+1375.07C2091.96+1403.09+2138.76+1409.38+2141.17+1433.39C2142.37+1445.31+2065.73+1486.66+2028.42+1557.84C2026.04+1562.39+2010.84+1543.37+1971.32+1544.59C1952.74+1545.16+1904.5+1601.79+1883.47+1605.26C1838.2+1612.74+1822.68+1570.42+1822.18+1575.85C1821.64+1581.76+1841.66+1628.17+1882.51+1624.78C1908.12+1622.66+1951.26+1567.92+1973.65+1574.04C2001.58+1581.68+2017.51+1634.75+2017.44+1639.72C2017.08+1664.35+2015.26+1689.53+2002.76+1712.59C1999.52+1718.57+2001.38+1658.58+1943.58+1676.77C1911.01+1687.02+1847.94+1640.14+1793.66+1691.97C1761.3+1722.87+1736.17+1858.14+1711.15+1870.28C1684.3+1883.3+1630.88+1881.77+1609.37+1898.39C1552.85+1942.07+1545.94+2007.11+1542.84+2012.83C1539.21+2019.54+1553.91+1954.58+1623.85+1915.53C1641.41+1905.72+1691.63+1917.69+1711.83+1909.3C1738.24+1898.33+1770.24+1785.84+1806.11+1746.03C1845.79+1701.99+1889.09+1730.75+1910.08+1728.18C1955.93+1722.58+1944.59+1820+1941.77+1825.23C1898.26+1906+1858.71+1981.02+1836.84+2029.39C1681.82+2372.36+2126.45+2633.09+2126.45+2633.09C2126.45+2633.09+1747.09+2273.16+1884.66+1998.02C1889.69+1987.96+1931.85+2089.04+2015.46+2116.79C2053.24+2129.32+2154.07+2022.17+2195.18+2024.01C2281.65+2027.9+2301.49+2127.92+2301.49+2127.92C2301.49+2127.92+2302.71+1982.83+2227.39+1969.03C2152.06+1955.22+2086.28+2096.98+2018.27+2069.7C2000.09+2062.4+1987.13+2044.02+1977.9+2021C1975.88+2015.95+2015.21+1904.26+2035.57+1885.6C2053.65+1869.03+2075.4+1950.34+2098.97+1948.21C2122.28+1946.1+2127.74+1867.67+2129.98+1844.16C2131.26+1830.83+2199.73+1876.42+2199.22+1873.53C2198.6+1870.06+2131.31+1811.89+2124.21+1826.33C2119.06+1836.82+2110.67+1912.13+2095.73+1913.44C2086.66+1914.23+2050.77+1845.7+2040.81+1850.07C2005.89+1865.37+1958.66+1933.92+1958.17+1928.86C1954.47+1890.69+1955.33+1859.9+1955.33+1859.9C1955.33+1859.9+2023.71+1802.21+2043.31+1745.58C2067.79+1674.8+2046.8+1598.01+2074.43+1549.41C2079.97+1539.67+2093.93+1592.06+2138.06+1601.27C2166.03+1607.11+2237.22+1559.11+2268.73+1557.52C2318.61+1555+2324.72+1595.67+2325.28+1594.85C2329.74+1588.36+2319.72+1534.68+2268.49+1533.48C2237.88+1532.76+2168.23+1588.69+2145.66+1579.43C2117.21+1567.75+2127.5+1506.13+2129.11+1500.55C2136.94+1473.32+2166.64+1440.49+2163.56+1429.91C2151.07+1386.92+2089.24+1405.95+2103.53+1355.43C2108.05+1339.44+2115.58+1328.08+2124.03+1319.04C2125.55+1317.41+2162.89+1322.04+2188.33+1345.67C2206.05+1362.12+2154.28+1436.71+2176.11+1472.99C2206.3+1523.15+2308.33+1535.1+2309.86+1533.83C2312.74+1531.43+2218.57+1512.64+2196.46+1464.49C2177.77+1423.78+2232.48+1354.56+2216.59+1333.66C2195.24+1305.59+2157.72+1289.91+2160.21+1287.26C2165.79+1281.29+2169.9+1274.61+2171.35+1265.9C2176.11+1237.2+2137.43+1244.93+2120.68+1227.37C2118.73+1225.32+2138.74+1209.03+2169.14+1204C2194.82+1199.75+2239.82+1229.49+2290.29+1241.76C2317.01+1248.25+2360.21+1216.44+2384.58+1219.89C2429.37+1226.22+2447.92+1264.55+2447.43+1263.46C2446.7+1261.84+2427.7+1214.47+2387.69+1203.95C2361.8+1197.14+2320.05+1229.18+2292.57+1220.05C2239.47+1202.43+2201.48+1176.96+2172.15+1178.56C2135.96+1180.54+2105.34+1197.2+2104.35+1195.63C2095.9+1182.31+2072.86+1182.87+2063.31+1172.63C2053.25+1161.84+2062.74+1149.47+2055.9+1138.55C2045.05+1121.23+2010.9+1131.17+1975.16+1123.78C1950.08+1118.6+1963.78+1088.85+1962.73+1072.38C1961.3+1050.19+1951.08+1037.46+1941.02+1019.28C1938.02+1013.86+1937.99+1010.42+1939.14+1008.2C1964.1+1006.78+1981.11+997.966+1993.37+980.117C2006.55+960.921+2016.76+940.262+2017.9+925.529C2019.03+910.796+2017.2+894.597+2017.2+894.597C2017.2+894.597+2017.36+892.087+2017.57+888.463C2017.87+883.299+2018.24+875.871+2018.3+870.211C2018.4+860.579+2018.24+863.376+2017.58+856.071C2016.93+848.766+2011.86+834.671+2006.18+820.222C2000.49+805.772+1994.85+798.269+1994.85+798.269L1947.77+797.153Z" stroke="#b87858" stroke-width="3.78" fill="#8d5b46" opacity="1" stroke-linejoin="round"/>
</g>
<g id="Stone line" vectornator:layerName="Stone line">
<path d="M2115.84+573.631C2115.84+573.631+2099.08+561.859+2072.07+562.217C2045.43+562.571+2036.24+572.575+2023.82+596.612C2020.71+602.644+1876.29+556.178+1650.4+600.469C1562.18+617.768+1513.96+766.704+1417.17+792.215C1395.68+797.877+1315.68+859.567+1231.32+861.45C1105.38+864.261+962.255+808.119+929.512+831.217C909.701+845.193+791.494+830.997+717.896+875.762C644.298+920.527+701.367+971.03+635.12+1010.28C568.872+1049.53+452.906+1032.75+452.906+1032.75C452.906+1032.75+575.469+1110.21+646.445+1084.05C717.422+1057.88+697.578+962.13+736.812+928.112C776.046+894.094+803.382+947.974+803.382+947.974C803.382+947.974+676.74+1133.28+646.895+1280.07C635.398+1336.61+741.471+1441.3+759.583+1528.09C783.196+1641.26+723.789+1732.02+737.066+1727.48C753.236+1721.97+802.163+1625.36+778.204+1502.73C765.554+1437.98+665.344+1345.59+675.933+1299.99C686.924+1252.66+718.297+1201.31+756.105+1146.71C760.593+1140.23+876.189+1214.81+908.768+1260.63C930.869+1291.72+894.422+1425.17+911.352+1517.68C928.541+1611.6+1067.6+1633.37+1070.89+1628.77C1073.53+1625.07+951.868+1605.69+939.35+1519.59C927.603+1438.79+957.405+1324.31+928.56+1251.39C883.789+1138.2+812.673+1067.67+816.691+1062.31C873.088+987.015+936.4+915.039+1002.97+879.862C1022.27+869.66+1103.23+948.126+1202.16+946.504C1284.27+945.157+1386.94+863.374+1402.59+859.932C1547.27+828.118+1642.44+673.155+1756.73+658.781C1900.54+640.694+1962.89+723.906+1963.31+730.933C1964.76+755.433+1980.24+779.12+1997.15+797.673C2001.33+802.258+2006.65+807.009+2012.39+811.499C2009.95+819.886+2004.62+835.972+1996.4+848.078C1991.77+854.896+1980.11+861.906+1957.88+861.598C1930.42+861.218+1920.2+871.954+1908.8+897.002C1899.12+918.297+1896.85+928.608+1867.87+926.758C1834.85+924.649+1817.27+917.688+1803.83+929.543C1791.52+940.408+1786.02+954.482+1779.05+988.767C1777.51+996.332+1750.89+1007.64+1714.44+1025.48C1712.76+1026.3+1677.76+1006.71+1619.51+1012.34C1579.97+1016.16+1605.06+1092.07+1532.82+1098.76C1527.97+1099.21+1466.44+1074.94+1397.04+1037.42C1355.42+1014.92+1310.96+987.65+1274.2+958.097C1195.32+894.67+1162.66+965.246+1108.71+1035.99C1084.63+1067.57+926.439+1017.23+926.439+1017.23C926.439+1017.23+1003.89+1108.68+1105.58+1076.46C1175.58+1054.27+1260+981.105+1285.44+1024.22C1308.8+1063.8+1261.53+1080.36+1250.61+1091.27C1210.07+1131.77+1285.95+1318.34+1255.42+1378.2C1245.89+1396.89+993.909+1261.12+983.118+1277.76C892.247+1417.89+787.363+1447.29+786.339+1447.79C784.344+1448.76+896.18+1470.69+1000.97+1364.96C1026.47+1339.23+1280.12+1438.36+1301.78+1404.68C1332.32+1357.2+1248.69+1150.48+1284.86+1117.45C1302.7+1101.15+1324.3+1130.68+1355.77+1169.21C1368.05+1184.24+1486.22+1178.31+1501.25+1206.41C1510.76+1224.17+1411.86+1276.07+1401.99+1304.65C1385.42+1352.59+1460.3+1391.52+1460.3+1391.52C1460.3+1391.52+1414.65+1350.59+1446.06+1303.99C1469.19+1269.68+1562.2+1217.5+1555.39+1194.54C1542.72+1151.82+1388.22+1144.29+1394.52+1124.6C1402.12+1100.85+1536.52+1121.43+1543.34+1121.05C1603.86+1117.7+1609.61+1032.75+1637.88+1031.26C1670.77+1029.52+1675.63+1045.37+1673.5+1046.7C1657.53+1056.63+1643.31+1069.07+1636.28+1086.37C1631.56+1097.97+1636.3+1127.74+1632.52+1140.51C1629.14+1151.95+1618.18+1173.35+1616.47+1192.02C1612.19+1238.94+1619.86+1294.48+1611.42+1321.42C1583.67+1409.96+1545.05+1418.23+1545.05+1418.23C1545.05+1418.23+1603.19+1401.17+1631.81+1333.33C1646.75+1297.89+1631.19+1226.13+1643.17+1183.84C1647.23+1169.5+1662.4+1153.64+1667.74+1136.14C1673.3+1117.92+1669.06+1098.11+1674.27+1086.4C1682.93+1066.91+1699.65+1068.79+1718.73+1062.11C1744.59+1053.08+1772.96+1039.23+1774.43+1037.1C1775.38+1035.73+1796.6+1047.78+1822.8+1073.71C1826.94+1077.8+1838.73+1117.73+1827.64+1152.49C1824.68+1161.76+1788.42+1165.29+1782.5+1177.65C1767.77+1208.44+1810.05+1220.4+1810.05+1220.4C1810.05+1220.4+1778.64+1211.38+1795.66+1184.78C1804.18+1171.44+1831.54+1170.37+1837.12+1160.24C1850.45+1136.04+1844.52+1100.95+1847.91+1106.33C1859.01+1123.93+1892.77+1171.85+1901.4+1194.34C1916.66+1234.15+1817.94+1321.69+1834.92+1368.05C1872.22+1469.94+1975.92+1484.65+1977.46+1481.59C1979.13+1478.28+1890.37+1462.09+1862.28+1371.39C1846.01+1318.88+1941.29+1242.8+1924.83+1192.42C1887.61+1078.48+1797.7+992.565+1798.77+990.12C1809.31+966.009+1821.57+957.168+1838.55+954.212C1847.75+952.611+1873.04+964.275+1873.04+964.275C1873.04+964.275+1870.54+976.594+1882.6+989.073C1893.73+1000.59+1919.09+1012.06+1928.13+1017.96C1949.08+1031.63+1931.91+1079.88+1931.91+1079.88C1931.91+1079.88+1962.58+1041.79+1941.54+1021.65C1913.75+995.058+1903.14+989.824+1905.37+962.33C1908.05+929.224+1932.2+932.667+1939.41+917.169C1945.93+903.148+1967.07+886.722+1967.07+886.722C1967.07+886.722+1965.17+901.45+1970.86+906.73C1974.31+909.93+1974.84+915.811+1974.37+921.543C1975.7+913.841+1976.87+904.69+1976.48+897.555C1975.72+883.924+1980.37+882.614+1980.37+882.614C1980.37+882.614+2005.46+876.883+2014.43+870.21C2027.04+860.835+2035.93+849.452+2043.18+829.532C2047.31+830.997+2051.14+831.863+2054.38+831.843C2087.19+831.633+2107.39+808.414+2120.87+795.421C2131.72+784.957+2144.13+726.61+2145.08+711.895C2146.03+697.18+2156.86+694.305+2149.68+682.868C2142.5+671.432+2150.72+663.012+2150.75+650.042C2150.78+637.071+2150.62+640.835+2149.79+630.992C2148.96+621.148+2144.58+606.395+2135.92+593.444C2128.71+582.668+2115.84+573.631+2115.84+573.631ZM1885.65+929.488C1885.06+932.829+1884.38+935.467+1884.38+935.467C1884.38+935.467+1885.4+932.535+1885.65+929.488Z" stroke="#b77859" stroke-width="8.69" fill="#c28a72" opacity="1" stroke-linejoin="round"/>
</g>
<g id="Roots2" vectornator:layerName="Roots2">
<path d="M2192.76+555.983C2192.76+555.983+2170.94+544.798+2155.39+550.925C2137.61+557.927+2132.03+560.676+2122.18+574.843C2115.61+584.288+2107.3+586.398+2101.44+605.391C2096.64+620.921+2084.71+616.255+2082.93+632.079C2081.16+647.903+2087.71+664.584+2095.63+678.118C2102.43+689.727+2116.64+704.18+2125.53+705.605C2132.32+706.693+2133.8+722.979+2133.43+742.875C2133.06+762.771+2118.72+774.786+2115.86+794.82C2113+814.854+2125.74+817.08+2127.35+823.354C2129.61+832.123+2173.31+810.592+2179.49+818.218C2184.73+824.692+2181.65+836.623+2188.17+842.955C2195.34+849.931+2218.88+868.606+2231.42+905.631C2243.95+942.656+2275.94+991.219+2247.94+1028.48C2219.95+1065.74+2214.92+1129.46+2242.31+1176.19C2269.7+1222.91+2310.59+1185.11+2357.51+1215.39C2400.06+1242.85+2328.51+1301.51+2316.38+1311.75C2235.13+1380.31+2183.49+1341.21+2151.4+1386.03C2134.72+1409.34+2191.67+1451.91+2198.5+1493.46C2207.18+1546.31+2169.08+1596.91+2169.2+1597.58C2169.79+1600.71+2218.14+1540.6+2221+1485.42C2222.45+1457.61+2167.54+1429.11+2179.81+1414.53C2211.44+1376.94+2293.03+1368.24+2295.1+1372.74C2302.78+1389.43+2337.24+1392.77+2343.97+1411.96C2351.49+1433.43+2330.66+1470.83+2326.8+1490.23C2321.01+1519.32+2273.57+1521.62+2263.45+1552.85C2256.3+1574.94+2283.12+1606.7+2279.98+1629.72C2277.68+1646.51+2236.49+1633.61+2227.59+1644.64C2204.32+1673.49+2235.96+1718.57+2235.96+1718.57C2235.96+1718.57+2201.53+1679.55+2231.5+1656.59C2247.96+1643.98+2298.41+1649.81+2305.34+1627.27C2310.65+1610+2279.21+1578.83+2286.87+1562.18C2298.59+1536.71+2350.34+1523.72+2356.98+1503.09C2368.75+1466.5+2400.36+1416.11+2392.32+1389.87C2381.96+1356.03+2329.15+1351.21+2329.15+1351.21L2387.59+1290.59C2387.59+1290.59+2524.76+1320.45+2553.88+1375.75C2583+1431.05+2521.47+1474.99+2504.08+1511.79C2486.69+1548.59+2494.96+1533.69+2484.32+1522.95C2473.68+1512.22+2486.69+1482.11+2461.54+1468.85C2436.38+1455.6+2383.71+1469.93+2383.71+1469.93C2383.71+1469.93+2433.46+1468.92+2452.29+1484.79C2471.12+1500.66+2458.23+1527.15+2442.18+1550.51C2436.15+1559.29+2422.51+1575.99+2398.01+1597.67C2380.55+1613.12+2339.87+1647.28+2337.01+1681.18C2334.16+1715.08+2390.37+1706.58+2386.59+1733.27C2381.15+1771.65+2311.29+1795.49+2311.29+1795.49C2311.29+1795.49+2404.66+1771.15+2415.09+1740.83C2425.52+1710.51+2377.44+1704.49+2374.08+1675.36C2370.72+1646.22+2401.65+1624.29+2401.65+1624.29C2401.65+1624.29+2464.47+1642+2480.5+1679.87C2496.53+1717.74+2465.78+1775.77+2465.78+1775.77C2465.78+1775.77+2516.96+1706.85+2507.57+1665.79C2498.18+1624.73+2428.22+1611.52+2428.22+1611.52L2515.78+1544.01C2515.78+1544.01+2581+1465.41+2589.26+1482.91C2597.51+1500.4+2564.75+1738.87+2564.75+1738.87C2564.75+1738.87+2643.91+1516.78+2613.24+1394.95C2611.9+1389.62+2669.64+1338.18+2711.58+1341.61C2740.36+1343.96+2755.37+1421.72+2780.01+1434.3C2801.31+1445.18+2874.87+1367.13+2928.41+1343.5C2970.5+1324.92+2997.32+1360.79+2996.23+1358.78C2994.74+1356.01+2981.99+1314.4+2929.03+1332.84C2885.13+1348.12+2800.72+1425.1+2788.63+1415.11C2766.92+1397.16+2761.19+1320.04+2725.37+1310.25C2669.17+1294.9+2572.27+1319.59+2567.55+1314.88C2557.05+1304.42+2545.7+1295.61+2534.28+1288.2C2530.11+1285.5+2544.79+1260.47+2581.42+1234.63C2582.57+1233.82+2615.64+1191.49+2648.71+1200.79C2665.33+1205.47+2651.12+1270.95+2666.56+1283.11C2696.85+1306.98+2751.55+1281.47+2748.85+1280.28C2747.01+1279.46+2699.36+1294.79+2681.74+1267.84C2664.25+1241.11+2695.48+1171.35+2644.69+1170.5C2593.9+1169.65+2481.91+1262.47+2478.58+1261.31C2457.19+1253.9+2442.08+1251.58+2442.08+1251.58C2442.08+1251.58+2453.01+1177.28+2385.85+1155.48C2335.26+1139.05+2271.05+1148.1+2278.19+1141.22C2294.82+1125.22+2248.83+1091.16+2283.17+1062.11C2317.51+1033.06+2290.38+950.98+2290.38+950.98L2263.97+905.535C2263.97+905.535+2261.54+840.532+2260.5+837.873C2259.47+835.222+2221.34+816.999+2220.23+813.393C2218.58+808.039+2162.03+783.994+2161.97+781.469C2161.6+763.885+2169.14+723.903+2169.14+723.903C2169.14+723.903+2187.98+718+2195.01+722.263C2199.95+725.259+2201.47+734.183+2205.09+738.058C2208.92+742.15+2207.9+747.923+2207.77+750.841C2207.34+760.456+2197.89+764.196+2197.89+764.196C2197.89+764.196+2206.85+763.452+2210.73+761.837C2214.61+760.222+2218.14+767.453+2218.14+767.453C2218.14+767.453+2221.3+776.17+2231.09+787.747C2234.96+792.325+2236.98+798.476+2244.64+803.004C2250.08+806.218+2255.24+803.023+2267.14+807.003C2275.82+809.904+2279.02+813.003+2284.61+815.86C2285.32+816.224+2287.6+831.681+2295.21+840.507C2299.07+844.979+2313.95+863.672+2315.01+868.844C2315.78+872.565+2320.12+876.869+2318.96+880.44C2315.6+890.698+2301.9+898.654+2301.9+898.654C2301.9+898.654+2317.59+890.917+2323.47+880.486C2325.67+876.584+2322.37+870.985+2322.33+867.184C2322.26+860.711+2307.06+837.136+2302.32+832.873C2296.81+827.923+2297.82+820.209+2298.26+820.259C2304.38+820.947+2306.17+818.681+2313.47+821.358C2322.73+824.75+2327.89+854.036+2333.76+864.443C2339.63+874.85+2349.15+877.032+2340.83+885.569C2325.5+901.289+2332.99+918.38+2332.99+918.38C2332.99+918.38+2335.21+898.492+2348.52+888.961C2349.45+888.294+2373.17+896.382+2396.76+899.149C2411.56+900.884+2429.51+899.293+2440.69+904.591C2448.21+908.158+2468.04+918.407+2473.85+929.995C2479.67+941.584+2483.28+938.438+2484.84+957.582C2485.66+967.697+2481.92+988.451+2480.36+1000.7C2479.09+1010.62+2483.56+1017.91+2481.5+1028.16C2479.73+1037.01+2474.06+1045.44+2471.63+1054.04C2461.59+1089.59+2479.48+1182.6+2479.48+1182.6C2479.48+1182.6+2469.84+1094.49+2482.39+1061.91C2486.37+1051.57+2487.33+1039.53+2490.25+1028.15C2494.63+1011.05+2490.43+993.734+2492.03+977.01C2492.2+975.218+2499.4+972.708+2510.77+970.885C2510.77+970.885+2535.13+985.639+2546.65+997.053C2558.2+1008.49+2564.85+1011.17+2567.49+1013.82C2588.12+1034.53+2573.44+1048.98+2573.44+1048.98C2573.44+1048.98+2594.26+1026.09+2578.55+1007.07C2561.27+986.166+2531.17+968.943+2535.85+969.073C2542.95+969.269+2568.59+970.062+2574.63+971.03C2589.36+973.39+2610.46+1035.34+2644.86+1049.15C2645.28+1049.32+2655.8+1100.82+2692.15+1152.72C2712.24+1181.39+2751.44+1196.69+2774.63+1235.42C2787.97+1257.7+2777.05+1288.18+2792.2+1307.92C2797.21+1314.44+2829.79+1306.45+2834.24+1314.29C2864.14+1366.93+2820.8+1457.68+2818.28+1506.96C2814+1590.99+2831.6+1621.35+2831.6+1621.35C2831.6+1621.35+2841.83+1581.14+2846.9+1502.56C2851.22+1435.53+2880.25+1339.26+2865.63+1265.39C2861.4+1244.03+2827.35+1228.04+2820.33+1210.86C2795.31+1149.65+2758.99+1118.79+2772.08+1117.88C2796.79+1116.16+2867.7+1154.31+2878.11+1171.67C2898.12+1205.05+3013.28+1346.84+3013.28+1346.84C3013.28+1346.84+2907.05+1176.99+2864.75+1121.77C2860.93+1116.78+2824.96+1113.23+2817.41+1103.26C2811.02+1094.83+2842.97+1087.94+2873.63+1091.91C2914.26+1097.17+2918.13+1084.75+2918.13+1084.75L2951.88+1104.55L3152.35+1165.4C3152.35+1165.4+2983+1099.25+2959.18+1089.06C2943.54+1082.37+2937.48+1064.09+2920.38+1066.68C2877.25+1073.22+2860.21+1065.36+2834.67+1067.96C2808.98+1070.58+2770.14+1091.46+2767.7+1089.88C2730.67+1065.86+2673.91+992.76+2682.3+994.964C2727.82+1006.93+2845.58+981.025+2878.98+986.592C2988.32+1004.82+3028.39+1077.99+3028.34+1076.16C3028.31+1074.72+3002.61+968.952+2902.43+949.899C2885.53+946.683+2773.43+971.119+2764.98+947.448C2757.58+926.717+2796.3+942.592+2829.52+936.908C2864.19+930.975+2902+882.657+2902+882.657C2902+882.657+2837.52+923.335+2828.3+922.58C2819.91+921.894+2810.04+913.66+2800.07+905.818C2789.39+897.424+2778.58+889.479+2769.32+891.718C2742.49+898.209+2702.01+952.678+2699.28+951.403C2654.71+930.616+2610.48+887.382+2591.67+881.013C2570.42+873.815+2541.34+891.787+2524.7+888.08C2508.57+884.485+2501.52+867.403+2501.01+865.842C2496.49+851.817+2468.75+855.518+2454.42+850.696C2440.67+846.069+2420.33+851.03+2408.23+847.287C2379.46+838.388+2365.28+825.987+2365.73+825.525C2369.6+821.482+2356.61+820.176+2356.72+807.356C2356.83+794.536+2268.01+777.357+2261.13+752.82C2259.06+745.428+2246.69+740.779+2243.98+735.088C2237.7+721.89+2240.4+711.127+2236.42+705.045C2226.41+689.709+2211.52+708.065+2183.35+699.496C2179.31+698.268+2175.42+696.677+2171.69+694.887C2172.92+693.935+2174.1+693.022+2175.19+692.198C2182.68+686.565+2189.1+672.202+2191.24+662.877C2193.37+653.552+2222.89+603.114+2293.78+631.285C2364.67+659.455+2362.26+736.803+2474.79+775.56C2525.35+792.975+2661.03+749.83+2722.83+767.623C2811.65+793.195+2733.09+1010.58+2774.76+1081.42C2813.79+1147.76+2899.91+1169.69+3020.05+1263.14C3023.98+1266.19+3028.35+1295.94+3032.04+1337.07C3032.3+1339.92+2959.74+1415.9+2932.05+1463.67C2909.28+1502.96+2982.25+1500.66+2987.1+1558.32C2989.22+1583.5+2914.18+1637.01+2912.53+1661.15C2908.04+1726.9+3004.69+1761.82+3004.69+1761.82C3004.69+1761.82+2938.67+1735.27+2954.17+1671.05C2962.28+1637.46+3017.72+1576.79+3022.44+1543.69C3026.46+1515.44+2963.29+1489.25+2977.17+1470.8C3005.99+1432.5+3037.98+1425.22+3038.32+1432.58C3039.82+1465.85+3040.68+1499.53+3040.54+1528.96C3040.35+1568.31+3193.17+1637.67+3198.32+1679.15C3202.32+1711.37+3029.89+1757.06+3024.8+1785.57C3006.27+1889.34+3113.98+1948.54+3121.36+1956.64C3126.33+1962.09+3055.12+1903.92+3084.94+1796.5C3094.77+1761.06+3238.91+1694.24+3237.04+1657.06C3234.83+1613+3080.03+1560.03+3085.14+1523.87C3095.28+1452.17+3147.92+1419.79+3150.48+1424.12C3173.87+1463.64+3263.92+1483.23+3281.74+1561.59C3295.11+1620.39+3250.06+1705.29+3275.08+1756.54C3339.53+1888.55+3556.74+1907.78+3556.19+1908.79C3555.85+1909.42+3379.2+1870.8+3332.57+1731.66C3314.59+1678.03+3384.44+1592.55+3373.46+1534.59C3361.15+1469.54+3268.26+1433.3+3251.34+1401.1C3244.44+1387.96+3235.74+1375.23+3225.59+1362.88C3221.54+1357.95+3310.77+1400.55+3359.12+1469.06C3377.73+1495.42+3437.52+1368.39+3470.29+1386.32C3511.94+1409.11+3543.74+1502.66+3586.35+1533.12C3658.56+1584.74+3732.89+1571.07+3728.61+1567.22C3726.63+1565.44+3651.79+1561.33+3603.05+1508.73C3562.35+1464.81+3551.37+1373.73+3507.35+1348.07C3467.51+1324.85+3428.83+1397.88+3386.27+1390.06C3346.88+1382.82+3323.85+1325.53+3289.54+1311.86C3225.6+1286.38+3162.07+1302.24+3159.22+1300.01C3034.21+1202.36+2844.43+1128.87+2820.66+1057.16C2794.94+979.567+2833.95+876.125+2808.22+813.453C2800.15+793.8+2898.01+867.155+2981.27+860.867C3039.51+856.468+3073.66+768.163+3131.54+773.075C3184.32+777.556+3197.1+818.553+3227.82+828.505C3266.23+840.948+3316.07+822.206+3316.07+822.206C3316.07+822.206+3286.77+833.099+3242.44+813.629C3213.62+800.969+3185.95+758.854+3130.17+749.353C3082.26+741.19+3035.75+821.553+2976.86+818.538C2879.63+813.559+2775.23+727.982+2771.11+723.122C2763.5+714.168+2754.01+707.142+2742.16+702.527C2691.31+682.712+2551.77+734.223+2508.16+714.955C2375.58+656.375+2383.93+586.089+2308.3+548.449C2232.68+510.809+2209.34+573.535+2205.65+564.396C2202.58+556.791+2192.76+555.983+2192.76+555.983Z" stroke="#c28a72" stroke-width="3.16" fill="#af6446" opacity="1" stroke-linejoin="round"/>
</g>
<g id="Roots1" vectornator:layerName="Roots1">
<path d="M2179.29+676.963C2178.75+675.002+2196.38+522.011+2146.55+403.883C2082.85+252.892+1948.57+125.584+1951.12+85.8619C1952.93+57.7162+1906.07+17.6837+1883.19-40.0586C1866.84-81.3226+1799.28-171.465+1829.86-223.987C1845.58-250.981+1977.38-232.246+1998.75-248.064C2025.23-267.659+2178.64-388.729+2293.93-535.038C2411.44-684.176+2613.73-870.827+2613.73-870.827C2613.73-870.827+2029.21-298.485+1967.57-267.04C1946.56-256.321+1827.38-276.53+1811.2-258.301C1784.84-228.606+1788.04-123.839+1784.56-104.73C1784.1-102.185+1752.88-177.072+1699.32-184.735C1669.15-189.051+1662.65-145.355+1624.54-159.758C1584.28-174.979+1450.59-284.98+1450.59-284.98C1450.59-284.98+1592.23-160.158+1599.32-114.658C1605.86-72.6271+1680.58-151.239+1694.45-139.687C1723.37-115.588+1755.9-92.772+1768.39-64.4195C1780.87-36.067+1874.47-14.7268+1850.88+39.9766C1827.29+94.68+1649.34+149.883+1586.25+148.586C1540.69+147.649+1529.78-51.3822+1455.32-83.7169C1437.44-91.4776+1395.28-77.5695+1345.65-56.9621C1334.91-52.5042+1369.64-110.74+1354.55-176.344C1346.01-213.492+1166.54-237.556+1125.99-304.821C1054.55-423.358+1184.26-632.998+1172.88-627.94C1163.72-623.871+996.29-401.017+1048.47-276.695C1077.8-206.803+1265.1-187.656+1262.3-146.269C1257.05-68.5858+1271.15-43.7217+1262.43-40.2619C1227.51-26.4072+1125.11+33.6934+1107.06+32.5848C903.805+20.1025+826.673-313.711+832.326-302.297C834.754-297.394+922.355+77.2571+1110.52+97.2049C1174.31+103.968+1375.69-65.8752+1421.24-41.6302C1505.24+3.07251+1516.1+192.426+1567.62+200.444C1674.38+217.06+1864.45+118.139+1866.44+126.277C1875.53+163.389+1938.57+412.927+1983.55+530.248C2008.32+594.86+1973.05+621.976+1973.05+621.976C1973.05+621.976+1940.95+669.08+1931.32+682.672C1921.68+696.263+1912.09+741.433+1910.39+758.001C1909.1+770.555+1878.77+829.482+1878.96+843.412C1879.15+857.342+1873.1+912.544+1873.1+912.544C1873.1+912.544+1884.64+948.014+1891.37+957.288C1897.15+965.243+1935.15+1014.08+1941.23+1013.97C1954.39+1013.74+1997.33+1062.21+1997.33+1062.21C1997.33+1062.21+2052.67+1049.28+2084.03+1040.93C2115.39+1032.59+2154.45+974.587+2154.45+974.587C2154.45+974.587+2160.83+935.169+2160.93+932.713C2161.06+929.212+2170.5+870.387+2170.5+870.387C2170.5+870.387+2182.07+807.169+2181.76+802.217C2181.46+797.266+2181.94+686.757+2179.29+676.963Z" stroke="#a48550" stroke-width="1.95" fill="#7a4726" opacity="1" stroke-linejoin="round"/>
</g>
<g id="Shadow" vectornator:layerName="Shadow">
<path d="M2683.4+158.43C2683.4+158.43+2813.56+240.018+2898.74+240.445C2983.91+240.873+2968.74+160.044+3024.09+160.138C3079.43+160.232+3045.78+228.616+3120.12+240.821C3194.45+253.026+3321.43+208.958+3321.43+208.958C3321.43+208.958+3203.41+223.318+3130.57+199.411C3057.72+175.504+3085.48+114.039+3030.05+113.329C2974.62+112.62+2972.13+196.132+2908.84+196.573C2845.56+197.014+2776.91+115.094+2776.91+115.094C2776.91+115.094+3075.8+114.558+3211.84+19.9052C3347.88-74.7472+3311.65-256.156+3321.08-263.515C3397.28-322.98+3557.58-294.777+3621.01-319.996C3913.79-436.413+4150.36-375.732+4150.36-375.732C4150.36-375.732+3908.31-463.229+3615.16-357.551C3599.27-351.821+3590.25-501.773+3499.16-549.084C3349.71-626.7+3096.45-620.308+3096.45-620.308C3096.45-620.308+3386.9-615.35+3472.99-494.414C3493.15-466.104+3481.68-404.675+3487.24-374.294C3500.54-301.66+3348.13-343.287+3262.4-270.192C3183.06-202.554+3271.29-95.2669+3196.46-26.1326C3121.62+43.0017+3040.18-20.9613+2963.06+6.34564C2952.33+10.1455+2993.03-40.6572+2934.18-83.4696C2914.81-97.566+2853.98-91.9377+2834.37-104.82C2775.45-143.513+2764.93-203.56+2764.93-203.56C2764.93-203.56+2756.79-130.986+2802.76-84.2113C2825.09-61.4847+2890.15-65.7708+2906.67-43.2402C2941+3.59601+2874.39+40.0391+2864.78+43.8284C2712.16+103.987+2587.65+149.536+2492.68+195.904C2486.55+198.9+2546.6+186.701+2542.94+97.119C2541.17+53.8176+2491.79+2.88214+2507.15-57.4141C2516.16-92.7952+2581.29-185.157+2562.31-217.964C2520.7-289.918+2363.09-289.792+2359.64-287.903C2355.81-285.803+2489.86-267.194+2518.96-194.238C2529.86-166.905+2478.81-100.095+2468.68-69.8127C2448.73-10.1761+2505.61+52.9019+2501.91+98.2677C2493.59+200.409+2415.58+238.008+2409.96+241.608C2309.76+305.78+2282.42+363.108+2284.52+316.746C2289.48+207.257+2301.3+170.651+2288.25+104.876C2275.2+39.1007+2229.67+1.67354+2219.22-9.16597C2174.39-55.6249+2057.31+13.2109+2057.31+13.2109C2057.31+13.2109+2175.49-9.57137+2209.65+46.203C2232.12+82.8871+2260.93+174.978+2246.74+236.224C2232.54+297.47+2221.12+349.452+2221.12+349.452C2221.12+349.452+2214.05+411.31+2202.45+423.368C2190.84+435.426+2168.76+463.692+2122.24+485.543C2075.73+507.394+1982.51+638.965+1947.14+710.289C1911.77+781.612+1868.47+843.311+1891.94+899.082C1915.41+954.853+1942.9+1001.66+2009.6+1020.31C2076.29+1038.96+2122.34+1023.89+2158.72+973.696C2195.1+923.5+2187.83+884.195+2196.8+818.868C2205.76+753.542+2191.28+768.729+2201.22+706.219C2211.16+643.71+2236.57+568.83+2236.57+568.83C2236.57+568.83+2258.04+481.141+2258.16+478.961C2258.32+475.856+2331.26+368.006+2331.29+364.602C2331.35+358.81+2526.32+233.563+2526.32+233.563L2683.4+158.43Z" stroke="#996523" stroke-width="4.18" fill="#8b5116" opacity="1" stroke-linejoin="round"/>
</g>
<g id="Stone face" vectornator:layerName="Stone face">
<path d="M1938.76+799.099C1934.4+805.931+1934.12+813.072+1931.42+820.44C1930.19+823.806+1927.74+824.957+1925.89+827.603C1924.26+829.933+1923.32+832.739+1922.5+835.491C1920.39+842.581+1920.89+850.965+1918.05+857.727C1916.64+861.089+1912.15+861.883+1910.76+865.15C1908.7+869.993+1906.71+874.868+1904.68+879.725L1904.83+879.859C1906.87+874.984+1908.87+870.093+1910.94+865.232C1912.31+861.994+1916.79+861.169+1918.21+857.835C1921.11+851.057+1920.65+842.674+1922.76+835.567C1923.57+832.848+1924.5+830.058+1926.05+827.727C1927.85+825.042+1930.37+823.899+1931.6+820.527C1934.45+812.785+1934.47+806.877+1938.87+799.17L1938.76+799.099ZM1934.34+801.514C1929.08+805.27+1925.15+808.833+1922.15+814.885C1917.09+825.123+1915.47+836.789+1910.55+847.031C1905.54+857.463+1897.1+863.646+1900.75+877.095L1900.96+876.995C1897.17+864.394+1906.03+857.075+1910.71+847.115C1915.54+836.843+1917.36+825.226+1922.42+815.013C1925.41+809+1929.19+805.403+1934.39+801.594L1934.34+801.514ZM1920.82+800.515C1903.61+808.502+1900.1+826.044+1894.02+843.401L1894.13+843.469C1900.17+826.257+1903.72+808.544+1920.84+800.564L1920.82+800.515ZM1930.84+802.058C1912.95+807.648+1909.08+825.456+1902.04+841.255C1900.58+844.532+1897.75+846.644+1896.08+849.718C1894.14+853.297+1893.91+857.621+1893.96+861.645L1894.07+861.658C1893.99+857.642+1894.29+853.362+1896.2+849.783C1897.85+846.69+1900.72+844.637+1902.16+841.327C1908.93+825.689+1913.44+807.649+1930.84+802.09L1930.84+802.058ZM1942+805.255L1941.81+805.236C1941.19+810.21+1942.86+818.707+1941.44+822.839C1939.79+827.667+1935.91+831.512+1933.99+836.272C1931.87+841.553+1931.07+847.344+1929.01+852.551C1926.82+858.1+1923.36+862.69+1920.52+867.834C1916.91+874.395+1913.18+880.701+1905.84+882.682L1905.86+882.775C1914.14+881.38+1917.62+872.811+1921.69+866.22C1924.39+861.833+1927.31+857.518+1929.21+852.647C1931.26+847.414+1932.06+841.627+1934.2+836.354C1936.11+831.648+1940.1+827.757+1941.61+822.912C1942.57+819.837+1941.83+809.154+1942+805.255ZM1944.01+834.426C1942.28+841.333+1939.84+848.633+1936.51+855.347C1939.72+849.424+1942.26+842.747+1944.09+834.447L1944.01+834.426ZM1936.51+855.347C1932.99+861.832+1928.65+867.415+1923.47+873.163C1924.55+872.043+1925.63+870.931+1926.7+869.804C1930.61+865.696+1933.84+860.708+1936.51+855.347ZM1923.47+873.163C1919.72+877.067+1915.95+880.951+1912.19+884.848L1912.26+884.988C1916.35+880.762+1920.09+876.923+1923.47+873.163ZM1948.66+839.924C1945.17+850.182+1945.31+859.744+1937.52+868.122C1933.17+872.804+1928.52+877.381+1923.72+881.54C1922.38+882.696+1918.89+884.336+1918.34+886.155C1919.67+884.209+1922.86+882.706+1924.69+881.121C1930.32+876.229+1936.79+870.652+1941.09+864.387C1945.92+857.332+1946.65+848.073+1948.83+839.974L1948.66+839.924ZM1918.34+886.155C1918.34+886.159+1918.33+886.162+1918.33+886.166L1918.27+886.439C1918.28+886.343+1918.31+886.249+1918.34+886.155Z" stroke="#606060" stroke-width="1.95" fill="#606060" opacity="1" stroke-linejoin="round"/>
</g>
<g id="Stone HL" vectornator:layerName="Stone HL">
<path d="M1938.76+799.099C1934.4+805.931+1934.12+813.072+1931.42+820.44C1930.19+823.806+1927.74+824.957+1925.89+827.603C1924.26+829.933+1923.32+832.739+1922.5+835.491C1920.39+842.581+1920.89+850.965+1918.05+857.727C1916.64+861.089+1912.15+861.883+1910.76+865.15C1908.7+869.993+1906.71+874.868+1904.68+879.725L1904.83+879.859C1906.87+874.984+1908.87+870.093+1910.94+865.232C1912.31+861.994+1916.79+861.169+1918.21+857.835C1921.11+851.057+1920.65+842.674+1922.76+835.567C1923.57+832.848+1924.5+830.058+1926.05+827.727C1927.85+825.042+1930.37+823.899+1931.6+820.527C1934.45+812.785+1934.47+806.877+1938.87+799.17L1938.76+799.099ZM1934.34+801.514C1929.08+805.27+1925.15+808.833+1922.15+814.885C1917.09+825.123+1915.47+836.789+1910.55+847.031C1905.54+857.463+1897.1+863.646+1900.75+877.095L1900.96+876.995C1897.17+864.394+1906.03+857.075+1910.71+847.115C1915.54+836.843+1917.36+825.226+1922.42+815.013C1925.41+809+1929.19+805.403+1934.39+801.594L1934.34+801.514ZM1920.82+800.515C1903.61+808.502+1900.1+826.044+1894.02+843.401L1894.13+843.469C1900.17+826.257+1903.72+808.544+1920.84+800.564L1920.82+800.515ZM1930.84+802.058C1912.95+807.648+1909.08+825.456+1902.04+841.255C1900.58+844.532+1897.75+846.644+1896.08+849.718C1894.14+853.297+1893.91+857.621+1893.96+861.645L1894.07+861.658C1893.99+857.642+1894.29+853.362+1896.2+849.783C1897.85+846.69+1900.72+844.637+1902.16+841.327C1908.93+825.689+1913.44+807.649+1930.84+802.09L1930.84+802.058ZM1942+805.255L1941.81+805.236C1941.19+810.21+1942.86+818.707+1941.44+822.839C1939.79+827.667+1935.91+831.512+1933.99+836.272C1931.87+841.553+1931.07+847.344+1929.01+852.551C1926.82+858.1+1923.36+862.69+1920.52+867.834C1916.91+874.395+1913.18+880.701+1905.84+882.682L1905.86+882.775C1914.14+881.38+1917.62+872.811+1921.69+866.22C1924.39+861.833+1927.31+857.518+1929.21+852.647C1931.26+847.414+1932.06+841.627+1934.2+836.354C1936.11+831.648+1940.1+827.757+1941.61+822.912C1942.57+819.837+1941.83+809.154+1942+805.255ZM1944.01+834.426C1942.28+841.333+1939.84+848.633+1936.51+855.347C1939.72+849.424+1942.26+842.747+1944.09+834.447L1944.01+834.426ZM1936.51+855.347C1932.99+861.832+1928.65+867.415+1923.47+873.163C1924.55+872.043+1925.63+870.931+1926.7+869.804C1930.61+865.696+1933.84+860.708+1936.51+855.347ZM1923.47+873.163C1919.72+877.067+1915.95+880.951+1912.19+884.848L1912.26+884.988C1916.35+880.762+1920.09+876.923+1923.47+873.163ZM1948.66+839.924C1945.17+850.182+1945.31+859.744+1937.52+868.122C1933.17+872.804+1928.52+877.381+1923.72+881.54C1922.38+882.696+1918.89+884.336+1918.34+886.155C1919.67+884.209+1922.86+882.706+1924.69+881.121C1930.32+876.229+1936.79+870.652+1941.09+864.387C1945.92+857.332+1946.65+848.073+1948.83+839.974L1948.66+839.924ZM1918.34+886.155C1918.34+886.159+1918.33+886.162+1918.33+886.166L1918.27+886.439C1918.28+886.343+1918.31+886.249+1918.34+886.155Z" stroke="#606060" stroke-width="1.95" fill="#606060" opacity="1" stroke-linejoin="round"/>
</g>
<g id="Tree2" vectornator:layerName="Tree2">
<path d="M1389.47-35.75C1388.71-32.2386+1389.13-28.4919+1390.47-25.0625C1389.68-26.4261+1388.7-27.6759+1387.94-29.125C1390.83-23.6563+1387.69-12.1052+1387.5-5.59375C1387.42-2.7014+1388.18-0.0503573+1389.41+2.40625C1390.64+4.86278+1392.32+7.12667+1394.19+9.15625C1396.07+11.2052+1399.63+14.1186+1399.41+13.9062C1398.89+13.4215+1401.81+15.3362+1401.25+14.9062C1401.12+14.8081+1402.53+15.8057+1401.97+15.125C1401.74+14.851+1402.1+15.095+1402.47+15.3438C1402.49+15.3739+1402.54+15.4082+1402.56+15.4375C1402.5+15.4312+1402.49+15.4747+1402.41+15.4375C1402.34+15.4105+1402.61+15.4727+1402.62+15.4688C1402.92+15.7731+1403.44+15.9811+1404+16.1875C1404.09+16.2257+1404.21+16.3264+1404.28+16.3438L1404.28+16.2812C1405.28+16.8031+1406.23+17.1523+1406.44+16.7812C1406.44+16.776+1406.43+16.7552+1406.44+16.75C1407.35+16.853+1408.04+16.8703+1408.59+16.7812C1422.16+21.1813+1435.9+10.0496+1424.22-4.75C1412.28-19.8791+1396.45-14.3644+1389.88-35.7188L1389.47-35.75ZM1114.22-24.25C1113.05-17.8454+1113.37-11.0877+1114.81-5C1113.93-7.40015+1112.76-9.56877+1111.91-12.125C1115.15-2.47844+1110.52+18.5972+1109.88+30.375C1109.59+35.6066+1110.35+40.3799+1111.72+44.7188C1113.09+49.0575+1115.06+52.9837+1117.25+56.5C1119.46+60.0498+1123.71+65.0215+1123.44+64.6562C1122.82+63.8225+1126.33+67.0438+1125.66+66.3125C1125.5+66.1456+1127.19+67.8406+1126.53+66.6562C1126.27+66.1796+1126.71+66.5803+1127.16+67C1127.18+67.0526+1127.22+67.1055+1127.25+67.1562C1127.18+67.1495+1127.17+67.2166+1127.06+67.1562C1126.99+67.1124+1127.29+67.2271+1127.31+67.2188C1127.66+67.7452+1128.29+68.0783+1128.97+68.4062C1129.08+68.4679+1129.22+68.6621+1129.31+68.6875L1129.34+68.5938C1130.56+69.4558+1131.72+69.968+1132+69.2812C1132+69.2715+1131.97+69.2597+1131.97+69.25C1133.1+69.3626+1133.96+69.3303+1134.66+69.125C1151.22+75.9812+1168.97+54.7321+1155.41+28.9375C1141.54+2.56856+1121.55+13.7969+1114.75-24.25L1114.22-24.25ZM1266.84-17.9062L1266.53-17.6875C1267.02-13.7019+1268.41-10.1597+1270.28-7.46875C1269.36-8.39195+1268.33-9.07334+1267.41-10.0938C1270.91-6.24267+1272.06+7.22327+1273.78+13.9062C1274.55+16.8748+1275.82+19.1368+1277.34+20.9062C1278.87+22.6756+1280.67+23.9668+1282.5+24.9375C1284.35+25.9176+1287.59+26.8012+1287.38+26.7188C1286.89+26.5305+1289.41+26.7642+1288.91+26.6562C1288.79+26.6317+1290.01+26.8299+1289.44+26.4688C1289.21+26.3234+1289.52+26.3688+1289.84+26.4062C1289.87+26.4232+1289.91+26.4234+1289.94+26.4375C1289.95+26.4328+1289.97+26.4395+1289.97+26.4375C1290.25+26.5762+1290.66+26.4887+1291.09+26.375C1291.17+26.3616+1291.29+26.4002+1291.34+26.375L1291.34+26.3125C1292.17+26.259+1292.91+26.0237+1292.94+25.5312C1293.58+25.1073+1294.03+24.7219+1294.38+24.3125C1304.78+20.9068+1310.87+1.71767+1298.78-6.46875C1286.43-14.8375+1277.35-0.146247+1266.84-17.9062ZM1860.72-2.71875C1853.7-3.08547+1848.37+5.13542+1852.34+11.25L1852.88+10.75C1853.08+11.7831+1853.8+12.9135+1855.31+14.1875C1849.9+9.65177+1857.6+5.9851+1864.03+4.21875C1869.75+6.94266+1875.51+10.8458+1878.81+16.5938C1885.86+28.8505+1876.25+49.617+1885.5+60.5938C1885.91+61.0846+1886.66+61.7324+1887.56+62.4062C1889.82+64.0909+1893.21+65.844+1895.69+64.9688C1897.05+65.0537+1898.46+64.9821+1899.72+64.6562C1907.99+62.5203+1909.79+58.4546+1908.59+54.8438C1909.12+53.9841+1909.5+53.0244+1909.75+51.9375C1910.78+52.4286+1910.94+52.5898+1912.16+53.125C1916.83+71.6996+1948.54+57.9152+1945.88+33.6562C1945.38+29.1328+1942.14+24.6083+1939.78+21.6875C1928.77+8.03608+1905.43+7.42592+1888.72+6.375C1888.46+6.3585+1888.23+6.28146+1887.97+6.25C1906.52+10.2073+1930.65+17.0403+1936.94+25.0312C1940.65+29.7458+1944.75+36.2031+1942.94+44.8438C1939.59+60.7805+1920.49+62.3386+1914.59+54.125C1914.97+54.2838+1915.52+54.5128+1915.72+54.5938C1915.82+55.0221+1915.93+55.4045+1916.16+55.5C1918.7+56.5702+1925.01+59.8417+1928.41+56.625C1928.55+56.4888+1928.57+56.3527+1928.69+56.2188C1930.44+55.5328+1932.04+54.6097+1933.38+53.5625C1934.25+53.5941+1935.14+53.4165+1936.03+53.0312C1937.63+52.8126+1939.01+52.1092+1939.62+50.6562C1939.92+49.9489+1940.01+49.2832+1940.03+48.6562C1940.11+48.4627+1940.24+48.3621+1940.31+48.1562C1940.79+46.7205+1940.96+45.4217+1940.91+44.25C1942.05+42.9665+1942.81+41.4028+1942.75+39.5938C1942.7+38.1914+1941.62+36.9989+1940.25+36C1940.65+34.2284+1940.1+32.6827+1938.91+31.4375C1939.06+30.7307+1939.25+30.0032+1939.12+29.1562C1938.85+27.3172+1935.33+25.2542+1931.34+23.5625C1929.74+18.0361+1920.92+17.1749+1915.41+16.4375C1910.41+12.438+1897.79+10.2708+1894.78+9.5C1894.25+9.36406+1889.67+7.61793+1887.5+8.6875C1887+8.64681+1886.5+8.63621+1886.03+8.65625C1885.79+8.47406+1885.49+8.3672+1885.28+8.15625C1885.04+7.9131+1884.86+8.1225+1884.72+8.5C1883.75+7.84174+1882.83+7.38857+1881.97+7.15625C1881.86+7.06925+1881.8+7.06041+1881.69+6.96875C1881.57+6.87586+1881.53+7.05536+1881.47+7.125C1880.62+7.00074+1879.77+7.0116+1879.12+7.5625C1877.87+6.30548+1876.56+5.05033+1875.16+3.875C1877.97+4.31967+1880.8+4.77059+1884.44+5.5C1880.7+4.32488+1877.1+2.41333+1873.28+2.4375C1873.28+2.43756+1873.25+2.46869+1873.25+2.46875C1869.54-0.300081+1865.4-2.47383+1860.72-2.71875ZM2141.56-0.71875C2141.12-0.765554+2140.81-0.694649+2140.72-0.5C2139.73-0.474149+2138.96-0.378861+2138.38-0.21875C2122.98-2.64995+2109.31+10.0874+2123.91+22.9062C2138.83+36.0105+2155.48+28.4732+2165.28+48.375L2165.75+48.3438C2166.16+44.8194+2165.19+41.2205+2163.31+38.0625C2164.34+39.2835+2165.58+40.3494+2166.59+41.6562C2162.76+36.7243+2164.81+25.0555+2164.22+18.6875C2163.96+15.8588+2162.8+13.3811+2161.16+11.1562C2159.51+8.93147+2157.38+6.97206+2155.09+5.25C2152.78+3.5115+2148.51+1.16808+2148.78+1.34375C2149.41+1.74472+2145.99+0.283279+2146.66+0.625C2146.81+0.702957+2145.14-0.0859986+2145.84+0.5C2146.13+0.73584+2145.69+0.535584+2145.25+0.34375C2145.22+0.317581+2145.16+0.306137+2145.12+0.28125C2145.19+0.279449+2145.21+0.225357+2145.31+0.25C2145.38+0.267883+2145.11+0.244171+2145.09+0.25C2144.74-0.00663758+2144.13-0.125092+2143.5-0.25C2143.4-0.274887+2143.24-0.368164+2143.16-0.375L2143.16-0.34375C2142.57-0.529343+2142-0.671946+2141.56-0.71875ZM2265.88+0.09375C2265.34+0.00878215+2264.95+0.115386+2264.84+0.46875C2264.84+0.478769+2264.85+0.49007+2264.84+0.5C2263.6+0.544346+2262.67+0.70551+2261.94+1C2242.95-3.41365+2226.1+19.6972+2244.09+42.9688C2262.49+66.7584+2283.01+53.0886+2295.09+89.2188L2295.66+89.1562C2296.16+82.7581+2295+76.2331+2292.69+70.5C2293.95+72.7166+2295.47+74.6274+2296.72+77C2292+68.0464+2294.54+46.9044+2293.81+35.3438C2293.49+30.2086+2292.06+25.6641+2290.03+21.625C2288+17.5861+2285.35+14.0325+2282.53+10.9062C2279.68+7.75015+2274.44+3.49358+2274.78+3.8125C2275.56+4.54043+2271.3+1.87962+2272.12+2.5C2272.31+2.64154+2270.26+1.21742+2271.12+2.28125C2271.47+2.70938+2270.94+2.34827+2270.41+2C2270.37+1.95249+2270.32+1.92019+2270.28+1.875C2270.36+1.87173+2270.38+1.79903+2270.5+1.84375C2270.59+1.87622+2270.24+1.83316+2270.22+1.84375C2269.78+1.37784+2269.03+1.13301+2268.25+0.90625C2268.12+0.861065+2267.95+0.699877+2267.84+0.6875L2267.81+0.78125C2267.1+0.444317+2266.41+0.178718+2265.88+0.09375ZM1832.94+0.78125C1830.3+6.47069+1829.36+13.1533+1829.91+19.6875C1829.31+16.97+1828.35+14.3873+1827.81+11.5312C1829.83+22.3091+1820.2+40.6865+1817.16+51.8125C1815.8+56.7546+1815.82+61.6906+1816.62+66.5C1817.43+71.3093+1819.03+76.0019+1820.97+80.375C1822.93+84.7897+1827.07+91.4731+1826.81+91C1826.24+89.9201+1829.82+94.5997+1829.16+93.5938C1829+93.3642+1830.72+95.7504+1830.16+94.3125C1829.93+93.7338+1830.36+94.335+1830.81+94.9375C1830.83+95.0003+1830.88+95.062+1830.91+95.125C1830.82+95.0867+1830.8+95.1665+1830.69+95.0625C1830.61+94.9869+1830.95+95.1876+1830.97+95.1875C1831.28+95.849+1831.97+96.4762+1832.72+97.0938C1832.84+97.2016+1832.99+97.4352+1833.09+97.5L1833.16+97.4375C1834.44+98.8087+1835.72+99.8244+1836.19+99.2812C1836.19+99.2735+1836.15+99.2578+1836.16+99.25C1837.49+99.857+1838.54+100.174+1839.41+100.281C1857.95+114.246+1883.32+101.518+1872.03+70.5312C1860.49+38.8548+1834.38+40.9018+1833.56+1.03125L1832.94+0.78125ZM3148.34+10.0312C3147.8+9.94628+3147.42+10.0529+3147.31+10.4062C3147.31+10.4163+3147.35+10.4276+3147.34+10.4375C3146.1+10.4818+3145.14+10.643+3144.41+10.9375C3125.42+6.52385+3108.57+29.6347+3126.56+52.9062C3144.96+76.6959+3165.48+63.0261+3177.56+99.1562L3178.16+99.0938C3178.66+92.6956+3177.47+86.1707+3175.16+80.4375C3176.42+82.6541+3177.97+84.5649+3179.22+86.9375C3174.5+77.9839+3177.01+56.8419+3176.28+45.2812C3175.96+40.1461+3174.53+35.6016+3172.5+31.5625C3170.47+27.5236+3167.85+23.97+3165.03+20.8438C3162.18+17.6876+3156.91+13.4311+3157.25+13.75C3158.03+14.4779+3153.8+11.8171+3154.62+12.4375C3154.81+12.579+3152.73+11.1549+3153.59+12.2188C3153.94+12.6469+3153.44+12.2858+3152.91+11.9375C3152.87+11.89+3152.79+11.8577+3152.75+11.8125C3152.83+11.8092+3152.85+11.7365+3152.97+11.7812C3153.06+11.8137+3152.71+11.7707+3152.69+11.7812C3152.25+11.3153+3151.53+11.0705+3150.75+10.8438C3150.62+10.7986+3150.41+10.6374+3150.31+10.625L3150.31+10.7188C3149.6+10.3818+3148.88+10.1162+3148.34+10.0312ZM2715.41+10.7188C2712.77+16.4082+2711.86+23.0908+2712.41+29.625C2711.81+26.9075+2710.82+24.3249+2710.28+21.4688C2712.3+32.2466+2702.67+50.624+2699.62+61.75C2698.27+66.6921+2698.29+71.6281+2699.09+76.4375C2699.9+81.2468+2701.53+85.9394+2703.47+90.3125C2705.43+94.7272+2709.56+101.411+2709.31+100.938C2708.74+99.8576+2712.32+104.537+2711.66+103.531C2711.5+103.302+2713.18+105.688+2712.62+104.25C2712.4+103.671+2712.86+104.272+2713.31+104.875C2713.33+104.938+2713.38+105+2713.41+105.062C2713.32+105.024+2713.27+105.104+2713.16+105C2713.07+104.924+2713.41+105.125+2713.44+105.125C2713.75+105.786+2714.47+106.414+2715.22+107.031C2715.34+107.139+2715.46+107.373+2715.56+107.438L2715.62+107.375C2716.91+108.746+2718.19+109.762+2718.66+109.219C2718.66+109.211+2718.65+109.195+2718.66+109.188C2719.99+109.795+2721.01+110.112+2721.88+110.219C2740.42+124.183+2765.82+111.455+2754.53+80.4688C2742.99+48.7923+2716.85+50.8393+2716.03+10.9688L2715.41+10.7188ZM2454.16+18.2812L2453.75+18.625C2454.25+24.8146+2456+30.3124+2458.44+34.5312C2457.23+33.0768+2455.85+32.0117+2454.62+30.4062C2459.23+36.4651+2460.29+57.3481+2462.38+67.75C2463.3+72.3706+2464.93+75.9057+2466.94+78.6875C2468.94+81.4691+2471.33+83.5107+2473.78+85.0625C2476.26+86.6292+2480.6+88.0709+2480.31+87.9375C2479.66+87.6332+2483.08+88.0865+2482.41+87.9062C2482.25+87.8652+2483.92+88.1682+2483.16+87.5938C2482.85+87.3626+2483.25+87.465+2483.69+87.5312C2483.72+87.5582+2483.78+87.5399+2483.81+87.5625C2483.76+87.6037+2483.75+87.7026+2483.66+87.7188C2483.59+87.7305+2483.86+87.6126+2483.88+87.5938C2484.25+87.816+2484.81+87.665+2485.41+87.5C2485.5+87.4811+2485.64+87.5689+2485.72+87.5312L2485.72+87.4062C2486.84+87.3446+2487.84+87.0438+2487.91+86.2812C2487.91+86.2705+2487.91+86.2606+2487.91+86.25C2488.8+85.6096+2489.45+85.0318+2489.94+84.4062C2504.2+79.3964+2513.22+49.8118+2497.12+36.8125C2480.67+23.5238+2467.73+46.0771+2454.16+18.2812ZM2538.5+28.7812C2529.43+28.1816+2516.47+45.5653+2518.16+64.0625C2518.1+66.28+2518.59+68.2525+2519.38+70.0312C2519.52+70.5613+2519.52+71.0965+2519.69+71.625L2519.66+70.5938C2520.42+72.1914+2521.32+73.7098+2522.03+75.0625C2522.23+75.4369+2522.41+75.8766+2522.59+76.2812C2525.43+85.3809+2531.99+92.4658+2536.41+96.2812C2551.06+108.949+2577.79+111.443+2592.16+96.3438C2594.92+93.4405+2597.55+90.1281+2600.12+86.625C2600.58+86.165+2601.04+85.7396+2601.44+85.1875C2601.99+84.4158+2602.54+83.2606+2603.09+82.3125C2607.55+75.7277+2611.74+68.4802+2615.72+60.875C2623.65+55.852+2632.64+48.5942+2633.56+40.625C2634.77+30.2129+2627.65+38.2404+2623.88+44.5625C2623.24+45.6208+2622.63+46.7927+2622+47.875C2618.31+50.4468+2614.41+52.2361+2611.12+53.375C2595.93+58.6391+2581.03+59.2771+2566.16+50.5625C2557.01+45.2028+2548.24+29.4252+2538.5+28.7812ZM1480.94+33.7812L1480.53+34.125C1481.03+40.3146+1482.75+45.8436+1485.19+50.0625C1483.98+48.6081+1482.63+47.5117+1481.41+45.9062C1486.01+51.9652+1487.04+72.8793+1489.12+83.2812C1490.05+87.9018+1491.71+91.4369+1493.72+94.2188C1495.72+97.0004+1498.11+99.0108+1500.56+100.562C1503.04+102.129+1507.38+103.571+1507.09+103.438C1506.44+103.133+1509.83+103.587+1509.16+103.406C1509+103.365+1510.7+103.7+1509.94+103.125C1509.63+102.894+1510.04+102.965+1510.47+103.031C1510.5+103.058+1510.56+103.071+1510.59+103.094C1510.6+103.089+1510.62+103.096+1510.62+103.094C1511+103.316+1511.59+103.165+1512.19+103C1512.29+102.981+1512.42+103.069+1512.5+103.031L1512.5+102.938C1513.62+102.876+1514.62+102.544+1514.69+101.781C1515.58+101.141+1516.23+100.532+1516.72+99.9062C1518.7+99.209+1520.55+97.9442+1522.28+96.4062C1524.71+99.5352+1527.26+102.104+1529.34+103.906C1544+116.574+1570.73+119.068+1585.09+103.969C1587.86+101.065+1590.49+97.7531+1593.06+94.25C1593.52+93.79+1593.98+93.3646+1594.38+92.8125C1594.92+92.0408+1595.48+90.8856+1596.03+89.9375C1600.49+83.3527+1604.68+76.1052+1608.66+68.5C1616.59+63.477+1625.58+56.2193+1626.5+48.25C1627.71+37.8379+1620.58+45.8654+1616.81+52.1875C1616.18+53.2458+1615.56+54.4177+1614.94+55.5C1611.25+58.0718+1607.35+59.8611+1604.06+61C1588.87+66.2641+1573.97+66.9021+1559.09+58.1875C1549.94+52.8278+1541.18+37.0502+1531.44+36.4062C1526.55+36.0832+1520.62+41.0858+1516.38+48.5625C1503.37+45.0898+1492.37+57.1929+1480.94+33.7812ZM2918.34+42.1562C2911.41+42.3181+2904.66+44.6432+2899.19+49.6875C2896.38+52.2739+2893.64+55.3144+2890.94+58.5312C2890.48+58.9389+2890.01+59.3039+2889.59+59.8125C2889.01+60.5234+2888.38+61.6114+2887.78+62.5C2883.04+68.5941+2878.46+75.4072+2874.03+82.5938C2866.34+86.6704+2857.44+92.8731+2855.72+100.812C2853.47+111.186+2860.78+103.947+2864.88+98.0312C2865.56+97.0411+2866.25+95.9526+2866.94+94.9375C2870.54+92.8032+2874.23+91.4867+2877.31+90.75C2891.55+87.3449+2905.02+88.5642+2917.41+99.25C2925.03+105.822+2931.13+122.901+2939.81+124.781C2947.9+126.532+2961.5+110.567+2962.06+91.6562C2962.36+89.4216+2962.13+87.3662+2961.62+85.4688C2961.55+84.9147+2961.63+84.3997+2961.53+83.8438L2961.44+84.875C2960.93+83.1636+2960.3+81.52+2959.81+80.0625C2959.68+79.6591+2959.56+79.1827+2959.44+78.75C2957.91+69.1941+2952.82+61.195+2949.28+56.7812C2941.94+47.6225+2929.9+41.8865+2918.34+42.1562ZM1687.16+75.9062L1686.62+76.1875C1688.01+81.5641+1691.05+86.3334+1694.94+89.9375C1693.08+88.7056+1691.05+87.8007+1689.16+86.4375C1696.29+91.5819+1700.06+109.75+1704.12+118.75C1705.93+122.748+1708.63+125.76+1711.75+128.125C1714.87+130.49+1718.45+132.219+1722.06+133.5C1725.71+134.793+1731.98+135.92+1731.56+135.812C1730.61+135.566+1735.44+135.856+1734.47+135.719C1734.25+135.688+1736.64+135.916+1735.5+135.438C1735.04+135.245+1735.63+135.299+1736.25+135.344C1736.3+135.366+1736.39+135.356+1736.44+135.375C1736.36+135.413+1736.35+135.483+1736.22+135.5C1736.13+135.512+1736.49+135.423+1736.5+135.406C1737.06+135.589+1737.81+135.442+1738.62+135.281C1738.76+135.262+1739.02+135.316+1739.12+135.281L1739.09+135.188C1740.66+135.101+1742.03+134.822+1742.03+134.156C1742.03+134.147+1742.03+134.134+1742.03+134.125C1743.21+133.541+1744.04+132.996+1744.66+132.438C1764.12+127.663+1773.52+101.639+1749.5+90.7812C1724.94+79.6815+1709.27+99.7246+1687.16+75.9062ZM2416.25+118.125L2415.72+118.406C2417.11+123.783+2420.14+128.552+2424.03+132.156C2422.17+130.924+2420.14+130.019+2418.25+128.656C2425.38+133.801+2429.15+151.969+2433.22+160.969C2435.03+164.967+2437.72+168.01+2440.84+170.375C2443.97+172.74+2447.51+174.438+2451.12+175.719C2454.77+177.012+2461.07+178.139+2460.66+178.031C2459.7+177.785+2464.53+178.075+2463.56+177.938C2463.34+177.906+2465.73+178.135+2464.59+177.656C2464.14+177.464+2464.73+177.517+2465.34+177.562C2465.39+177.585+2465.48+177.575+2465.53+177.594C2465.46+177.631+2465.44+177.702+2465.31+177.719C2465.22+177.731+2465.58+177.642+2465.59+177.625C2466.15+177.808+2466.9+177.661+2467.72+177.5C2467.85+177.481+2468.09+177.535+2468.19+177.5L2468.19+177.406C2469.76+177.32+2471.12+177.041+2471.12+176.375C2471.12+176.366+2471.13+176.353+2471.12+176.344C2472.31+175.76+2473.13+175.215+2473.75+174.656C2493.21+169.881+2502.62+143.858+2478.59+133C2454.03+121.9+2438.37+141.943+2416.25+118.125ZM2225.78+118.875C2224.61+125.28+2224.94+132.037+2226.38+138.125C2225.49+135.725+2224.33+133.556+2223.47+131C2226.71+140.647+2222.05+161.722+2221.41+173.5C2221.12+178.732+2221.91+183.505+2223.28+187.844C2224.65+192.182+2226.63+196.109+2228.81+199.625C2231.02+203.175+2235.27+208.146+2235+207.781C2234.38+206.948+2237.89+210.169+2237.22+209.438C2237.06+209.271+2238.75+210.966+2238.09+209.781C2237.83+209.305+2238.28+209.705+2238.72+210.125C2238.75+210.178+2238.78+210.23+2238.81+210.281C2238.74+210.275+2238.73+210.342+2238.62+210.281C2238.55+210.237+2238.86+210.352+2238.88+210.344C2239.22+210.87+2239.85+211.203+2240.53+211.531C2240.64+211.593+2240.78+211.787+2240.88+211.812L2240.91+211.719C2242.12+212.581+2243.26+213.093+2243.53+212.406C2243.54+212.396+2243.53+212.385+2243.53+212.375C2244.66+212.488+2245.53+212.455+2246.22+212.25C2262.78+219.106+2280.53+197.857+2266.97+172.062C2253.1+145.694+2233.12+156.922+2226.31+118.875L2225.78+118.875ZM2529.78+123C2530.34+123.117+2527.56+123.214+2528.12+123.25C2528.25+123.258+2526.86+123.258+2527.53+123.531C2527.8+123.641+2527.45+123.649+2527.09+123.656C2527.07+123.643+2527.03+123.635+2527+123.625C2526.99+123.631+2526.97+123.623+2526.97+123.625C2526.64+123.529+2526.18+123.674+2525.72+123.844C2525.64+123.867+2525.53+123.843+2525.47+123.875L2525.47+123.938C2524.57+124.102+2523.79+124.391+2523.81+124.875C2523.81+124.882+2523.84+124.9+2523.84+124.906C2523.19+125.407+2522.71+125.866+2522.38+126.312C2511.39+131.052+2507.07+150.553+2521.31+156.875C2535.87+163.338+2544.05+147.762+2557.72+163.625L2558+163.375C2556.98+159.559+2555.07+156.302+2552.69+153.938C2553.8+154.711+2554.98+155.227+2556.12+156.094C2551.82+152.821+2548.92+139.868+2546.22+133.594C2545.02+130.807+2543.36+128.796+2541.47+127.281C2539.58+125.767+2537.47+124.757+2535.34+124.062C2533.2+123.361+2529.54+122.949+2529.78+123ZM1938.38+137.406L1938.06+137.594C1938.55+141.579+1939.94+145.122+1941.81+147.812C1940.9+146.889+1939.87+146.239+1938.94+145.219C1942.44+149.07+1943.59+162.505+1945.31+169.188C1946.08+172.156+1947.35+174.418+1948.88+176.188C1950.4+177.957+1952.2+179.248+1954.03+180.219C1955.88+181.199+1959.12+182.082+1958.91+182C1958.42+181.812+1960.94+182.045+1960.44+181.938C1960.32+181.913+1961.57+182.111+1961+181.75C1960.77+181.605+1961.06+181.65+1961.38+181.688C1961.4+181.704+1961.44+181.705+1961.47+181.719C1961.48+181.714+1961.5+181.721+1961.5+181.719C1961.78+181.857+1962.22+181.77+1962.66+181.656C1962.73+181.643+1962.82+181.681+1962.88+181.656L1962.88+181.594C1963.7+181.54+1964.44+181.336+1964.47+180.844C1964.47+180.837+1964.47+180.819+1964.47+180.812C1965.11+180.389+1965.56+180.003+1965.91+179.594C1976.31+176.188+1982.4+156.999+1970.31+148.812C1957.96+140.444+1948.88+155.166+1938.38+137.406ZM3034.41+137.719C3035.16+137.925+3031.36+137.98+3032.12+138.062C3032.3+138.081+3030.44+137.982+3031.34+138.438C3031.71+138.621+3031.23+138.599+3030.75+138.594C3030.71+138.572+3030.67+138.58+3030.62+138.562C3030.68+138.515+3030.68+138.435+3030.78+138.406C3030.85+138.386+3030.57+138.542+3030.56+138.562C3030.12+138.398+3029.54+138.602+3028.91+138.844C3028.8+138.875+3028.61+138.828+3028.53+138.875L3028.53+138.969C3027.31+139.182+3026.26+139.624+3026.28+140.375C3026.28+140.386+3026.31+140.396+3026.31+140.406C3025.41+141.152+3024.77+141.824+3024.31+142.5C3009.3+149.329+3003.01+179.382+3022.22+189.844C3041.86+200.539+3053.28+176.78+3071.53+202L3071.94+201.625C3070.63+195.665+3068.06+190.526+3064.88+186.75C3066.38+188.002+3068+188.853+3069.53+190.25C3063.75+184.978+3060.08+164.785+3056.53+154.938C3054.96+150.563+3052.72+147.342+3050.19+144.906C3047.65+142.471+3044.81+140.801+3041.94+139.625C3039.03+138.438+3034.08+137.628+3034.41+137.719ZM2685.5+144.75C2673.88+144.453+2663.85+156.049+2668.44+178.562C2675.25+212.039+2698.95+213.249+2695.22+253.656L2695.75+254C2698.76+248.581+2700.36+241.925+2700.59+235.25C2700.83+238.073+2701.4+240.826+2701.56+243.781C2700.95+232.631+2711.67+215.269+2715.66+204.406C2717.43+199.581+2717.97+194.588+2717.78+189.625C2717.6+184.662+2716.66+179.728+2715.41+175.062C2714.14+170.352+2711.2+163.084+2711.38+163.594C2711.77+164.758+2709.08+159.555+2709.56+160.656C2709.67+160.908+2708.41+158.288+2708.75+159.812C2708.89+160.426+2708.56+159.76+2708.22+159.094C2708.21+159.027+2708.17+158.942+2708.16+158.875C2708.23+158.924+2708.25+158.881+2708.34+159C2708.41+159.087+2708.15+158.815+2708.12+158.812C2707.92+158.105+2707.35+157.406+2706.75+156.688C2706.66+156.563+2706.55+156.266+2706.47+156.188L2706.41+156.281C2705.4+154.733+2704.35+153.541+2703.88+154.031C2703.87+154.038+2703.88+154.055+2703.88+154.062C2702.75+153.281+2701.86+152.811+2701.09+152.594C2696.38+147.452+2690.78+144.885+2685.5+144.75ZM1769.25+162.812C1757.63+162.516+1747.6+174.111+1752.19+196.625C1759+230.101+1782.7+231.343+1778.97+271.75L1779.5+272.062C1782.51+266.644+1784.11+260.019+1784.34+253.344C1784.58+256.167+1785.15+258.92+1785.31+261.875C1784.7+250.725+1795.42+233.363+1799.41+222.5C1801.18+217.675+1801.72+212.651+1801.53+207.688C1801.35+202.724+1800.41+197.791+1799.16+193.125C1797.89+188.415+1794.95+181.146+1795.12+181.656C1795.52+182.821+1792.83+177.618+1793.31+178.719C1793.42+178.97+1792.16+176.351+1792.5+177.875C1792.64+178.488+1792.31+177.822+1791.97+177.156C1791.96+177.09+1791.92+177.005+1791.91+176.938C1791.98+176.987+1792.01+176.943+1792.09+177.062C1792.16+177.149+1791.9+176.878+1791.88+176.875C1791.67+176.167+1791.1+175.469+1790.5+174.75C1790.41+174.626+1790.3+174.36+1790.22+174.281L1790.16+174.344C1789.15+172.795+1788.1+171.603+1787.62+172.094C1787.62+172.101+1787.63+172.118+1787.62+172.125C1786.5+171.344+1785.61+170.905+1784.84+170.688C1780.13+165.545+1774.53+162.947+1769.25+162.812ZM1577.59+177.75C1576.82+177.78+1576.09+177.921+1575.44+178.219C1573.94+178.322+1572.41+178.572+1571.06+179.062C1562.26+182.274+1560.78+186.49+1562.53+189.844C1562.06+190.753+1561.77+191.75+1561.62+192.844C1560.44+192.506+1560.24+192.386+1558.84+192.031C1551.46+174.577+1518.38+192.297+1524.25+215.562C1525.34+219.901+1529.47+223.883+1532.41+226.406C1546.14+238.198+1571.74+235.605+1590.19+234.344C1590.48+234.324+1590.77+234.38+1591.06+234.375C1570.25+233.057+1542.92+229.674+1535.06+222.75C1530.42+218.665+1525.19+212.946+1526.12+204.281C1527.85+188.301+1548.61+184.18+1556.06+191.375C1555.63+191.272+1554.98+191.114+1554.75+191.062C1554.59+190.659+1554.42+190.312+1554.16+190.25C1551.24+189.556+1543.93+187.246+1540.59+190.844C1540.45+190.996+1540.45+191.104+1540.34+191.25C1538.51+192.158+1536.83+193.267+1535.5+194.469C1534.54+194.557+1533.62+194.878+1532.69+195.375C1530.96+195.806+1529.53+196.657+1529.03+198.156C1528.79+198.886+1528.76+199.574+1528.81+200.188C1528.75+200.387+1528.61+200.509+1528.56+200.719C1528.21+202.183+1528.24+203.459+1528.44+204.594C1527.34+206+1526.68+207.621+1526.97+209.375C1527.19+210.735+1528.5+211.777+1530.12+212.562C1529.9+214.343+1530.7+215.763+1532.16+216.812C1532.08+217.522+1531.95+218.223+1532.19+219.031C1532.71+220.785+1536.83+222.335+1541.41+223.438C1543.83+228.602+1553.59+228.223+1559.72+228.188C1565.68+231.4+1579.77+231.785+1583.16+232.125C1583.75+232.185+1589+233.276+1591.25+231.938C1591.81+231.908+1592.33+231.834+1592.84+231.75C1593.13+231.895+1593.5+231.948+1593.75+232.125C1594.04+232.329+1594.24+232.137+1594.34+231.75C1595.49+232.258+1596.52+232.548+1597.5+232.656C1597.63+232.726+1597.71+232.739+1597.84+232.812C1597.98+232.887+1598+232.702+1598.06+232.625C1599.01+232.63+1599.93+232.499+1600.56+231.875C1602.09+232.928+1603.67+233.984+1605.34+234.938C1602.21+234.889+1599.08+234.837+1595+234.625C1599.24+235.258+1603.42+236.608+1607.59+236.062C1607.6+236.062+1607.62+236.032+1607.62+236.031C1612.02+238.221+1616.81+239.777+1621.97+239.375C1629.7+238.773+1634.53+230.038+1629.44+224.625L1628.94+225.188C1628.59+224.209+1627.68+223.191+1625.88+222.156C1632.36+225.834+1624.37+230.462+1617.53+233.062C1610.94+231.19+1604.13+228.209+1599.81+223.062C1590.6+212.087+1598.59+190.521+1587.12+181.094C1586.61+180.672+1585.73+180.126+1584.66+179.594C1582.64+178.595+1579.92+177.659+1577.59+177.75ZM2787.72+178.844C2780.7+178.477+2775.37+186.698+2779.34+192.812L2779.88+192.344C2780.08+193.377+2780.8+194.507+2782.31+195.781C2776.9+191.246+2784.56+187.548+2791+185.781C2796.71+188.505+2802.51+192.408+2805.81+198.156C2812.86+210.413+2803.25+231.18+2812.5+242.156C2812.91+242.647+2813.66+243.295+2814.56+243.969C2816.82+245.653+2820.21+247.407+2822.69+246.531C2824.05+246.616+2825.46+246.545+2826.72+246.219C2830.22+245.314+2832.37+244.039+2833.81+242.625C2836.65+246.52+2841.47+249.799+2848.75+251.719C2877.01+259.173+2891.75+237.51+2918.88+257.688L2919.44+257.344C2917.26+252.296+2913.36+248.072+2908.66+245.094C2910.84+246.04+2913.17+246.618+2915.41+247.688C2906.96+243.652+2900.65+226.46+2895.09+218.25C2892.63+214.603+2889.3+212.033+2885.59+210.156C2881.89+208.279+2877.77+207.097+2873.66+206.344C2872.16+206.069+2870.29+205.932+2868.53+205.781C2867.93+204.942+2867.33+203.933+2866.78+203.25C2855.77+189.599+2832.43+188.988+2815.72+187.938C2815.46+187.921+2815.2+187.844+2814.94+187.812C2832.58+191.576+2855.13+197.949+2862.72+205.438C2862.86+205.574+2858.78+205.874+2859.78+205.875C2859.26+205.632+2858.89+205.355+2858.34+205.125C2856.74+199.599+2847.92+198.737+2842.41+198C2837.41+194+2824.79+191.865+2821.78+191.094C2821.25+190.958+2816.67+189.18+2814.5+190.25C2814+190.209+2813.5+190.23+2813.03+190.25C2812.79+190.068+2812.49+189.961+2812.28+189.75C2812.04+189.507+2811.86+189.685+2811.72+190.062C2810.75+189.404+2809.83+188.951+2808.97+188.719C2808.86+188.632+2808.77+188.623+2808.66+188.531C2808.54+188.438+2808.53+188.618+2808.47+188.688C2807.62+188.563+2806.77+188.574+2806.12+189.125C2804.87+187.868+2803.56+186.613+2802.16+185.438C2804.97+185.882+2807.79+186.333+2811.44+187.062C2807.7+185.887+2804.1+183.976+2800.28+184C2800.28+184+2800.25+184.031+2800.25+184.031C2796.54+181.262+2792.4+179.089+2787.72+178.844ZM3284.5+182.438C3285.06+182.554+3282.28+182.651+3282.84+182.688C3282.97+182.696+3281.58+182.695+3282.25+182.969C3282.52+183.079+3282.17+183.086+3281.81+183.094C3281.78+183.081+3281.75+183.073+3281.72+183.062C3281.71+183.068+3281.69+183.06+3281.69+183.062C3281.36+182.966+3280.9+183.111+3280.44+183.281C3280.36+183.304+3280.24+183.28+3280.19+183.312L3280.19+183.375C3279.29+183.54+3278.51+183.86+3278.53+184.344C3277.89+184.838+3277.42+185.309+3277.09+185.75C3266.11+190.489+3261.79+209.991+3276.03+216.312C3290.59+222.775+3298.77+207.199+3312.44+223.062L3312.72+222.812C3311.7+218.997+3309.79+215.74+3307.41+213.375C3308.52+214.149+3309.7+214.664+3310.84+215.531C3306.54+212.259+3303.64+199.305+3300.94+193.031C3299.74+190.244+3298.08+188.233+3296.19+186.719C3294.3+185.204+3292.19+184.195+3290.06+183.5C3287.91+182.799+3284.26+182.386+3284.5+182.438ZM1919.03+193.531C1912.1+193.693+1905.35+196.018+1899.88+201.062C1897.07+203.649+1894.33+206.658+1891.62+209.875C1891.17+210.283+1890.7+210.679+1890.28+211.188C1889.7+211.898+1889.07+212.986+1888.47+213.875C1883.72+219.969+1879.14+226.751+1874.72+233.938C1867.02+238.014+1858.13+244.217+1856.41+252.156C1854.15+262.529+1861.46+255.322+1865.56+249.406C1866.25+248.416+1866.94+247.296+1867.62+246.281C1871.23+244.147+1874.92+242.83+1878+242.094C1892.24+238.689+1905.7+239.939+1918.09+250.625C1925.71+257.197+1931.82+274.245+1940.5+276.125C1948.58+277.875+1962.19+261.942+1962.75+243.031C1963.05+240.797+1962.82+238.741+1962.31+236.844C1962.24+236.29+1962.31+235.743+1962.22+235.188L1962.12+236.25C1961.62+234.539+1960.99+232.895+1960.5+231.438C1960.36+231.034+1960.25+230.558+1960.12+230.125C1958.6+220.569+1953.51+212.57+1949.97+208.156C1942.63+198.997+1930.58+193.261+1919.03+193.531ZM3156.06+208.188C3155.63+208.141+3155.31+208.18+3155.22+208.375C3155.22+208.381+3155.25+208.401+3155.25+208.406C3154.24+208.431+3153.47+208.525+3152.88+208.688C3137.48+206.256+3123.78+218.994+3138.38+231.812C3153.3+244.917+3169.98+237.379+3179.78+257.281L3180.25+257.25C3180.66+253.726+3179.69+250.127+3177.81+246.969C3178.84+248.19+3180.08+249.256+3181.09+250.562C3177.26+245.631+3179.31+233.962+3178.72+227.594C3178.46+224.765+3177.3+222.287+3175.66+220.062C3174.01+217.838+3171.88+215.878+3169.59+214.156C3167.28+212.418+3163.01+210.074+3163.28+210.25C3163.91+210.651+3160.49+209.158+3161.16+209.5C3161.31+209.578+3159.61+208.82+3160.31+209.406C3160.59+209.642+3160.19+209.442+3159.75+209.25C3159.72+209.224+3159.66+209.181+3159.62+209.156C3159.61+209.156+3159.6+209.155+3159.59+209.156C3159.24+208.9+3158.63+208.75+3158+208.625C3157.9+208.6+3157.74+208.507+3157.66+208.5L3157.66+208.562C3157.07+208.377+3156.5+208.234+3156.06+208.188ZM2546.31+211.656C2545.54+211.687+2544.81+211.827+2544.16+212.125C2542.66+212.228+2541.12+212.479+2539.78+212.969C2530.98+216.18+2529.5+220.365+2531.25+223.719C2530.78+224.628+2530.49+225.657+2530.34+226.75C2529.16+226.412+2528.96+226.261+2527.56+225.906C2520.18+208.452+2487.1+226.203+2492.97+249.469C2494.06+253.807+2498.19+257.79+2501.12+260.312C2514.85+272.104+2540.46+269.512+2558.91+268.25C2559.2+268.23+2559.49+268.255+2559.78+268.25C2538.97+266.932+2511.64+263.58+2503.78+256.656C2499.14+252.571+2493.91+246.852+2494.84+238.188C2496.57+222.207+2517.33+218.055+2524.78+225.25C2524.35+225.147+2523.7+224.989+2523.47+224.938C2523.31+224.534+2523.14+224.187+2522.88+224.125C2519.96+223.431+2512.65+221.121+2509.31+224.719C2509.17+224.871+2509.17+225.01+2509.06+225.156C2507.23+226.064+2505.55+227.173+2504.22+228.375C2503.26+228.464+2502.34+228.753+2501.41+229.25C2499.68+229.681+2498.25+230.563+2497.75+232.062C2497.51+232.792+2497.48+233.449+2497.53+234.062C2497.47+234.262+2497.33+234.384+2497.28+234.594C2496.93+236.058+2496.96+237.334+2497.16+238.469C2496.06+239.875+2495.4+241.527+2495.69+243.281C2495.91+244.641+2497.22+245.652+2498.84+246.438C2498.62+248.218+2499.42+249.638+2500.88+250.688C2500.79+251.397+2500.67+252.13+2500.91+252.938C2501.43+254.692+2505.55+256.241+2510.12+257.344C2512.55+262.508+2522.31+262.129+2528.44+262.094C2534.4+265.307+2548.49+265.66+2551.88+266C2552.47+266.06+2557.72+267.182+2559.97+265.844C2560.53+265.814+2561.05+265.709+2561.56+265.625C2561.85+265.77+2562.22+265.854+2562.47+266.031C2562.76+266.236+2562.95+266.012+2563.06+265.625C2564.21+266.133+2565.24+266.455+2566.22+266.562C2566.35+266.632+2566.42+266.614+2566.56+266.688C2566.7+266.762+2566.72+266.608+2566.78+266.531C2567.73+266.536+2568.65+266.406+2569.28+265.781C2570.81+266.834+2572.38+267.859+2574.06+268.812C2570.93+268.764+2567.8+268.712+2563.72+268.5C2567.96+269.133+2572.14+270.514+2576.31+269.969C2576.32+269.968+2576.34+269.938+2576.34+269.938C2580.74+272.128+2585.53+273.683+2590.69+273.281C2598.42+272.679+2603.29+263.944+2598.19+258.531L2597.66+259.062C2597.31+258.084+2596.4+257.097+2594.59+256.062C2601.08+259.74+2593.09+264.368+2586.25+266.969C2579.66+265.097+2572.85+262.084+2568.53+256.938C2559.32+245.962+2567.31+224.428+2555.84+215C2555.33+214.578+2554.45+214.033+2553.38+213.5C2551.36+212.501+2548.64+211.565+2546.31+211.656ZM2054.59+226.875C2055.67+226.984+2050.32+227.343+2051.41+227.344C2051.65+227.344+2049.01+227.471+2050.31+227.781C2050.84+227.906+2050.18+227.929+2049.5+227.969C2049.44+227.953+2049.34+227.949+2049.28+227.938C2049.36+227.891+2049.36+227.815+2049.5+227.781C2049.6+227.757+2049.23+227.919+2049.22+227.938C2048.59+227.836+2047.75+228.076+2046.88+228.344C2046.73+228.381+2046.48+228.358+2046.38+228.406L2046.41+228.5C2044.7+228.798+2043.2+229.257+2043.28+229.906C2043.28+229.915+2043.31+229.928+2043.31+229.938C2042.09+230.667+2041.23+231.309+2040.62+231.938C2019.88+239.25+2012.73+265.896+2040.38+273.188C2068.64+280.642+2083.37+258.979+2110.5+279.156L2111.06+278.781C2108.89+273.734+2104.98+269.541+2100.28+266.562C2102.47+267.509+2104.79+268.087+2107.03+269.156C2098.59+265.121+2092.27+247.929+2086.72+239.719C2084.25+236.072+2080.93+233.502+2077.22+231.625C2073.51+229.748+2069.4+228.566+2065.28+227.812C2061.12+227.052+2054.12+226.827+2054.59+226.875ZM2251.72+279.094C2250.96+282.605+2251.38+286.352+2252.72+289.781C2251.93+288.418+2250.95+287.199+2250.19+285.75C2253.08+291.219+2249.94+302.739+2249.75+309.25C2249.67+312.142+2250.43+314.825+2251.66+317.281C2252.89+319.738+2254.57+321.97+2256.44+324C2258.32+326.049+2261.88+328.962+2261.66+328.75C2261.14+328.265+2264.06+330.18+2263.5+329.75C2263.37+329.652+2264.78+330.65+2264.22+329.969C2263.99+329.695+2264.35+329.939+2264.72+330.188C2264.74+330.218+2264.79+330.252+2264.81+330.281C2264.75+330.275+2264.74+330.318+2264.66+330.281C2264.59+330.254+2264.86+330.316+2264.88+330.312C2265.17+330.617+2265.69+330.825+2266.25+331.031C2266.34+331.069+2266.46+331.201+2266.53+331.219L2266.53+331.156C2267.53+331.678+2268.48+331.996+2268.69+331.625C2269.6+331.728+2270.29+331.714+2270.84+331.625C2284.41+336.025+2298.15+324.893+2286.47+310.094C2274.53+294.965+2258.7+300.479+2252.12+279.125L2251.72+279.094ZM1969.88+285.906C1970.63+286.113+1966.83+286.136+1967.59+286.219C1967.77+286.238+1965.9+286.17+1966.81+286.625C1967.18+286.808+1966.7+286.786+1966.22+286.781C1966.18+286.759+1966.1+286.736+1966.06+286.719C1966.06+286.724+1966.03+286.716+1966.03+286.719C1965.59+286.554+1964.97+286.789+1964.34+287.031C1964.24+287.063+1964.05+287.015+1963.97+287.062L1964+287.156C1962.78+287.37+1961.73+287.811+1961.75+288.562C1960.85+289.308+1960.21+289.98+1959.75+290.656C1944.74+297.486+1938.44+327.538+1957.66+338C1977.3+348.695+1988.75+324.936+2007+350.156L2007.41+349.812C2006.1+343.852+2003.53+338.682+2000.34+334.906C2001.84+336.158+2003.47+337.041+2005+338.438C1999.22+333.165+1995.55+312.941+1992+303.094C1990.43+298.719+1988.19+295.498+1985.66+293.062C1983.12+290.627+1980.25+288.989+1977.38+287.812C1974.47+286.625+1969.54+285.816+1969.88+285.906Z" stroke="#3c9923" stroke-width="4.18" fill="#3c9923" opacity="1" stroke-linejoin="round"/>
</g>
<g id="Roots0" vectornator:layerName="Roots0">
<path d="M1889.85+874.575C1892.52+878.142+1896.2+877.351+1896.2+877.351C1896.2+877.351+1892.47+872.123+1893.6+874.415C1894.72+876.707+1912.31+888.741+1924.44+884.936C1927.09+884.103+1932.82+881.436+1936.96+876.726C1944.05+868.658+1949.47+857.081+1949.47+857.081C1949.47+857.081+1948.2+860.898+1946.4+865.001C1944.8+868.663+1942.63+872.666+1942.79+872.569C1955.4+865.165+1956.54+851.128+1956.54+851.128C1956.54+851.128+1955.94+857.971+1950.1+871.071C1947.69+876.488+1945.97+878.792+1945.11+879.695C1939.06+886.054+1932.17+892.155+1921.73+894.079C1908.57+896.506+1893.2+879.985+1889.89+874.753" fill-opacity="0.4375" fill="#606060" opacity="1"/>
</g>
<g id="Water" vectornator:layerName="Water">
<path d="M4546.87+920.211C4546.87+920.211+4789.08+1424.16+4836.62+1442.83C4840.9+1444.51+5078+4394.92+5073.15+4399.89C4962.27+4513.46+2621.1+4924.43+2292.21+4912.51C1903.2+4898.41-1866.18+4320.01-1865.73+4319.92C-1823.42+4311.64-748.051+1309.29-694.537+875.177C-681.886+772.547-601.847+693.246+97.7755+674.5C797.398+655.753+848.194+664.656+1382.23+709.113C1506.16+719.429+1651.33+726.626+1806.9+730.878C2243.33+742.806+2761.5+731.56+3121.64+701.025C3849.57+639.307+4058.97+866.115+4538.49+908.271" fill-opacity="0.19848" fill="#06ecd5" opacity="1"/>
</g>
</svg>
