<?xml version="1.0" encoding="UTF-8" standalone="no"?> <!-- Created with Vectornator Pro for iOS (http://vectornator.io/) --><!DOCTYPE svg PUBLIC "-//W3C//DTD SVG 1.1//EN" "http://www.w3.org/Graphics/SVG/1.1/DTD/svg11.dtd">
<svg height="100%" style="fill-rule:evenodd;clip-rule:evenodd;stroke-linecap:round;stroke-linejoin:round;" xmlns:xlink="http://www.w3.org/1999/xlink" xmlns="http://www.w3.org/2000/svg" xml:space="preserve" width="100%" xmlns:vectornator="http://vectornator.io" version="1.1" viewBox="0 0 3840 2160">
<metadata>
<vectornator:setting key="RulersVisible" value="1"/>
<vectornator:setting key="GridSpacing" value="36"/>
<vectornator:setting key="Units" value="Pixels"/>
<vectornator:setting key="DynamicGuides" value="0"/>
<vectornator:setting key="SnapToPoints" value="0"/>
<vectornator:setting key="CMYKEnabledKey" value="0"/>
<vectornator:setting key="SnapToGrid" value="0"/>
<vectornator:setting key="ShowGrid" value="1"/>
<vectornator:setting key="SnapToEdges" value="0"/>
</metadata>
<defs/>
<g id="Layer 1" vectornator:layerName="Layer 1">
<path d="M-39.3756-101.766L3957.6-101.766C3980.97-101.766+3999.91-82.8239+3999.91-59.4582L3999.91+2225.02C3999.91+2248.39+3980.97+2267.33+3957.6+2267.33L2234.83+2276.11L2050.79+2246L1744.62+2267.33L-39.3756+2267.33C-62.7413+2267.33-81.683+2248.39-81.683+2225.02L-81.683-59.4582C-81.683-82.8239-62.7413-101.766-39.3756-101.766Z" stroke="#000000" stroke-width="1" fill="#dc98e2" opacity="1" stroke-linejoin="round"/>
</g>
<g id="Layer 4" vectornator:layerName="Layer 4">
<path d="M1923.14+1137.83C1922.8+1138.02+1909.65+1156.6+1901.09+1180.1C1892.53+1203.61+1890.17+1221.29+1890.17+1221.29C1890.17+1221.29+1855.07+1198.15+1855.03+1199.57C1855.01+1200.7+1831.61+1183.47+1818.38+1181.67C1799.53+1179.1+1787.5+1192.66+1774.8+1205.33C1756.48+1223.61+1772.81+1280.85+1789.43+1298.6C1803.23+1313.34+1821.47+1347.41+1874.89+1354.86C1903.11+1358.79+1978.96+1337.27+1986.61+1340.89C2005.78+1349.96+2033.43+1343.14+2033.59+1347.25C2035.22+1390.7+2096.09+1391.19+2096.09+1391.19L2150.36+1369.49L2182.07+1308.18L2208.8+1207.83L2159.47+1089.11L2122.81+1050.61L2140.45+1029.13L2178.45+1049.48C2178.45+1049.48+2172.68+1033.68+2175.23+1014.88C2177.79+996.082+2188.68+974.279+2188.68+974.279C2188.68+974.279+2175.58+971.683+2168.05+954.983C2160.52+938.282+2158.57+907.477+2158.57+907.477C2158.57+907.477+2107.22+953.37+2112.14+940.099C2119.47+920.305+2112.78+903.165+2109.04+895.527C2098.78+874.545+2111.14+833.156+2111.14+833.156C2111.14+833.156+2093.96+842.048+2083.89+852.092C2073.82+862.136+2070.86+873.332+2070.86+873.332C2070.86+873.332+2061.69+877.711+2049.84+882.453C2037.99+887.195+2042.45+904.232+2028.69+899.366C2014.93+894.5+2002.67+882.502+1994.81+862.99C1986.94+843.477+1991.99+814.252+1991.99+814.252C1991.99+814.252+1965.25+839.948+1963.62+871.908C1963.15+881.195+1974.19+891.923+1974.19+891.923L1951.62+906.613L1930.92+944.004L1905.88+942.072L1923.66+969.413L1916.83+1012.88L1934.44+1017.59C1934.44+1017.59+1896.43+1046.25+1896.19+1049.76C1894.84+1069.79+1904.96+1103.26+1905.8+1104.91" fill-opacity="0.78865" fill="#82008c" opacity="1"/>
</g>
<g id="Layer 5" vectornator:layerName="Layer 5">
<path d="M1959.08+1152.92C1958.01+1167+1947.67+1180.24+1941.47+1192.71C1934.69+1206.32+1932.24+1220.39+1930.28+1235.18C1928.27+1250.36+1923.26+1263.93+1928.82+1279.02C1931.27+1285.69+1938.4+1289.2+1942.81+1294.3C1951.37+1304.16+1959.76+1313.61+1968.51+1323.15C1972.23+1327.21+1974.33+1331.78+1979.38+1334.46C1987.45+1338.75+1995.84+1337.31+2004.33+1338.51C2011.77+1339.57+2021.83+1345.14+2028.62+1338.5C2037+1330.31+2038.25+1319.15+2041.05+1308.52C2044.09+1296.97+2050.46+1283.97+2055.75+1273.33C2058.38+1268.05+2062.56+1264.63+2065.87+1259.84C2071.08+1252.29+2076.42+1244.6+2081.81+1237.14C2088.02+1228.55+2096.78+1221.97+2103.44+1213.94C2113.68+1201.6+2114.51+1183.47+2115.99+1168.35C2117.39+1153.98+2112.69+1137.89+2106.82+1125.21C2104.2+1119.55+2101.62+1112.46+2096.48+1108.5C2090.94+1104.24+2083.29+1103.86+2076.93+1103.2C2070.87+1102.56+2068.18+1101.71+2062.36+1104.59C2055.64+1107.91+2056.5+1116.45+2052.17+1122.43C2045.96+1131.04+2033.16+1136.89+2023.37+1139.79C2009.45+1143.93+1993.87+1141.84+1979.94+1144.73C1975.3+1145.69+1964.16+1142.75+1960.7+1147.08C1959.46+1148.65+1959.23+1150.9+1959.08+1152.92Z" stroke="#000000" stroke-width="1" fill="#ffd2b5" opacity="1" stroke-linejoin="round"/>
</g>
<g id="Layer 6" vectornator:layerName="Layer 6">
<path d="M2164.11+1103.63C2156.18+1078.87+2124.34+1053.5+2124.34+1053.5L2140.51+1029.86L2180.05+1049.91C2180.05+1049.91+2173.63+1043.86+2173.77+1029.87C2173.91+1015.89+2177.59+998.409+2177.59+998.409L2199.08+971.468L2229.23+964.436L2277.94+1002.64L2374.14+1081.78C2374.14+1081.78+2337.68+1084.21+2321.38+1105.18C2305.09+1126.15+2308.96+1165.66+2308.96+1165.66C2308.96+1165.66+2289.65+1149.93+2268.6+1143.8C2247.56+1137.67+2231.28+1140.87+2231.28+1140.87L2186.77+1149.32" stroke="#000000" stroke-width="1" fill="#874150" opacity="1" stroke-linejoin="round"/>
</g>
<g id="Layer 13" vectornator:layerName="Layer 13">
<path d="M2175.81+1021.63C2186.78+1006.17+2219.79+994.324+2245.31+1014.42C2270.83+1034.51+2297.85+1088.61+2297.85+1088.61L2315.14+1107.5L2332.01+1088.45L2371.68+1076.93L2341.28+1063.56L2281.89+1009.61C2281.89+1009.61+2247.14+971.741+2223.69+964.27C2200.25+956.8+2188.11+979.727+2188.11+979.727L2182.79+998.618L2175.47+1015.1" stroke="#000000" stroke-width="1" fill="#ff6300" opacity="1" stroke-linejoin="round"/>
</g>
<g id="Layer 11" vectornator:layerName="Layer 11">
<path d="M2136.13+1065.78L2157.4+1038.8L2140.24+1029.16L2124.94+1053.45" stroke="#000000" stroke-width="1" fill="#ff6300" opacity="1" stroke-linejoin="round"/>
</g>
<g id="Layer 2" vectornator:layerName="Layer 2">
<path d="M1989.75+811.344C1978.95+816.089+1939.51+888.671+1972.84+890.094L1972.59+889.375C1967.93+885.653+1965.69+880.405+1964.97+874.75C1971.06+872.479+1977.13+870.209+1983.22+867.938L1983.09+867.5C1977.31+868.892+1971.53+870.295+1965.75+871.688L1964.88+873.594C1964.19+865.858+1966.25+857.531+1969.56+851.344C1972.58+845.707+1978.86+831.71+1979.72+832.531C1981.71+834.423+1984.03+828.762+1985+826.156C1985.16+825.729+1985.51+825.282+1985.72+824.844C1984.78+831.868+1986.66+839.507+1987.72+846.188C1991.31+868.782+2002.53+885.156+2013.75+889.312L2015.16+886.344C2014.63+885.366+2013.8+883.72+2013.59+883.562C2006.97+878.468+2001.13+867.164+2000.59+867.219C1990.07+868.3+1994.12+830.443+1992.81+816.469C1993.08+816.022+1993.33+815.724+1993.56+815.375C1993.29+815.312+1993.07+815.31+1992.75+815.188C1992.5+813.222+1992.09+811.811+1991.47+811.344C1991.03+811.016+1990.47+811.027+1989.75+811.344ZM1993.56+815.375C1994.41+815.569+1995.05+815.542+1994.81+814.812C1994.56+814.047+1994.1+814.572+1993.56+815.375ZM2015.16+886.344C2015.57+887.124+2015.81+887.526+2015.25+886.125L2015.16+886.344ZM2108.5+835.188C2094.45+835.66+2074.63+862.03+2069.03+874.344L2071.97+875.812C2078.52+862.528+2088.94+847.25+2092.81+849.281C2092.9+849.329+2100.91+846.812+2107.41+844.781C2098.67+859.959+2104.78+874.95+2098.75+885.469C2096.92+888.66+2102.21+890.649+2103.69+889.969L2104.06+889.188C2102.94+889.447+2104.1+876.095+2104+871.562C2103.89+866.317+2110.36+851.59+2113.12+843.031C2113.78+842.816+2114.76+842.536+2115.22+842.375C2116.18+842.036+2115.33+840.184+2114.25+838.969C2114.46+837.804+2114.5+836.928+2114.12+836.688C2112.41+835.581+2110.51+835.12+2108.5+835.188ZM1973.59+852.75L1971.75+856.625C1974.83+856.019+1977.92+855.419+1981+854.812L1980.97+853.469C1978.51+853.228+1976.05+852.991+1973.59+852.75ZM2087.72+862.625L2084.06+863.906C2087.74+865.664+2091.42+867.429+2095.09+869.188L2095.69+868.156C2093.02+866.312+2090.38+864.469+2087.72+862.625ZM2082.41+871.719L2078.91+874.469C2082.72+875.285+2086.53+876.09+2090.34+876.906L2090.41+876.719C2087.73+875.046+2085.08+873.391+2082.41+871.719ZM2063.25+876.594C2043+876.723+2012.59+901.229+2021.5+920.062C2026.59+896.071+2069.31+869.458+2073.66+885.688C2075.36+892.06+2099.96+901.724+2102.09+903.031C2103.96+904.175+2108.79+906.551+2106.88+907.594C2106.26+907.926+2111.64+911.832+2109.16+910.812C2107.03+909.939+2109.64+916.845+2111+919.594C2110.62+920.875+2110.38+925.03+2109.72+926.438C2107.13+931.974+2100.04+943.204+2102.84+948.656L2104+948.812C2103.16+942.816+2115.81+926.463+2117.31+918.312C2120.45+901.348+2079.06+881.851+2071.31+878.188C2068.95+877.069+2066.21+876.575+2063.25+876.594ZM2021.5+920.062C2021.46+920.271+2021.35+920.48+2021.31+920.688L2022.06+921.406C2021.81+920.968+2021.71+920.507+2021.5+920.062ZM1973.5+893.625C1971.29+893.839+1969.23+894.299+1967.5+894.938C1952.19+900.574+1945.93+905.652+1941.66+915.438C1939.69+919.941+1931.37+932.986+1932.94+932.562C1933.05+932.532+1931.3+936.883+1931.19+937.75C1931.14+938.133+1931.14+938.466+1931.09+938.844C1927.36+939.444+1922.07+937.46+1918.06+937.469C1916.13+937.473+1914.04+938.541+1912.06+939.281C1910.37+937.402+1908.64+936.652+1907+938.031C1906.05+938.83+1906.42+939.238+1907.28+939.5C1906.99+939.291+1908.8+940.578+1909.44+941.25C1911.15+943.048+1912.77+945.817+1913.88+948.031C1916.9+954.113+1918.98+961.108+1919.62+967.969L1919.5+968.125C1919.55+968.121+1919.6+968.129+1919.66+968.125C1919.71+968.696+1919.81+969.275+1919.84+969.844C1919.98+972.522+1920.25+974.535+1920.5+976.688C1920.38+976.971+1920.34+977.177+1920.53+977.219C1921.06+981.934+1921.45+986.813+1920.03+996.656C1919.93+997.354+1919.69+998.009+1919.53+998.688C1921.92+992.704+1924.52+986.006+1924.84+979.031C1925.03+974.954+1923.87+974.256+1922.69+974.656C1923.12+972.731+1923.01+970.547+1922.88+968.531C1928.19+970.889+1935.59+971.573+1940.41+968.25L1940.34+967.844C1934.48+968.503+1928.71+968.034+1922.88+968.125C1922.82+967.36+1922.8+966.225+1922.75+965.812C1922.46+963.511+1917.73+946.212+1912.5+939.75C1913.9+939.678+1915.74+939.61+1916.06+939.625C1919.4+939.781+1926.08+941.509+1930.91+941.031C1930.44+947.235+1931.54+952.187+1939.84+952.094L1938.72+951.5C1934.38+948.562+1933.45+944.52+1934.16+940.094C1935.92+939.097+1936.9+937.333+1936.19+934.062L1935.94+934.125C1940.22+924.42+1949.79+914.251+1952.41+909.875C1953.56+907.945+1968.9+896.115+1972.06+899.406C1973.55+900.948+1981.05+900.76+1987.25+902.75C1992.73+904.51+1995.58+917.057+2001.94+915.844L2002.03+915.062C2001.72+915.279+2000.49+911.093+1999.66+909.719C1997.43+906.059+1997.13+902.704+1993.47+899.344C1988.16+894.469+1980.12+892.984+1973.5+893.625ZM1919.53+998.688C1918.12+1002.23+1916.84+1005.65+1916.25+1008.12C1917.44+1005.38+1918.68+1002.32+1919.53+998.688ZM1916.25+1008.12C1913.61+1014.21+1912.58+1017.77+1925.47+1015.34L1924.5+1013.22C1916.41+1015.3+1915.12+1012.88+1916.25+1008.12ZM2154.62+906.438C2147.05+922.577+2128.53+930.149+2115.19+941.625L2117.78+945.281C2130.89+933.171+2155.62+924.611+2154.81+906.469L2154.62+906.438ZM2160.66+916.062L2157.34+916.188C2161.29+945.981+2162.06+969.569+2191.84+970.156L2191.88+969.938C2166.38+961.871+2166.24+945.76+2160.66+916.062ZM1907.5+939.531C1908.19+939.707+1908.97+939.835+1910.06+939.844C1909.16+939.993+1908.29+939.954+1907.5+939.531ZM1999.25+942.969C1994.71+947.346+1988.42+965.994+1982.03+974.031C1982.18+971.978+1981.55+970.11+1979.62+968.906C1975.65+966.418+1973.48+965.755+1972.31+966.094C1971.96+964.654+1971.3+964.358+1970.44+965.281C1970.83+965.57+1971.31+965.996+1971.72+966.312C1970.76+967.233+1971.45+969.745+1972.72+972.625C1972.78+970.502+1972.7+968.516+1972.56+967C1974.43+968.467+1976.03+969.566+1978.22+971.5C1980.05+973.124+1979.56+975.403+1978.06+977.594C1977.32+977.936+1976.58+978.394+1975.84+978.844C1974.63+976.693+1973.72+974.907+1972.72+972.625C1972.68+974.118+1972.4+975.615+1972.12+977.094C1972.11+977.081+1972.1+977.075+1972.09+977.062L1970.09+972.219C1970.09+972.334+1970.07+972.446+1970.06+972.562C1970.02+972.247+1969.94+971.976+1969.88+971.688L1969.34+970.438C1969.33+970.391+1969.24+970.412+1969.22+970.375C1969.25+970.25+1969.25+970.114+1969.28+970C1968.99+969.501+1968.6+969.294+1968.16+969.25C1967.96+969.682+1967.76+970.095+1967.56+970.562C1967.39+970.644+1967.25+970.643+1967.06+970.75C1966.82+970.428+1966.66+970.18+1966.44+969.875C1966.26+969.995+1966.09+970.066+1965.91+970.219C1966.04+970.256+1966.17+970.161+1966.31+970.375C1966.64+970.869+1966.43+970.63+1966.69+971.031C1966.67+971.041+1966.64+971.052+1966.62+971.062C1966.73+971.163+1966.78+971.246+1966.88+971.344C1967+971.543+1966.96+971.546+1967.06+971.719C1966.99+971.902+1966.94+972.095+1966.88+972.281C1967.05+972.423+1967.77+973.163+1968.03+973.406C1968.09+973.549+1968.43+974.088+1968.44+974.156C1968.46+974.012+1968.47+974.017+1968.5+973.875C1968.55+973.922+1968.63+974.012+1968.69+974.062C1969.15+975.453+1968.79+976.578+1968+977.562C1968.14+976.332+1968.2+975.683+1968.41+974.438C1967.94+974.078+1967.41+973.538+1966.75+972.719C1965.75+975.587+1965.04+978.554+1964.88+981.031C1964.73+981.223+1964.54+981.395+1964.44+981.594C1964.15+981.138+1963.91+980.584+1963.75+979.938C1963.83+977.753+1964.13+975.015+1964.62+972.781C1964.37+973.006+1964.13+973.161+1963.88+973.406C1964+972.865+1964.13+972.32+1964.31+971.906C1963.54+972.866+1962.81+973.943+1962.19+975.156C1960.11+977.757+1958.96+980.714+1960.88+982.719C1961.25+983.742+1961.87+984.58+1963.22+984.844C1964.09+985.015+1964.8+984.923+1965.53+984.875C1965.65+985.03+1965.66+985.333+1965.81+985.438C1966.23+985.726+1966.68+985.923+1967.12+986.094C1960.95+992.182+1954.83+999.491+1948.88+1003.84C1930.52+1017.25+1905.89+1028.58+1896.12+1053.53C1887.66+1075.16+1901.85+1101.77+1909.66+1113.62C1912.81+1118.42+1924.17+1123.05+1920.22+1127.16C1917.44+1130.05+1934.35+1132.32+1930.5+1133.22C1929.72+1133.4+1933.41+1135.92+1936.09+1137.34C1940.44+1139.65+1951.75+1140.67+1951.75+1141.28C1951.75+1141.93+1952.65+1142.15+1953.16+1142.53C1957.63+1145.94+1973.91+1145.07+1978.25+1144.53C1980.86+1144.21+1991.49+1143.58+1988.66+1143.72C1988.29+1143.74+2004.17+1142.76+2001.28+1143C1998.32+1143.25+2007.24+1143.07+2010.16+1142.5C2013.98+1141.76+2023.95+1137.93+2027.03+1138.56C2038.33+1140.88+2055.14+1122.96+2058.88+1112.62C2063.69+1099.29+2067.39+1062.18+2052.12+1043.19C2047.46+1037.39+2034.18+1041.94+2032.72+1037.38L2031.69+1037.53C2032.37+1046.06+2044.51+1039.59+2048.41+1046C2055.38+1057.48+2064.6+1086.43+2058.56+1101.38C2036.6+1155.72+1947.56+1140.89+1924.38+1123.5C1923.54+1122.87+1923.38+1121.64+1922.97+1120.66C1921.17+1116.39+1918.78+1109.3+1914.31+1109.91C1914.18+1109.92+1913.57+1105.03+1913.34+1104.69C1909.86+1099.35+1906.11+1092.35+1905.25+1092.53C1903.66+1092.86+1904.89+1089.18+1904.47+1087.56C1903.52+1083.89+1899.32+1077.4+1899.94+1071.75C1900.15+1069.83+1899.82+1060.75+1899.69+1060.69C1897.24+1059.4+1909.19+1039.16+1912.72+1036.84C1922.45+1030.44+1927.85+1023.28+1939.03+1017.19C1945.95+1013.42+1984.8+983.712+1987.38+974.719C1990.42+964.071+1994.99+953.682+2001.53+944.688L1999.25+942.969ZM1964.31+971.906C1964.51+971.656+1964.7+971.472+1964.91+971.25C1964.78+971.628+1964.73+972.284+1964.62+972.781C1965.13+972.344+1965.59+971.868+1966.06+971.531C1965.73+971.365+1966.11+971.924+1966.75+972.719C1966.8+972.575+1966.82+972.424+1966.88+972.281C1966.76+972.184+1966.17+971.555+1966.09+971.5C1966.27+971.379+1966.46+971.168+1966.62+971.062C1966.51+970.951+1966.47+970.865+1966.34+970.75C1966.09+970.515+1965.86+970.544+1965.62+970.531C1965.72+970.443+1965.81+970.298+1965.91+970.219C1965.71+970.165+1965.52+970.189+1965.34+970.438C1964.92+970.564+1964.62+971.202+1964.31+971.906ZM1968.41+974.438C1968.62+974.603+1968.45+974.32+1968.44+974.156C1968.41+974.297+1968.43+974.295+1968.41+974.438ZM1966.44+969.875C1967.05+969.47+1967.65+969.2+1968.16+969.25C1968.94+967.54+1969.72+966.046+1970.44+965.281C1962.02+959.047+1958.35+958.873+1966.44+969.875ZM1969.28+970C1969.29+970.015+1969.3+970.016+1969.31+970.031C1969.56+970.478+1969.73+971.087+1969.88+971.688L1970.09+972.219C1970.17+970.138+1970.13+968.166+1969.97+966.719C1969.96+966.609+1969.51+968.995+1969.28+970ZM2157.25+950.531C2150.1+955.667+2141.16+958.133+2133.34+962.031L2134.19+963.812C2141.65+960.122+2153+958.381+2157.56+950.906L2157.25+950.531ZM2224.59+959.125C2214.94+958.454+2205.46+961.959+2196.12+971.312L2197.59+974.5C2235.74+948.127+2254.85+987.498+2289.31+1022.59C2307.49+1041.1+2334.36+1068.53+2362.69+1078.94C2343.22+1081.63+2326.24+1086.61+2317.06+1105.56C2333.28+1090.65+2350.99+1083.68+2373.41+1082.5C2373.93+1082.47+2374.35+1082.44+2374.88+1082.41C2384.36+1084.06+2393.89+1083.21+2403.22+1079.31C2408+1078.12+2409.35+1076.66+2404.78+1074.88L2404.5+1074.28C2405.12+1072.13+2402.94+1073.22+2401.62+1073.72C2393.56+1076.79+2384.98+1076.26+2376.62+1077.16C2376.4+1077.18+2376.2+1077.23+2375.97+1077.25C2352.92+1069.83+2330.24+1048.17+2316.25+1033.84C2284.02+1000.85+2253.56+961.138+2224.59+959.125ZM2317.06+1105.56C2316.85+1105.76+2316.62+1105.92+2316.41+1106.12L2315.5+1108.88C2315.34+1108.64+2315.19+1108.4+2315.03+1108.16C2315.77+1106.62+2316.48+1105.07+2317.47+1103.75C2316.43+1105.14+2315.63+1106.42+2314.75+1107.72C2287.84+1067.07+2246.95+986.48+2213.81+1002.53C2204.17+1007.2+2201.55+992.122+2183.62+1011.31L2185.06+1014.38C2228.53+979.601+2260+1045.24+2296.25+1092.22C2301.1+1098.51+2307.53+1103.89+2313.53+1109.5C2304.67+1123.49+2305.44+1133.49+2310.81+1159.34L2312.66+1163.22C2311.89+1149.07+2307.89+1125.46+2314.06+1110C2316.31+1112.11+2318.46+1114.26+2320.47+1116.5L2320.56+1116.44C2319.03+1114.33+2317.24+1111.49+2315.59+1109.03C2316.07+1107.85+2316.53+1106.65+2317.06+1105.56ZM2048.69+967C2047.76+966.917+2046.79+967.189+2045.84+967.688C2044+967.939+2042.31+969.084+2040.88+970.781C2039.53+971.91+2038.37+973.468+2037.41+975.219C2033.68+979.025+2031.78+984.655+2035.31+987.188C2035.52+987.334+2035.73+987.407+2035.94+987.531C2036.34+988.304+2036.81+989.036+2037.53+989.562C2039.49+990.999+2041.65+990.908+2043.69+989.969C2047.14+989.533+2050.36+986.917+2052.16+983.625C2057.78+980.166+2061.89+975.017+2053.59+975.344C2053.86+972.91+2053.38+970.525+2051.66+968.625C2050.73+967.598+2049.73+967.094+2048.69+967ZM2195.62+967.562C2180.6+978.405+2166.89+1027.24+2173.19+1043.09L2176.34+1043.62C2174.1+1018.31+2181.98+1013.92+2190.47+987.844C2191.8+983.754+2193.26+970.063+2196.03+967.875L2195.62+967.562ZM2178.5+977.062C2166.09+977.732+2153.69+978.425+2141.28+979.094L2141.84+980.688C2154.07+979.558+2166.31+978.442+2178.53+977.312L2178.5+977.062ZM1972.12+977.125C1972.41+977.467+1972.58+977.677+1972.88+978.031C1973.61+978.906+1973.76+979.063+1974.34+979.75C1972.53+981.012+1970.71+982.657+1968.91+984.344C1968.85+984.345+1968.73+984.441+1968.69+984.438C1968.53+984.426+1968.46+984.177+1968.34+984.062C1970.45+982.783+1971.52+980.296+1972.09+977.438C1972.26+977.614+1972.2+977.533+1972.38+977.719L1972.12+977.125ZM2041.34+984.625C2041.18+984.719+2041.03+984.793+2040.88+984.875C2040.88+984.802+2040.9+984.731+2040.91+984.656C2041.05+984.649+2041.2+984.644+2041.34+984.625ZM1941.12+986.719C1936.18+987.662+1931.2+988.149+1926.16+988.75L1926.62+990.562C1931.19+989.912+1937.07+989.198+1941.12+986.812L1941.12+986.719ZM2141.72+998.656L2141.59+999.75C2149.09+1001.7+2156.6+1003.65+2164.09+1005.59L2164.16+1005.34C2156.68+1003.11+2149.2+1000.89+2141.72+998.656ZM2139.16+1027.69C2119.3+1062.61+2093.79+1073.27+2068.72+1093.88L2069.62+1096.88C2098.77+1076.71+2122.68+1067.21+2140+1028.03L2139.16+1027.69ZM2154.88+1038.22L2152.34+1041.53C2152.7+1041.72+2153.05+1041.91+2153.41+1042.09C2148.65+1046.12+2143.88+1050.16+2139.12+1054.19L2140.78+1057.72C2145.24+1052.65+2149.72+1047.6+2154.19+1042.53C2161.63+1046.5+2169.09+1050.47+2176.53+1054.44L2176.91+1053.81C2169.57+1048.61+2162.21+1043.42+2154.88+1038.22ZM1918.34+1047.81C1918.28+1047.57+1918.59+1048.61+1918.59+1048.56C1918.6+1048.56+1918.61+1048.56+1918.62+1048.56C1918.59+1048.45+1918.37+1047.9+1918.34+1047.81ZM1918.62+1048.56C1918.7+1048.81+1919.16+1049.85+1919.28+1050.22C1919.24+1050.23+1919.19+1050.24+1919.16+1050.25C1918.86+1049.35+1918.59+1048.45+1918.59+1048.56C1918.44+1048.55+1918.35+1048.46+1918.19+1048.47C1917.76+1048.48+1917.6+1049.61+1917.59+1051.06C1916.89+1051.99+1917.04+1053.58+1917.5+1055.31C1916.98+1056.94+1916.9+1058.84+1917.06+1060.75C1915.74+1066.74+1916.17+1073.77+1922.47+1072.62C1923.35+1072.46+1923.9+1071.73+1924.31+1070.78C1928.33+1067.65+1926.9+1054.39+1923.41+1051.56C1923.22+1050.85+1923.02+1050.14+1922.62+1049.88C1921.8+1049.32+1921.19+1049.16+1920.75+1049.25C1920.16+1048.84+1919.46+1048.61+1918.62+1048.56ZM1920.03+1049.91C1920.05+1049.9+1920.04+1050.03+1920.06+1050.03C1920.04+1050.09+1919.99+1050.1+1919.97+1050.16C1919.9+1050.16+1919.85+1050.15+1919.78+1050.16C1919.87+1050.08+1919.9+1049.94+1920.03+1049.91ZM1995.72+1049.97C1993.65+1050.29+1990.11+1058.58+1990+1063.62C1987.87+1070.76+1987.7+1080.25+1989.22+1080.59C1991.12+1081.03+1992.88+1078.87+1994.41+1075.81C1994.61+1075.61+1994.82+1075.41+1995.03+1075.16C1999.17+1073.56+2002.6+1063.4+2000.94+1060.03C2001.28+1057.23+2001.06+1054.9+1999.78+1054.03C1999.51+1053.84+1999.26+1053.76+1999+1053.66C1998.79+1052.46+1998.41+1051.43+1997.62+1051C1997.05+1050.68+1996.42+1050.88+1995.78+1051.28C1995.67+1051.28+1995.57+1051.32+1995.47+1051.34L1995.72+1049.97ZM1919.41+1051.66C1919.48+1051.77+1919.57+1051.97+1919.66+1052.12C1919.66+1052.13+1919.63+1052.12+1919.62+1052.12C1919.6+1052.15+1919.56+1052.16+1919.53+1052.19C1919.49+1052+1919.43+1051.83+1919.41+1051.66ZM1995.84+1053.22C1995.82+1053.08+1995.64+1054.42+1995.56+1055C1995.54+1055.03+1995.52+1055.04+1995.5+1055.06C1995.59+1054.49+1995.81+1053.61+1995.84+1053.22ZM1995.12+1053.78C1995.1+1054.45+1994.94+1055.4+1994.62+1056.62L1994.62+1056.25L1994.62+1056.16L1995.03+1053.84C1995.06+1053.81+1995.1+1053.81+1995.12+1053.78ZM2194.84+1056.81C2193.31+1056.58+2191.51+1057.06+2189.38+1058.59L2190.34+1058.97C2202.08+1059.1+2223.82+1155.04+2227.34+1141.5C2227.58+1141.78+2227.69+1142.11+2228.03+1142.34C2228.18+1142.44+2228.23+1142.39+2228.34+1142.44L2227.69+1142.53C2227.84+1142.52+2228.25+1142.48+2228.41+1142.47C2228.6+1142.53+2228.76+1142.54+2228.84+1142.44C2229.43+1142.39+2230.69+1142.25+2231.41+1142.19C2231.16+1142.18+2230.9+1142.17+2230.66+1142.16L2228.88+1142.38C2229.16+1141.82+2228.58+1140.04+2227.78+1137.91C2227.85+1136.48+2227.92+1135.06+2227.88+1132.94L2226.97+1132.91C2226.86+1133.46+2226.79+1134.16+2226.66+1134.78C2226.32+1133.86+2225.85+1132.71+2225.69+1132.06C2224.4+1127+2223.16+1121.92+2221.91+1116.84C2217.82+1100.33+2212.08+1085.31+2204.53+1070.19C2201.8+1064.71+2199.45+1057.5+2194.84+1056.81ZM2231.41+1142.19C2253.29+1143.24+2279.13+1142.61+2299.91+1152.19C2303.73+1156.81+2307.55+1161.44+2311.38+1166.06L2311.97+1165.56C2287.02+1133.86+2262.07+1102.14+2237.12+1070.44L2234.53+1073.19C2255.96+1099.1+2277.41+1124.99+2298.84+1150.91C2284.94+1135.77+2246.03+1140.83+2231.41+1142.19ZM2129.75+1060.22L2129.22+1064.31C2147.5+1071.79+2167.65+1113.04+2183.47+1158.75C2188.76+1174.05+2202.03+1197.46+2200.62+1211.66C2199.32+1224.84+2199.12+1244.13+2195.97+1261.38C2189.57+1296.39+2172.79+1331.88+2154.53+1355.03C2160.21+1337.14+2166.66+1319.08+2167.97+1304.34C2176.93+1297.2+2180.53+1283.09+2181.75+1274.78C2183.05+1274.21+2183.44+1273.21+2182.22+1271.59C2182.35+1269.97+2182.45+1268.27+2182.34+1268.28C2177.69+1268.76+2173.05+1269.3+2168.41+1269.81L2169.62+1276.09C2171.17+1275.82+2173.6+1275.74+2176.03+1275.62C2175.52+1277.76+2175.02+1280.07+2174.5+1281.5C2172.79+1286.2+2169.64+1290.31+2167.38+1294.78C2165.3+1294.17+2167.01+1288.71+2166.22+1286.03C2164.05+1278.68+2159.8+1265.81+2155.66+1261.84C2153.62+1259.89+2153.43+1251.74+2151.94+1254.16C2151.09+1255.52+2146.93+1246.88+2146.53+1247.34C2146.01+1247.95+2147.58+1250.74+2145.72+1246.56C2143.01+1240.49+2136.57+1232.2+2131.28+1229.44C2117.71+1222.36+2111.16+1224.43+2093.44+1224.72C2133.53+1193.2+2121.06+1148.79+2097.62+1103.03L2094.62+1104.09C2109.42+1144.16+2115.69+1166.84+2110.41+1200.16C2109.34+1206.88+2094.31+1215.46+2090.28+1225.09C2069.52+1228.06+2038.64+1299.22+2033.03+1332.41C2031.46+1332.01+2032.54+1332.06+2030.59+1333.47C2021.85+1339.77+2004.39+1340.67+2002.06+1341.31C1992.21+1344.01+1973.86+1324.69+1970.81+1326.03C1968.56+1327.02+1966.43+1322.53+1964.38+1320.31C1963.15+1319+1959.83+1314.79+1960.75+1316.34C1963.31+1320.65+1958.34+1313.23+1957.53+1313.06C1955.68+1312.67+1952.12+1307.69+1953.12+1309.34C1954.12+1310.97+1950.29+1302.55+1950.16+1304.47C1950.05+1305.92+1948.3+1302.23+1947.22+1301.31C1943.41+1298.07+1943.85+1294.97+1940.12+1291.88C1934.72+1287.38+1935.31+1280.12+1932.34+1272.31C1931.28+1269.5+1931.7+1262.34+1929.19+1263.88C1929.17+1263.88+1928.79+1255.45+1929+1253.56C1929.84+1245.89+1930.76+1240.62+1930.16+1232.28C1928.66+1211.6+1953.62+1178.61+1962.78+1153.12L1959.62+1152.69C1954.84+1162.8+1938.61+1201.09+1934.12+1202.94C1932.92+1203.43+1926.81+1222.98+1926.59+1222.66C1924.26+1219.26+1924.38+1230.7+1923.78+1234.81C1922.92+1240.79+1923.25+1245.73+1922.03+1253.62C1921.77+1255.35+1923.5+1263.63+1922.5+1258C1922.46+1257.76+1922.77+1258.48+1922.72+1258.72C1922.7+1258.79+1922.7+1258.86+1922.69+1258.94C1920.32+1255.77+1917.96+1252.58+1915.19+1249.25C1915.16+1248.81+1915.18+1248.54+1915.12+1248C1915.13+1247.96+1915.15+1247.91+1915.16+1247.88C1915.42+1245.4+1915.31+1244.76+1915.38+1243.09C1915.54+1242.58+1915.56+1242.56+1915.88+1241.62C1916.32+1240.64+1916.66+1239.79+1916+1240C1915.88+1240.04+1915.66+1240.47+1915.5+1240.66C1915.5+1240.49+1915.53+1240.15+1915.53+1240L1916+1240C1924.55+1218.03+1933.09+1196.52+1950.06+1170.38L1948.25+1169.28C1928.54+1197.22+1920.86+1214.39+1914.38+1240L1915.38+1240C1915.37+1240.35+1915.34+1240.41+1915.34+1240.84C1915.1+1241.16+1914.88+1241.29+1914.59+1241.81C1914.68+1242.62+1914.76+1242.85+1914.78+1243.38C1914.79+1243.62+1914.76+1243.62+1914.75+1243.84C1914.68+1243.15+1914.61+1242.51+1914.56+1241.91C1913.86+1243.18+1913.2+1244.83+1912.69+1246.44C1908.08+1241.07+1903.05+1235.68+1897.62+1230.31C1897.65+1230.2+1897.7+1230.09+1897.72+1229.97C1898.42+1227.75+1899.38+1222.55+1899.22+1220.69C1898.46+1211.98+1897.32+1205.66+1900.75+1194.81C1906.27+1177.37+1919.63+1161.38+1938.81+1147.22L1938.09+1145.72C1920.61+1151.49+1906.34+1172.47+1901.91+1184.19C1899.88+1189.54+1898.33+1197.95+1895.66+1202.25C1894.52+1204.08+1895.82+1209.65+1894.91+1208.56C1892.29+1205.46+1899.03+1223.96+1896.5+1220.78C1896.37+1220.62+1895.73+1225.38+1895.81+1228.53C1869.93+1203.41+1836.68+1181.13+1807.69+1183.75L1809.22+1184.97C1859.54+1187.51+1886.93+1229.73+1922.5+1261.38C1922.25+1266.37+1923.93+1271.16+1925.5+1276.34C1929.05+1288.05+1931.86+1296.12+1934.88+1299.31C1936.96+1301.52+1943.31+1307.9+1940.81+1306.22C1937.74+1304.15+1942.45+1309.34+1943.81+1311.12C1946.79+1315.04+1949.87+1319.82+1954.12+1322C1962.49+1326.28+1971.95+1335.83+1973.84+1337.78C1979.22+1343.32+1980.07+1340.45+1984.53+1343.19C1984.94+1343.44+1985.85+1344.36+1985.38+1344.41C1984.19+1344.52+1987.76+1344.57+1988.94+1344.75C1990.85+1345.05+1994.79+1346.39+1997.75+1346.81C2000.21+1347.16+2005.6+1348.2+2010.44+1347.84C2011.73+1347.75+2015.6+1347.46+2014.31+1347.62C2011.67+1347.96+2022.92+1343.3+2022.16+1345.94C2021.62+1347.76+2025.22+1345.44+2027.16+1344.75C2029.22+1344.01+2030.79+1342.55+2032.06+1340.94C2032.06+1341.1+2032.03+1341.31+2032.03+1341.47C2032.02+1387.88+2071.62+1390.98+2107.72+1392.22C2149.48+1393.65+2170.57+1339.03+2187.75+1303.09C2200.28+1276.88+2201.97+1254.41+2205.53+1227.31C2206.15+1222.61+2206.72+1201.41+2204.06+1201.59C2203.53+1201.63+2197.45+1171.7+2194.81+1172.28C2194.52+1172.35+2189.39+1155.53+2188.78+1153.69C2185.45+1143.61+2180.61+1133.32+2177.53+1124.19C2176.68+1121.66+2176.52+1121.24+2175.88+1121.56C2175.6+1121.7+2166.33+1102.43+2168.91+1107.31C2170.55+1110.43+2168.15+1095.52+2165.22+1097.38C2163.82+1098.26+2157.37+1081.49+2152.16+1076.34C2143.65+1067.95+2147.1+1060.92+2129.75+1060.22ZM1914.56+1241.91C1914.58+1241.88+1914.58+1241.84+1914.59+1241.81C1914.49+1240.87+1914.38+1239.39+1914.38+1240C1914.37+1240.43+1914.52+1241.31+1914.56+1241.91ZM1921.47+1060.41C1921.64+1060.75+1921.74+1060.95+1921.91+1061.28C1921.97+1061.98+1922.04+1062.59+1922.09+1063.28C1921.72+1062.38+1921.5+1061.77+1921.12+1060.84C1921.26+1060.73+1921.35+1060.55+1921.47+1060.41ZM1921.59+1063.94C1921.84+1064.33+1922.03+1064.59+1922.25+1064.94C1922.25+1064.97+1922.25+1065+1922.25+1065.03C1922.08+1064.78+1921.82+1064.32+1921.59+1063.94ZM1994.62+1067.41C1994.59+1067.5+1994.56+1067.59+1994.53+1067.69C1994.55+1067.6+1994.55+1067.53+1994.56+1067.44C1994.58+1067.42+1994.61+1067.43+1994.62+1067.41ZM1996.56+1072.88C1996.4+1073.58+1996.22+1073.89+1996+1073.88C1996.19+1073.58+1996.37+1073.21+1996.56+1072.88ZM2119.72+1073.22C2113.79+1080.15+2107.84+1087.07+2101.91+1094L2104.97+1096.78C2110.16+1089.15+2115.34+1081.54+2120.53+1073.91L2119.72+1073.22ZM1990.84+1073.84C1990.97+1074.76+1991.24+1075.45+1991.62+1075.97C1991.41+1076.56+1991.17+1077.22+1990.97+1077.81C1990.84+1078.19+1991.52+1079.22+1991.19+1079C1990.6+1078.6+1990.59+1076.53+1990.84+1073.84ZM2221.03+1137C2211.29+1138.57+2201.58+1140.15+2191.84+1141.72L2195.41+1144.62C2203.97+1142.16+2212.53+1139.69+2221.09+1137.22L2221.03+1137ZM1793.97+1175.53C1789.77+1175.54+1783.44+1185.23+1782.31+1192.88C1780.88+1193.36+1779.06+1193.95+1778.53+1194.19C1778.32+1194.28+1778.22+1194.43+1778.03+1194.53C1772.84+1194.35+1766.42+1195.59+1762.69+1198.56C1756.73+1203.31+1762.64+1212.72+1763.62+1217.91C1763.8+1218.82+1765.29+1219.83+1766.59+1220.44C1760.83+1221.53+1744.34+1231.72+1742.19+1236.28C1741.42+1237.92+1755.15+1250.15+1761.22+1252.81C1760.76+1250.72+1760.24+1248.13+1759.72+1246.84C1757.93+1242.47+1748.21+1238.81+1744.53+1236.72C1744.21+1236.54+1745.23+1237.37+1745.53+1237.16C1749.1+1234.57+1762.94+1227.67+1768.12+1221C1768.15+1220.97+1768.08+1220.96+1768.09+1220.94C1768.54+1221.02+1768.76+1220.96+1768.41+1220.59C1768.32+1220.51+1768.04+1220.58+1767.91+1220.53C1767.11+1220.06+1764.64+1219.88+1765.22+1219.19C1767.21+1216.82+1759.65+1204.14+1762.91+1201.12C1765.37+1198.84+1770.5+1197.95+1775.41+1197.06C1773.41+1200.61+1774.64+1205.64+1773.75+1209.03C1773.36+1209.69+1773.08+1210.39+1772.72+1211.06C1772.65+1211.14+1772.64+1211.24+1772.56+1211.31L1772.59+1211.34C1752.74+1249.01+1784.19+1302.27+1811.84+1328.53C1820.42+1336.68+1831.62+1346.27+1840.28+1351.19C1843.54+1353.04+1853.97+1351.21+1851.16+1353.72C1850.05+1354.7+1852.68+1353.36+1854.81+1352.59L1854.81+1353.03C1856.78+1353.11+1861.68+1353.03+1864.94+1353.06C1865.13+1353.1+1865.24+1353.12+1865.44+1353.16C1866.82+1353.41+1869.75+1353.01+1868.66+1353.78C1867.24+1354.78+1869.45+1354.09+1872.06+1353.06C1902.5+1352.87+1957.61+1350.23+1967.53+1337.47L1967.31+1337.06C1951.21+1348.49+1906.52+1351.13+1875.5+1351.47C1875.9+1351.25+1876.57+1351.04+1876.84+1350.84C1881.21+1347.65+1889.07+1343.85+1892.22+1339.06C1895.57+1333.97+1902.96+1326.7+1903.06+1318.12C1903.42+1287.42+1871.4+1221.79+1844.03+1202.72C1834.45+1196.04+1820.35+1193.46+1812.78+1187.59C1811.73+1186.78+1809.28+1186.69+1806.12+1187.03C1802.79+1183.48+1799.35+1175.52+1793.97+1175.53ZM1761.22+1252.81C1761.74+1255.18+1762.18+1256.91+1762.44+1255.34C1762.55+1254.67+1762.42+1253.97+1762.38+1253.28C1762.05+1253.2+1761.62+1252.99+1761.22+1252.81ZM1762.38+1253.28C1763.93+1253.69+1764.62+1253.03+1763.66+1250.62L1762.25+1250.38C1762.28+1251.34+1762.32+1252.31+1762.38+1253.28ZM1791.94+1177.97C1791.09+1179.4+1794.24+1177.7+1795.56+1179.47C1796.96+1181.33+1799.51+1185.11+1802.19+1187.78C1797.07+1188.68+1791.51+1190.04+1786.75+1191.47C1787.89+1188.5+1788.66+1184.28+1789.53+1182.62C1790.34+1181.08+1792.82+1176.47+1791.94+1177.97ZM1984.25+1181.69C1989.4+1204.9+2021.33+1200.57+2034.88+1186.31C2021.45+1200.22+1989.88+1204.31+1984.69+1181.72L1984.25+1181.69ZM1803.84+1190.88C1829.32+1189.55+1836.43+1210.17+1847.31+1211.28C1853.26+1211.89+1869.22+1240.44+1873.31+1246.62C1891.89+1274.68+1915.25+1319.46+1883.31+1340.5C1880.44+1342.39+1876.79+1347.51+1874+1348.16C1864.96+1350.27+1852.3+1349.46+1844.72+1350.19C1835.14+1351.1+1814+1318.45+1806.06+1316.47C1799.91+1314.93+1784.13+1295.17+1782.22+1286.31C1780.99+1280.63+1773.14+1272.33+1771.19+1265.41C1764.36+1241.23+1771.31+1209.5+1788.78+1194.28L1788.53+1193.94C1794.25+1192.13+1799.37+1191.11+1803.84+1190.88ZM1786.19+1194.72C1782.5+1197.81+1779.46+1201.12+1776.88+1204.59C1777.71+1201.4+1778.62+1198.18+1782.06+1196.34C1782.11+1196.44+1782.24+1196.8+1782.22+1196.62C1782.2+1196.52+1782.23+1196.39+1782.22+1196.28C1782.5+1196.14+1782.68+1195.94+1783+1195.81C1784.12+1195.38+1785.11+1195.09+1786.19+1194.72ZM2134.31+1195.75C2134.12+1195.84+2133.47+1196.67+2132.56+1198C2133.89+1196.94+2134.67+1195.58+2134.31+1195.75ZM2132.56+1198C2132.08+1198.38+2131.58+1198.78+2130.97+1198.97C2130.1+1197.57+2129.24+1196.61+2128.41+1196.84C2120.18+1199.13+2119.61+1211.89+2115.34+1219.5L2118.44+1224.38C2123.67+1213.54+2127.3+1206.8+2129.81+1202.47C2129.82+1202.48+2129.84+1202.55+2129.84+1202.56C2130.27+1205.9+2130.32+1209.47+2131+1212.97C2131.43+1215.19+2135.56+1239.06+2140.22+1234.38C2140+1231.48+2135.82+1208.06+2131.41+1199.81C2131.81+1199.17+2132.25+1198.45+2132.56+1198ZM2140.22+1234.38C2140.23+1234.51+2140.38+1235.31+2140.38+1235.34C2140.48+1234.81+2141.5+1232.91+2140.44+1234.19C2140.36+1234.28+2140.29+1234.3+2140.22+1234.38ZM2052.03+1226.25C2038.68+1238.85+2009.46+1245.02+1985.19+1242.16C2009.23+1245.63+2037.69+1239.78+2052.03+1226.25ZM1985.19+1242.16C1973.2+1240.42+1962.3+1236.41+1954.84+1229.78L1953.94+1229.62C1960.9+1236.65+1972.36+1240.64+1985.19+1242.16ZM2107.12+1227.5C2108.07+1229.53+2108.69+1227.82+2112.91+1228.69C2121.65+1230.48+2131.77+1240.18+2137.12+1247.09C2165.73+1284.02+2165.36+1303.29+2152.84+1357.16C2148.97+1361.88+2145.06+1366.24+2141.16+1369.69C2136.35+1373.93+2116.53+1394.53+2106.19+1387.56C2098.19+1382.17+2041.61+1387.92+2044.38+1368.19C2044.75+1365.5+2038.62+1355.41+2037.34+1351.53C2037.27+1351.29+2037.04+1350.61+2037.12+1350.84C2037.68+1352.38+2035.66+1340.58+2036.22+1336.78C2037.15+1330.45+2041.7+1314.84+2044.81+1303.16C2046.47+1296.93+2049.88+1285.87+2053.97+1282.59C2055.18+1281.63+2079.09+1243.37+2080.84+1239.91C2081.12+1239.37+2085.3+1234.23+2085.09+1235.53C2084.73+1237.87+2088.52+1232.23+2090.66+1231.38C2095.02+1229.62+2099.45+1229.94+2104.31+1228.38C2104.69+1228.25+2107.08+1227.4+2107.12+1227.5ZM2167.53+1230.53C2166.61+1230.95+2165.72+1232.45+2164.88+1234.53C2161.28+1235.32+2153.34+1236.35+2149.91+1237.62L2150.91+1242.25C2154.01+1241.11+2159.59+1239.06+2164.09+1237C2162.02+1243.19+2160.3+1252+2159.53+1256.16C2159.09+1258.51+2160.4+1263.23+2160.84+1265.91C2162.91+1261.78+2169.73+1242.03+2169.38+1234.09C2171.07+1232.83+2171.59+1231.74+2169.44+1231.12C2168.8+1230.94+2168.13+1230.26+2167.53+1230.53ZM2160.84+1265.91C2160.57+1266.45+2160.06+1267.77+2160+1267.66L2160.19+1267.53C2161.13+1268.53+2161.1+1267.47+2160.84+1265.91ZM1914.94+1244.47C1914.9+1244.62+1914.88+1244.93+1914.84+1245.06C1914.83+1244.95+1914.86+1244.86+1914.84+1244.75C1914.85+1244.72+1914.93+1244.51+1914.94+1244.47ZM1953.97+1288.22L1953.66+1288.66C1975.62+1305.5+2002.5+1302.96+2026.84+1294.66L2026.81+1294.59C2001.82+1301.72+1976.55+1305.14+1953.97+1288.22Z" stroke="#000000" stroke-width="1" fill="#000000" opacity="1" stroke-linejoin="round"/>
</g>
<g id="Layer 10" vectornator:layerName="Layer 10">
<path d="M2221.15+1156.54C2202.98+1156.66+2189.99+1162.45+2189.99+1162.45L2200.96+1186.92C2200.96+1186.92+2183.28+1180.36+2160.46+1174.73C2137.63+1169.1+2132.87+1167.8+2111.49+1166.51C2090.11+1165.22+2074.96+1169.57+2074.96+1169.57L2056.71+1178.1L2039.05+1197.26L2079.83+1183.57L2144.65+1195.13L2198.21+1215.82L2238.08+1233.17C2238.08+1233.17+2264.57+1241.55+2281.58+1241.38C2298.6+1241.22+2299.15+1239.05+2306.15+1232.51C2313.15+1225.97+2317.72+1222.51+2317.52+1211.26C2317.32+1200.01+2305.33+1187.51+2305.33+1187.51C2305.33+1187.51+2280.31+1169.33+2252.08+1162.26C2242.5+1159.86+2230.48+1156.48+2221.15+1156.54ZM2236.93+1181.32L2259.08+1186.98L2260.96+1194.76L2249.65+1201.1L2223.02+1197.82L2211.24+1194.04L2200.65+1187.45L2211.71+1182.98L2222.8+1181.54L2236.93+1181.32Z" opacity="1" fill="#82008c"/>
</g>
<g id="Layer 9" vectornator:layerName="Layer 9">
<path d="M2225.53+1156.94C2211.96+1157.83+2195.29+1154.8+2187.25+1166.91L2187.47+1167.12C2195.3+1160.47+2210.7+1158.86+2222.31+1160.38C2259.61+1165.25+2272.57+1168.14+2291.25+1183.03C2274.47+1178.6+2255.01+1178.27+2237.78+1181.5C2220.99+1180.16+2202.33+1182.15+2199.38+1188.59C2149.71+1171.74+2089.59+1143.89+2040.09+1194.97L2041.19+1196.16C2041.63+1195.73+2042.09+1195.44+2042.53+1195.03C2068.27+1171.07+2095.32+1167.51+2129+1171.03C2133.46+1171.5+2159.69+1175.83+2159.72+1177.53C2159.74+1178.49+2161.48+1178.34+2162.44+1178.44C2166.6+1178.86+2187.1+1186.19+2187.06+1186.66C2186.9+1188.53+2193.99+1190.34+2199.12+1191.56C2199.16+1191.72+2199.14+1191.87+2199.19+1192.03L2199.72+1191.72C2201.52+1192.15+2204.35+1192.8+2204.34+1192.88C2204.31+1193.3+2204.81+1193.77+2205.53+1194.25C2203.75+1195.64+2202.11+1197.07+2200.75+1198.62L2201.81+1200.41C2202.02+1199.26+2205.59+1197.72+2209.72+1196.12C2221.41+1200.26+2249.45+1204.48+2257.28+1200.25C2274.24+1191.1+2262.11+1184.69+2244.66+1182.19C2287.05+1173.77+2343.62+1208.54+2295.09+1237.84C2269.91+1253.05+2248.51+1231.35+2223.84+1225.31C2186.95+1216.28+2150.47+1189.52+2109.22+1185.59C2088.58+1183.63+2058.19+1180.8+2042.53+1195.03C2040.29+1197.06+2038.38+1199.47+2036.81+1202.25L2038.62+1203.41C2052.1+1184.39+2084.45+1186.56+2108.34+1189.09C2160.5+1194.62+2259.53+1264.56+2299.56+1240.66C2319.51+1228.74+2328.95+1198.3+2300.78+1186.03C2282.51+1167.8+2252.64+1155.15+2225.53+1156.94ZM2237.28+1184.25C2250.35+1184.57+2261.51+1187.24+2259.72+1194.28C2259.41+1195.51+2258.18+1196.56+2256.97+1196.91C2245.15+1200.31+2231.1+1198.14+2215.72+1193.81C2220.07+1192.24+2224.27+1190.7+2225.97+1189.56C2229.43+1187.24+2233.29+1185.61+2237.28+1184.25ZM2225.47+1184.56C2219.28+1186.52+2213.54+1188.88+2208.91+1191.84C2206.71+1191.16+2204.34+1190.28+2202.09+1189.53C2206.14+1187.17+2215.42+1185.35+2225.47+1184.56Z" stroke="#000000" stroke-width="1" fill="#000000" opacity="1" stroke-linejoin="round"/>
</g>
<g id="L2" vectornator:layerName="L2">
<path d="M1998.78+1168.04C1997.81+1168.05+1996.84+1168.13+1995.83+1168.31C1995.48+1168.38+1995.42+1168.4+1995.07+1168.47C1990.36+1168.61+1982.48+1168.18+1981.26+1168.5C1978.28+1169.27+1975.41+1169.08+1972.41+1169.61C1968.92+1170.23+1965.49+1171.69+1962.27+1174.12C1961.62+1174.61+1959.69+1177.2+1960.36+1178.87C1960.38+1178.94+1960.43+1179+1960.46+1179.06C1960.44+1179.05+1960.43+1179.03+1960.41+1179.02C1961.01+1180.63+1961.85+1181.76+1962.43+1183.39C1963.5+1186.4+1963.53+1190.14+1964.63+1193.1C1965.64+1195.82+1964.53+1199.38+1965.43+1202.32C1966.65+1206.28+1968.79+1210.67+1970.05+1215.3C1971.26+1219.77+1980.79+1226.7+1980.87+1226.2C1980.9+1226.05+1978.84+1228.46+1978.18+1228.63C1977.83+1228.72+1976.12+1231.38+1976.04+1232.22C1976+1232.68+1976.57+1232.87+1976.62+1233.01C1977.03+1234.26+1983.5+1234.79+1984.8+1235.36C1986.92+1236.29+1991.81+1236.24+1994.31+1235.85C1995.89+1235.61+1997.62+1235.95+1999.19+1235.67C2004.19+1234.77+2009.41+1234.44+2014.36+1233.51C2016.97+1233.02+2014.38+1230.2+2013.05+1228.91C2012.49+1228.36+2011.96+1227.85+2011.47+1227.24C2011.35+1227.09+2011.22+1226.75+2011.12+1226.54C2014.47+1225.36+2016.29+1222.43+2019.27+1220.74C2019.59+1220.56+2019.68+1219.85+2020.04+1219.98C2024.2+1221.55+2027.63+1214.63+2031.31+1212.54C2035.61+1210.11+2039.69+1208.31+2044.79+1207.66C2045.96+1207.51+2047.1+1206.98+2048.18+1206.71C2048.23+1206.7+2048.53+1206.54+2048.56+1206.57C2048.89+1206.87+2049.48+1206.31+2049.81+1206.02C2050.02+1205.84+2050.3+1203.5+2050.37+1203.46C2050.8+1203.21+2053.85+1197.9+2054.07+1197.03C2054.46+1195.5+2054.74+1193.24+2055.43+1191.97C2055.87+1191.17+2055.32+1189.48+2055.05+1188.77C2053.4+1184.48+2050.35+1182.6+2045.53+1181.36C2040.61+1180.09+2035.16+1184.99+2032.63+1188.05C2031.71+1189.17+2030.63+1190.41+2029.96+1191.62C2029.8+1191.91+2029.48+1191.81+2028.95+1192.03C2028.76+1192.11+2028.12+1192.07+2028.33+1192.09C2028.38+1192.09+2028.32+1188.49+2029.31+1187.02C2030.25+1185.61+2031.41+1182.26+2031.41+1181.33C2031.41+1181.32+2031.52+1180.89+2031.53+1180.88C2031.58+1180.88+2031.56+1180.28+2031.56+1180.19C2031.55+1179.48+2031.53+1178.6+2031.15+1178.24C2031.58+1176.96+2031.61+1175.55+2030.64+1174.81C2028.52+1173.18+2025.85+1172.89+2023.57+1172.88C2021.5+1172.87+2019.37+1172.28+2017.32+1171.82C2014.01+1171.07+2010.72+1170.01+2007.4+1169.32C2004.41+1168.7+2001.66+1168.03+1998.78+1168.04ZM1960.41+1179.02C1960.39+1178.97+1960.36+1178.93+1960.34+1178.87L1960.34+1178.98C1960.36+1178.99+1960.38+1179.01+1960.41+1179.02ZM1998.03+1168.75C2001.06+1168.83+2004.17+1169.56+2007.09+1170.15C2010.4+1170.82+2013.67+1171.93+2016.98+1172.65C2018.85+1173.06+2020.74+1173.3+2022.63+1173.69C2023.84+1173.95+2025.08+1173.81+2026.29+1174.09C2029.48+1174.84+2031.39+1176.52+2030.86+1178.09C2030.71+1178.06+2030.54+1178.06+2030.33+1178.15L2030.38+1178.19C2030.43+1178.2+2030.55+1178.37+2030.65+1178.52C2030.15+1179.3+2028.98+1180.03+2027+1180.58C2023.93+1181.41+2020.83+1182.23+2017.71+1182.9C2016.01+1183.26+2006.74+1183.47+2003.83+1184.1C1993.49+1186.32+1982.78+1184.63+1972.53+1182.41C1969.39+1181.73+1966.34+1180.56+1963.28+1179.62C1962.71+1179.44+1960.95+1179.51+1960.58+1178.61C1959.98+1177.15+1962.3+1174.76+1962.76+1174.42C1965.84+1172.18+1969.12+1170.9+1972.45+1170.26C1975.43+1169.68+1978.3+1169.95+1981.26+1169.13C1982.33+1168.84+1988.49+1169.06+1993.18+1168.93C1994.05+1169.01+1993.88+1169.11+1995.04+1168.93C1996.02+1168.78+1997.02+1168.73+1998.03+1168.75ZM2030.9+1178.84C2030.92+1178.86+2030.97+1178.94+2030.97+1178.93C2030.94+1178.72+2030.97+1179.35+2030.97+1179.56C2030.97+1180.07+2030.35+1180.96+2030.9+1181.08C2031.12+1181.13+2029+1186.01+2028.47+1188.07C2028.13+1189.41+2027.71+1190.75+2027.69+1191.76C2027.69+1191.89+2027.82+1192.33+2027.92+1192.32C2028.14+1192.3+2028.75+1192.59+2029.19+1192.48C2029.52+1192.41+2030.43+1192.25+2030.12+1192.12C2030.01+1192.07+2030.03+1192.14+2030.19+1192.06C2030.52+1191.89+2031.01+1191.16+2031.36+1190.73C2032.07+1189.88+2032.91+1188.75+2033.52+1187.78C2035.52+1184.55+2041.07+1180.92+2045.36+1181.81C2054.43+1183.68+2055.53+1188.45+2053.92+1195.75C2053.36+1198.27+2051.5+1200.29+2050.34+1202.51C2050.14+1202.89+2049.52+1204.53+2049.62+1204.62C2049.87+1204.85+2049.23+1205.64+2049.3+1205.74C2049.19+1205.76+2048.97+1205.81+2048.9+1205.91C2048.72+1206.14+2047.52+1206.51+2046.58+1206.71C2043.83+1207.29+2041.05+1207.93+2038.36+1208.55C2035.41+1209.24+2028.87+1212.84+2027.26+1215.15C2026.21+1216.66+2024.39+1219+2022.28+1219.66C2021.5+1219.91+2019.96+1219.46+2019.83+1219.54C2018.04+1220.55+2015.92+1223.43+2013.62+1224.81C2012.75+1225.33+2010.78+1225.73+2010.35+1226.4C2010.02+1226.9+2013.51+1230.38+2014.1+1230.88C2014.55+1231.27+2014.9+1232.31+2014.89+1232.33C2014.76+1232.56+2014.41+1232.8+2014.6+1232.77C2015.05+1232.69+2013.72+1233.02+2013.33+1233.22C2012.6+1233.58+2011.49+1233.73+2010.67+1233.83C2008.54+1234.11+2005.11+1233.57+2003.22+1234.49C2001.49+1235.33+1998.07+1235.11+1995.98+1235.15C1990.24+1235.27+1984.69+1235.28+1979.5+1233.79C1978.06+1233.38+1976.8+1232.66+1976.49+1232.25C1976.19+1231.87+1978.46+1229.12+1978.35+1229.09C1978.35+1229.09+1979.18+1228.37+1979.41+1228.17C1979.87+1227.75+1981.18+1227.04+1981.43+1226.42C1983.5+1227.24+1986+1227.57+1988.16+1227.77L1988.18+1227.7C1985.91+1227.07+1983.57+1226.59+1981.33+1225.9C1981.32+1225.89+1981.32+1225.89+1981.32+1225.88C1978.8+1223.61+1974.13+1221.86+1972.94+1218.98C1972.3+1217.44+1970.86+1216.07+1970.28+1214.52C1969.6+1212.71+1968.9+1210.83+1968.26+1209.15C1967.25+1206.5+1966.79+1203.53+1965.77+1201.46C1964.94+1199.75+1965.78+1196.88+1965.57+1195.05C1965.45+1194.04+1965.44+1193.76+1965.14+1192.95C1963.93+1189.63+1963.55+1182.33+1961.26+1179.72C1961.93+1180.03+1962.75+1180.09+1963.21+1180.23C1966.28+1181.19+1969.34+1182.45+1972.47+1183.22C1982.76+1185.78+1994.35+1187.25+2004.75+1185.17C2007.63+1184.6+2016.02+1184.47+2017.71+1184.05C2021.6+1183.08+2025.48+1182.21+2029.28+1180.83C2029.82+1180.64+2030.46+1179.82+2030.9+1178.84ZM2042.3+1183.92C2039.99+1184.03+2037.69+1184.88+2035.92+1186.74C2033.8+1188.97+2033.18+1192.42+2033.68+1195.25C2033.64+1195.57+2033.77+1195.98+2033.9+1196.4C2033.9+1196.62+2033.93+1196.83+2034.04+1196.92C2034.05+1196.92+2034.05+1196.92+2034.06+1196.92C2034.06+1196.96+2034.1+1197.06+2034.1+1197.08C2034.1+1197.05+2034.09+1196.99+2034.09+1196.96C2034.13+1196.99+2034.16+1197.02+2034.18+1197.03C2034.18+1197.05+2034.18+1197.06+2034.19+1197.07C2034.17+1197.08+2034.15+1197.08+2034.1+1197.08C2034.1+1197.08+2034.1+1197.08+2034.1+1197.08C2033.42+1196.75+2031.08+1197.33+2030.2+1197.49C2029.97+1197.52+2029.77+1197.55+2029.53+1197.58C2028.59+1197.67+2026.58+1197.74+2026.42+1198.19C2026.34+1198.39+2026.51+1198.43+2026.7+1198.42C2026.72+1198.44+2026.74+1198.53+2026.74+1198.5C2026.7+1198.08+2026.82+1200.88+2026.87+1200.93C2027.03+1201.09+2026.42+1205.48+2026.27+1206.1C2025.9+1207.6+2024.74+1208.91+2024.25+1210.47C2024.1+1210.95+2023.93+1211.57+2023.84+1211.73C2023.75+1211.9+2023.57+1212.27+2023.69+1212.22C2023.51+1212.49+2023.52+1213.22+2023.59+1212.98C2023.6+1212.95+2023.62+1212.82+2023.64+1212.73C2023.64+1212.75+2023.63+1212.78+2023.66+1212.78C2023.67+1212.78+2023.68+1212.73+2023.69+1212.73C2023.69+1212.64+2023.66+1212.68+2023.68+1212.56C2023.7+1212.52+2023.71+1212.49+2023.74+1212.45C2023.72+1212.5+2023.73+1212.55+2023.74+1212.61C2023.74+1212.61+2023.74+1212.61+2023.74+1212.61C2023.72+1212.66+2023.7+1212.7+2023.69+1212.73C2023.69+1212.77+2023.69+1212.78+2023.69+1212.81C2023.69+1212.81+2023.69+1212.81+2023.69+1212.81C2023.58+1213.16+2023.48+1213.53+2023.72+1213.56C2024.24+1213.63+2025.53+1212.4+2026.03+1212.08C2028.33+1210.62+2030.77+1209.42+2033.32+1208.26C2041.82+1204.37+2046.96+1203.2+2051.03+1195.99C2051.75+1194.7+2052.92+1191.8+2052.02+1190.17C2051.69+1189.57+2051.87+1189.01+2051.47+1188.28C2050+1185.61+2046.14+1183.73+2042.3+1183.92ZM2043.67+1184.43C2046.59+1184.35+2049.37+1185.48+2050.81+1188.3C2051.4+1189.46+2051.63+1190.16+2051.34+1190.12C2051.08+1190.08+2051.41+1190.59+2051.48+1190.81C2051.61+1191.24+2051.7+1192.37+2051.49+1192.77C2051.45+1192.86+2051.23+1194.76+2051.1+1194.8C2050.81+1194.87+2049.73+1197.08+2049.44+1197.69C2047.02+1202.79+2040.34+1204.28+2035.48+1206.88C2032.7+1208.37+2029.73+1209.65+2027.07+1211.1C2026.38+1211.48+2024.44+1212.74+2024.07+1213.1C2024.11+1212.9+2024.08+1212.71+2024.05+1212.58C2024.07+1212.5+2024.09+1212.42+2024.12+1212.34C2024.13+1212.32+2024.09+1212.41+2024.09+1212.41C2024.13+1212.3+2024.17+1212.14+2024.2+1212.09C2024.21+1212.08+2024.21+1212.07+2024.21+1212.06C2024.21+1212.13+2024.23+1212.17+2024.27+1212.17C2024.28+1212.17+2024.29+1212.11+2024.29+1212.09C2024.31+1212.12+2024.32+1212.17+2024.36+1212.17C2024.87+1212.17+2024.52+1211.26+2024.67+1210.8C2024.57+1211.06+2024.46+1211.35+2024.38+1211.59C2024.44+1211.36+2024.52+1211.11+2024.6+1210.84C2024.76+1210.43+2024.84+1210.26+2024.97+1209.96C2024.97+1209.97+2024.98+1209.97+2024.99+1209.97C2025+1209.95+2025+1209.93+2025.01+1209.91C2025.01+1209.9+2025.01+1209.87+2025.01+1209.86C2025.05+1209.76+2025.13+1209.58+2025.14+1209.52C2025.14+1209.54+2025.14+1209.56+2025.13+1209.58C2025.09+1209.7+2025.06+1209.79+2025.01+1209.91C2025.01+1209.91+2025.01+1209.96+2025.01+1209.95C2025+1209.98+2025+1209.96+2024.99+1209.97C2024.88+1210.24+2024.8+1210.47+2024.7+1210.72C2024.79+1210.52+2025.16+1209.75+2025.19+1209.42C2025.2+1209.4+2025.21+1209.38+2025.21+1209.36C2025.22+1209.35+2025.22+1209.33+2025.23+1209.32C2025.23+1209.31+2025.22+1209.32+2025.22+1209.31C2025.21+1209.33+2025.21+1209.34+2025.2+1209.35C2025.21+1209.34+2025.21+1209.32+2025.21+1209.31C2025.21+1209.3+2025.2+1209.27+2025.18+1209.29C2025.21+1209.22+2025.25+1209.14+2025.28+1209.07C2025.41+1208.74+2025.53+1208.42+2025.67+1208.08C2025.65+1208.13+2025.65+1208.15+2025.64+1208.21C2025.47+1208.6+2025.3+1208.99+2025.28+1209.07C2025.26+1209.12+2025.24+1209.23+2025.21+1209.31C2025.22+1209.31+2025.22+1209.31+2025.22+1209.31C2025.23+1209.3+2025.24+1209.28+2025.25+1209.26C2025.24+1209.28+2025.23+1209.3+2025.23+1209.32C2025.23+1209.32+2025.23+1209.31+2025.23+1209.32C2025.23+1209.32+2025.21+1209.36+2025.21+1209.36C2025.45+1208.93+2025.81+1208.44+2025.9+1208.01C2026.02+1207.77+2026.1+1207.54+2026.21+1207.3C2026.39+1207.16+2026.61+1206.58+2026.81+1205.95C2026.92+1205.76+2027+1205.45+2027.06+1205.12C2027.05+1205.21+2027.06+1205.33+2027.04+1205.4C2027.01+1205.57+2027.06+1205.04+2027.11+1204.87C2027.13+1204.8+2027.14+1204.72+2027.15+1204.65C2027.14+1204.69+2027.11+1204.75+2027.1+1204.79C2027.11+1204.75+2027.11+1204.73+2027.11+1204.68C2027.12+1204.65+2027.14+1204.56+2027.14+1204.55C2027.16+1204.53+2027.17+1204.51+2027.18+1204.5C2027.21+1204.29+2027.25+1204.08+2027.28+1203.87C2027.4+1203.01+2027.57+1201.71+2027.45+1200.78C2027.46+1200.76+2027.46+1200.7+2027.47+1200.69C2027.8+1200.04+2027.43+1198.91+2027.28+1198.5C2027.71+1198.49+2028.27+1198.34+2028.51+1198.28C2029.77+1198.01+2033+1198.04+2034.07+1197.38C2034.19+1197.34+2034.28+1197.3+2034.28+1197.24C2034.29+1197.23+2034.31+1197.22+2034.31+1197.22C2034.32+1197.21+2034.3+1197.1+2034.3+1197.08C2034.34+1196.92+2034.32+1196.76+2034.25+1196.59C2034.2+1196.18+2034.14+1195.81+2034.02+1195.42C2034.79+1193.98+2033.4+1191.39+2034.31+1189.68C2035.95+1186.62+2039.92+1184.52+2043.67+1184.43ZM2027.18+1204.5C2027.17+1204.55+2027.16+1204.6+2027.15+1204.65C2027.17+1204.58+2027.23+1204.46+2027.23+1204.41C2027.23+1204.4+2027.19+1204.47+2027.18+1204.5ZM2024.7+1210.72C2024.7+1210.73+2024.67+1210.78+2024.67+1210.79C2024.67+1210.79+2024.67+1210.8+2024.67+1210.8C2024.68+1210.77+2024.69+1210.75+2024.7+1210.72ZM2027.06+1198.03C2027.08+1198.02+2027.03+1198.06+2027.04+1198.07C2027.03+1198.06+2027.02+1198.06+2027.01+1198.06C2027.02+1198.05+2027.02+1198.04+2027.06+1198.03ZM2027.37+1202.66C2027.39+1202.79+2027.39+1202.88+2027.33+1202.85C2027.36+1202.84+2027.36+1202.73+2027.37+1202.66ZM2027.21+1203.12C2027.28+1203.12+2027.25+1203.18+2027.19+1203.26C2027.2+1203.2+2027.2+1203.2+2027.2+1203.14C2027.2+1203.14+2027.21+1203.12+2027.21+1203.12ZM2027.07+1204.84C2027.07+1204.86+2027.08+1204.87+2027.07+1204.88C2027.07+1204.91+2027.06+1204.92+2027.05+1204.95C2027.06+1204.92+2027.07+1204.87+2027.07+1204.84ZM2025.18+1209.31C2025.19+1209.32+2025.19+1209.36+2025.19+1209.39C2025.11+1209.54+2025.07+1209.67+2025.01+1209.82C2025+1209.79+2025.01+1209.8+2025.01+1209.77C2025+1209.81+2024.97+1209.87+2024.97+1209.9C2024.86+1210.14+2024.73+1210.4+2024.67+1210.6C2024.77+1210.33+2024.9+1210.03+2025.01+1209.75C2025.01+1209.76+2025.01+1209.76+2025.01+1209.77C2025.01+1209.74+2025.02+1209.72+2025.02+1209.69C2025.07+1209.56+2025.13+1209.44+2025.18+1209.31ZM2023.82+1212.33C2023.82+1212.37+2023.8+1212.43+2023.78+1212.49C2023.77+1212.43+2023.79+1212.44+2023.78+1212.38C2023.76+1212.4+2023.76+1212.42+2023.74+1212.44C2023.76+1212.4+2023.76+1212.39+2023.78+1212.37C2023.78+1212.37+2023.78+1212.37+2023.78+1212.38C2023.78+1212.36+2023.79+1212.36+2023.8+1212.34C2023.81+1212.33+2023.81+1212.33+2023.82+1212.33ZM2023.71+1212.39C2023.7+1212.45+2023.68+1212.49+2023.68+1212.55C2023.69+1212.48+2023.7+1212.45+2023.71+1212.39ZM2024.02+1212.44C2024.02+1212.52+2024.04+1212.52+2024.05+1212.5C2024.05+1212.49+2024.05+1212.49+2024.05+1212.49C2024.05+1212.49+2024.06+1212.49+2024.06+1212.49C2024.06+1212.49+2024.06+1212.49+2024.05+1212.5C2024.05+1212.51+2024.05+1212.51+2024.05+1212.52C2024.04+1212.53+2024.04+1212.53+2024.03+1212.54C2024.03+1212.52+2024.02+1212.4+2024.02+1212.44ZM2009.85+1226.26C2008.96+1226.28+2007.93+1226.87+2006.94+1227.02C2003.7+1227.5+2000.25+1228.25+1997.01+1228.5C2000.13+1228.72+2007.62+1227.57+2010.41+1226.92L2009.85+1226.26Z" stroke="#000000" stroke-width="1" fill="#000000" opacity="1" stroke-linejoin="round"/>
</g>
<g id="L4" vectornator:layerName="L4">
<path d="M2031.23+1178.15L2026.56+1181.59L2014.35+1183.99L1995.53+1185.71L1975.44+1183.75L1961.15+1180.12L1961.04+1180.54C1961.04+1180.54+1962.73+1183.34+1964.08+1188.88C1965.02+1192.73+1965.01+1197.21+1965.82+1201.38C1966.65+1205.62+1968.29+1209.55+1968.85+1210.9C1970.75+1215.5+1972.87+1219.32+1972.87+1219.32L1977.46+1223.8L1981.6+1225.66L1976.77+1230.42L1976.89+1232.42C1976.89+1232.42+1981.61+1235.81+1991.14+1235.44C1995.31+1235.27+2000.16+1234.6+2005.35+1234.32C2011.82+1233.98+2015.04+1232.42+2015.04+1232.42L2010.79+1226.39L2015.11+1224.13L2019.29+1220.05C2019.29+1220.05+2023.44+1219.97+2025.72+1217.45C2028.72+1214.15+2032.42+1211+2035.37+1209.76C2040.69+1207.52+2049.51+1206.33+2049.51+1206.33C2049.51+1206.33+2049.56+1205.11+2050.35+1203.09C2051.1+1201.2+2052.54+1198.59+2053.99+1195.62C2056.98+1189.48+2054.03+1185.09+2051.16+1183.27C2048.29+1181.45+2043.54+1181.48+2043.54+1181.48L2038.67+1182.51L2034.22+1186.15L2031.44+1190.7L2028.14+1192.6L2029.15+1185.94L2031.39+1181.88L2031.23+1178.15ZM2041.37+1184.56C2052.09+1182.09+2051.81+1193.12+2051.81+1193.12C2051.81+1193.12+2050.49+1201.33+2039.33+1205.09C2034.61+1206.68+2023.78+1213.27+2023.78+1213.27C2023.78+1213.27+2026.33+1205.74+2027.22+1203.21L2027.14+1198.09L2034.23+1196.97C2034.23+1196.97+2033.34+1193.01+2034.37+1190.04C2035.51+1186.7+2037.1+1185.54+2041.37+1184.56Z" stroke="#000000" stroke-width="1" fill="#faceff" opacity="1" stroke-linejoin="round"/>
</g>
<g id="L5" vectornator:layerName="L5">
<path d="M2001.11+1168.81C1994.52+1168.23+1984.61+1168.09+1974.63+1169.72C1964.65+1171.35+1963.37+1172.54+1961.2+1175.34C1960.22+1176.6+1960.06+1178.19+1962.59+1179.58C1965.68+1181.27+1972.03+1182.72+1976.36+1183.49C1986.32+1185.26+2000.29+1185.29+2000.29+1185.29C2000.29+1185.29+2017.22+1183.69+2023.53+1182.05C2027.87+1180.93+2035.59+1177.61+2029.02+1174.69" stroke="#000000" stroke-width="1" fill="#c2c2c2" opacity="1" stroke-linejoin="round"/>
</g>
<g id="L6" vectornator:layerName="L6">
<path d="M1969.76+1181.72C1969.76+1181.72+1974.84+1179.95+1978.33+1179.36C1981.83+1178.78+1985.92+1179.03+1985.92+1179.03C1985.92+1179.03+1989.31+1179.3+1990.7+1179.62C1992.78+1180.11+1993.6+1180.71+1997.68+1180.68C2002.07+1180.65+2007.8+1178.97+2011.49+1178.74C2015.67+1178.49+2017.03+1178.82+2019.22+1179.51C2021.95+1180.37+2024.97+1181.65+2024.97+1181.65L2015.93+1183.37L1997.06+1185.51L1982.54+1184.61L1969.76+1181.72Z" stroke="#000000" stroke-width="1" fill="#d69c98" opacity="1" stroke-linejoin="round"/>
</g>
<g id="Layer 3" vectornator:layerName="Layer 3">
<path d="M2001.91+1156.9C1998.36+1156.13+1998.29+1150.58+1999.82+1148.21C2000.52+1147.13+2001.55+1146.29+2002.27+1145.2C2002.88+1144.27+2003.46+1143.41+2003.48+1142.29C2003.6+1137.22+1990.93+1130.84+1992.62+1124.08C1994.25+1117.58+2001.56+1114.04+2005.66+1112.74C2006.93+1112.34+2020.09+1116.98+2013.81+1121.67C2012.49+1122.66+2008.64+1122.53+2008.64+1122.53C2008.64+1122.53+2013.9+1121.23+2012.58+1119.98C2011.69+1119.13+2009.88+1119.65+2008.91+1119.96C2005.07+1121.15+1999.94+1126.26+1999.48+1127.26C1999.02+1128.25+1998.53+1129.38+1998.38+1129.9C1996.69+1135.66+2004.43+1137.15+2004.28+1142.36C2004.2+1145.23+2001.35+1146.77+2000.11+1149.1C1998.85+1151.47+1999.29+1155.29+2001.96+1156.59" fill-opacity="0.412916" fill="#ffffff" opacity="1"/>
</g>
<g id="Layer 7" vectornator:layerName="Layer 7">
<path d="M1987.96+1162.46C1985.84+1163.4+1982.39+1163.65+1980.27+1162.57C1978.24+1161.55+1974.49+1157.21+1975.46+1155.21C1976.73+1152.58+1981.73+1149.05+1984.04+1147.34C1988.76+1143.83+1993.58+1140.81+1989.75+1135.54C1987.88+1132.98+1984.42+1130+1980.96+1129.61C1978.7+1129.35+1976.11+1130.61+1975.34+1132.73C1973.84+1136.86+1979.49+1135.76+1981+1135.24C1981.11+1135.2+1983.67+1133.85+1983.67+1133.85C1983.67+1133.85+1982.25+1134.93+1981.32+1135.76C1979.71+1137.22+1970.57+1137.3+1969.44+1134.92C1968+1131.9+1977.57+1121.8+1980.32+1121.66C1984.07+1121.47+1990.18+1126.78+1992.38+1129.29C1997.12+1134.69+1993.81+1148.27+1988.48+1152.23C1986.29+1153.85+1980.21+1154.66+1978.71+1156.9C1977.4+1158.85+1978.46+1161.47+1980.77+1162.35C1983.12+1163.24+1985.6+1162.8+1987.95+1162.41" fill-opacity="0.412916" fill="#ffffff" opacity="1"/>
</g>
<g id="Layer 8" vectornator:layerName="Layer 8">
<path d="M2013.78+1161.85C2014.74+1160.34+2015.18+1161.72+2016.55+1159.55C2017.93+1157.38+2012.48+1156.6+2011.43+1156.08C2009.48+1155.1+2007.96+1155.53+2008.39+1153.18C2008.77+1151.1+2010.06+1145.35+2011.86+1144.36C2015.99+1142.11+2023.02+1144.58+2024.44+1139.51C2025.57+1135.5+2018.5+1134.12+2017.19+1134.02C2016.66+1133.97+2014.49+1133.88+2013.96+1135.78C2013.44+1137.68+2016.36+1137.26+2017.61+1137.17C2018.75+1137.08+2021.37+1136.7+2021.37+1136.7C2021.37+1136.7+2010.96+1141.74+2011.12+1135.88C2011.28+1130.26+2026.2+1128.47+2028.41+1133.34C2029.18+1135.05+2029.75+1141.28+2028.84+1142.93C2027.42+1145.51+2023.47+1145.35+2020.67+1146.49C2017.84+1147.63+2014.35+1144.29+2012.72+1147.07C2010.37+1151.09+2016.93+1156.37+2018.01+1159.28C2018.79+1161.39+2015.08+1161.13+2013.63+1161.95" fill-opacity="0.412916" fill="#ffffff" opacity="1"/>
</g>
</svg>
