<?xml version="1.0" encoding="UTF-8" standalone="no"?> <!-- Created with Vectornator Pro for iOS (http://vectornator.io/) --><!DOCTYPE svg PUBLIC "-//W3C//DTD SVG 1.1//EN" "http://www.w3.org/Graphics/SVG/1.1/DTD/svg11.dtd">
<svg height="100%" style="fill-rule:evenodd;clip-rule:evenodd;stroke-linecap:round;stroke-linejoin:round;" xmlns:xlink="http://www.w3.org/1999/xlink" xmlns="http://www.w3.org/2000/svg" xml:space="preserve" width="100%" xmlns:vectornator="http://vectornator.io" version="1.1" viewBox="0 0 3840 2160">
<metadata>
<vectornator:setting key="RulersVisible" value="1"/>
<vectornator:setting key="SnapToEdges" value="0"/>
<vectornator:setting key="Units" value="Pixels"/>
<vectornator:setting key="DynamicGuides" value="0"/>
<vectornator:setting key="SnapToPoints" value="0"/>
<vectornator:setting key="SnapToGrid" value="0"/>
<vectornator:setting key="ShowGrid" value="1"/>
<vectornator:setting key="GridSpacing" value="36"/>
</metadata>
<defs/>
<g id="Layer 1" vectornator:layerName="Layer 1">
<path d="M-39.3756-101.766L3957.6-101.766C3980.97-101.766+3999.91-82.8239+3999.91-59.4582L3999.91+2225.02C3999.91+2248.39+3980.97+2267.33+3957.6+2267.33L2234.83+2276.11L2050.79+2246L1744.62+2267.33L-39.3756+2267.33C-62.7413+2267.33-81.683+2248.39-81.683+2225.02L-81.683-59.4582C-81.683-82.8239-62.7413-101.766-39.3756-101.766Z" stroke="#000000" stroke-width="1" fill="#dc98e2" opacity="1" stroke-linejoin="round"/>
<path d="M3372.88-506.967L3372.88-506.967L3372.88-474.433L3372.88-474.433L3372.88-506.967Z" stroke="#000000" stroke-width="0" fill="#dc98e2" opacity="1" stroke-linejoin="round"/>
</g>
<g id="Layer 4" vectornator:layerName="Layer 4">
<path stroke="#000000" stroke-width="1" d="M2101.63+956.477L2071.35+980.608L1992.2+997.484L1870.12+1009.56L1739.87+995.799L1647.19+970.329L1646.46+973.257C1646.46+973.257+1657.47+992.944+1666.21+1031.86C1672.3+1058.97+1672.24+1090.41+1677.5+1119.74C1682.85+1149.56+1693.51+1177.12+1697.13+1186.64C1709.42+1218.98+1723.22+1245.84+1723.22+1245.84L1752.95+1277.29L1779.82+1290.41L1748.45+1323.86L1749.27+1337.9C1749.27+1337.9+1779.87+1361.75+1841.66+1359.12C1868.72+1357.96+1900.18+1353.22+1933.8+1351.29C1975.79+1348.89+1996.66+1337.9+1996.66+1337.9L1969.09+1295.54L1997.11+1279.66L2024.22+1250.94C2024.22+1250.94+2051.12+1250.37+2065.94+1232.69C2085.35+1209.52+2109.32+1187.37+2128.51+1178.62C2162.97+1162.91+2220.16+1154.51+2220.16+1154.51C2220.16+1154.51+2220.5+1145.95+2225.64+1131.77C2230.48+1118.44+2239.85+1100.12+2249.24+1079.23C2268.61+1036.11+2249.5+1005.22+2230.88+992.43C2212.25+979.642+2181.43+979.835+2181.43+979.835L2149.9+987.095L2121.03+1012.69L2102.99+1044.69L2081.6+1058.05L2088.15+1011.24L2102.66+982.643L2101.63+956.477ZM2167.4+1001.49C2236.92+984.149+2235.09+1061.7+2235.09+1061.7C2235.09+1061.7+2226.54+1119.36+2154.15+1145.81C2123.56+1156.98+2053.34+1203.28+2053.34+1203.28C2053.34+1203.28+2069.84+1150.4+2075.63+1132.57L2075.13+1096.62L2121.07+1088.73C2121.07+1088.73+2115.35+1060.89+2121.97+1040.01C2129.42+1016.52+2139.71+1008.4+2167.4+1001.49Z" fill="#ffffff" fill-opacity="0.61207" opacity="1" stroke-linejoin="round"/>
</g>
<g id="Layer 5" vectornator:layerName="Layer 5">
<path d="M1906.31+890.837C1863.56+886.732+1799.3+885.725+1734.6+897.192C1669.9+908.659+1661.56+917.003+1647.5+936.704C1641.17+945.577+1640.13+956.717+1656.55+966.479C1676.59+978.391+1717.76+988.563+1745.81+993.969C1810.4+1006.42+1900.97+1006.64+1900.97+1006.64C1900.97+1006.64+2010.76+995.387+2051.72+983.868C2079.84+975.962+2129.91+952.629+2087.28+932.132" stroke="#000000" stroke-width="1" fill="#c2c2c2" opacity="1" stroke-linejoin="round"/>
</g>
<g id="Layer 6" vectornator:layerName="Layer 6">
<path d="M1703.01+981.542C1703.01+981.542+1735.95+969.107+1758.63+964.984C1781.3+960.861+1807.79+962.606+1807.79+962.606C1807.79+962.606+1829.82+964.514+1838.82+966.786C1852.33+970.198+1857.64+974.428+1884.09+974.238C1912.55+974.033+1949.69+962.183+1973.64+960.601C2000.73+958.811+2009.57+961.182+2023.73+965.995C2041.46+972.024+2061.04+981.055+2061.04+981.055L2002.42+993.128L1880.07+1008.16L1785.88+1001.85L1703.01+981.542Z" stroke="#000000" stroke-width="1" fill="#d69c98" opacity="1" stroke-linejoin="round"/>
</g>
<g id="Layer 2" vectornator:layerName="Layer 2">
<path d="M1891.19+885.416C1884.94+885.446+1878.62+885.998+1872.09+887.301C1869.8+887.756+1869.43+887.924+1867.18+888.424C1836.63+889.379+1785.52+886.407+1777.57+888.625C1758.26+894.013+1739.67+892.716+1720.23+896.446C1697.56+900.796+1675.34+911.04+1654.43+928.093C1650.21+931.536+1637.74+949.754+1642.04+961.505C1642.23+962.019+1642.49+962.418+1642.73+962.869C1642.6+962.79+1642.5+962.663+1642.37+962.588C1646.31+973.85+1651.76+981.813+1655.49+993.272C1662.41+1014.47+1662.64+1040.71+1669.77+1061.54C1676.3+1080.64+1669.08+1105.67+1674.96+1126.32C1682.89+1154.16+1696.71+1185.06+1704.9+1217.61C1712.78+1248.96+1774.54+1297.73+1775.08+1294.22C1775.24+1293.14+1761.88+1310.09+1757.61+1311.26C1755.37+1311.88+1744.25+1330.57+1743.75+1336.49C1743.48+1339.75+1747.21+1341.05+1747.51+1342.07C1750.16+1350.82+1792.12+1354.55+1800.56+1358.55C1814.33+1365.08+1846.02+1364.77+1862.23+1362.04C1872.44+1360.33+1883.71+1362.75+1893.88+1360.76C1926.31+1354.43+1960.12+1352.13+1992.24+1345.6C2009.18+1342.15+1992.38+1322.29+1983.78+1313.23C1980.09+1309.35+1976.66+1305.75+1973.51+1301.52C1972.74+1300.47+1971.89+1298.07+1971.22+1296.54C1992.93+1288.3+2004.77+1267.66+2024.06+1255.83C2026.16+1254.54+2026.76+1249.52+2029.05+1250.46C2056.05+1261.49+2078.33+1212.84+2102.17+1198.19C2130.05+1181.07+2156.52+1168.44+2189.57+1163.86C2197.13+1162.81+2204.53+1159.1+2211.57+1157.2C2211.86+1157.13+2213.85+1156.03+2214.03+1156.2C2216.13+1158.31+2219.95+1154.39+2222.13+1152.35C2223.51+1151.05+2225.31+1134.62+2225.77+1134.34C2228.55+1132.6+2248.34+1095.28+2249.77+1089.18C2252.3+1078.37+2254.07+1062.53+2258.56+1053.6C2261.41+1047.94+2257.83+1036.07+2256.07+1031.1C2245.42+1000.98+2225.61+987.724+2194.36+978.993C2162.48+970.087+2127.1+1004.5+2110.72+1026.04C2104.76+1033.89+2097.76+1042.66+2093.42+1051.15C2092.38+1053.19+2090.29+1052.46+2086.88+1054.04C2085.64+1054.61+2081.47+1054.32+2082.83+1054.4C2083.17+1054.42+2082.78+1029.14+2089.17+1018.78C2095.27+1008.89+2102.84+985.329+2102.83+978.792C2102.83+978.76+2103.49+975.677+2103.56+975.664C2103.88+975.607+2103.77+971.422+2103.77+970.81C2103.74+965.806+2103.59+959.599+2101.15+957.053C2103.93+948.103+2104.12+938.198+2097.8+932.946C2084.08+921.549+2066.77+919.464+2051.99+919.389C2038.53+919.322+2024.71+915.221+2011.42+911.969C1989.97+906.719+1968.61+899.224+1947.09+894.401C1927.73+890.061+1909.91+885.325+1891.19+885.416ZM1642.37+962.588C1642.24+962.221+1642.08+961.919+1641.96+961.545L1641.96+962.307C1642.1+962.382+1642.23+962.508+1642.37+962.588ZM1886.36+890.39C1906.02+890.917+1926.19+896.074+1945.09+900.217C1966.56+904.923+1987.79+912.744+2009.21+917.825C2021.37+920.709+2033.64+922.362+2045.86+925.125C2053.71+926.901+2061.78+925.949+2069.62+927.933C2090.31+933.167+2102.68+944.97+2099.23+956.01C2098.28+955.824+2097.2+955.853+2095.79+956.451L2096.12+956.732C2096.48+956.813+2097.2+957.983+2097.88+959.018C2094.61+964.552+2087.08+969.69+2074.2+973.498C2054.32+979.378+2034.17+985.148+2013.96+989.823C2002.94+992.372+1942.84+993.852+1923.98+998.246C1856.9+1013.87+1787.43+1001.97+1720.97+986.373C1700.66+981.606+1680.87+973.411+1661.02+966.759C1657.29+965.511+1645.87+966.025+1643.47+959.7C1639.58+949.435+1654.66+932.592+1657.62+930.259C1677.58+914.511+1698.87+905.527+1720.44+900.979C1739.8+896.897+1758.43+898.781+1777.57+893.077C1784.57+890.993+1824.46+892.585+1854.91+891.673C1860.51+892.223+1859.45+892.879+1866.93+891.633C1873.3+890.573+1879.81+890.214+1886.36+890.39ZM2099.52+961.304C2099.61+961.414+2099.98+962.028+2099.97+961.906C2099.78+960.436+2099.92+964.877+2099.92+966.358C2099.93+969.916+2095.95+976.183+2099.47+977.027C2100.9+977.369+2087.2+1011.7+2083.77+1026.2C2081.55+1035.59+2078.81+1045.01+2078.7+1052.11C2078.69+1053.03+2079.55+1056.1+2080.17+1056.04C2081.61+1055.91+2085.53+1057.97+2088.43+1057.21C2090.55+1056.65+2096.43+1055.53+2094.44+1054.64C2093.7+1054.31+2093.83+1054.79+2094.89+1054.2C2097.03+1053+2100.21+1047.91+2102.5+1044.89C2107.07+1038.88+2112.56+1030.99+2116.49+1024.12C2129.46+1001.41+2165.42+975.931+2193.29+982.161C2252.09+995.306+2259.25+1028.86+2248.75+1080.15C2245.12+1097.88+2233.06+1112.04+2225.56+1127.68C2224.29+1130.33+2220.27+1141.85+2220.9+1142.48C2222.54+1144.12+2218.38+1149.69+2218.81+1150.38C2218.1+1150.5+2216.65+1150.9+2216.2+1151.55C2215.05+1153.17+2207.28+1155.81+2201.19+1157.2C2183.36+1161.27+2165.34+1165.75+2147.9+1170.16C2128.76+1174.99+2086.34+1200.29+2075.92+1216.48C2069.06+1227.14+2057.3+1243.59+2043.57+1248.25C2038.55+1249.95+2028.55+1246.85+2027.7+1247.37C2016.1+1254.51+2002.36+1274.73+1987.46+1284.43C1981.83+1288.1+1969.06+1290.91+1966.23+1295.62C1964.13+1299.13+1986.74+1323.54+1990.52+1327.07C1993.5+1329.84+1995.74+1337.14+1995.68+1337.26C1994.82+1338.86+1992.58+1340.56+1993.8+1340.34C1996.71+1339.83+1988.12+1342.15+1985.54+1343.55C1980.84+1346.1+1973.61+1347.11+1968.32+1347.84C1954.53+1349.76+1932.25+1345.99+1919.98+1352.46C1908.8+1358.35+1886.63+1356.81+1873.03+1357.11C1835.84+1357.92+1799.87+1358.04+1766.16+1347.56C1756.86+1344.67+1748.7+1339.6+1746.65+1336.73C1744.72+1334.03+1759.47+1314.74+1758.76+1314.51C1758.71+1314.5+1764.13+1309.42+1765.59+1308.02C1768.59+1305.12+1777.06+1300.1+1778.72+1295.74C1792.14+1301.5+1808.32+1303.84+1822.35+1305.21L1822.48+1304.77C1807.77+1300.31+1792.61+1296.9+1778.02+1292.05C1778+1292.03+1778.01+1292+1777.98+1291.97C1761.65+1275.98+1731.36+1263.7+1723.63+1243.44C1719.5+1232.63+1710.15+1223.01+1706.37+1212.07C1701.97+1199.34+1697.46+1186.17+1693.28+1174.33C1686.72+1155.71+1683.75+1134.86+1677.17+1120.3C1671.74+1108.29+1677.23+1088.08+1675.86+1075.22C1675.11+1068.13+1675.02+1066.2+1673.08+1060.46C1665.2+1037.16+1662.75+985.864+1647.89+967.481C1652.24+969.66+1657.55+970.074+1660.57+971.091C1680.47+977.8+1700.29+986.641+1720.6+992.109C1787.33+1010.07+1862.45+1020.4+1929.91+1005.83C1948.59+1001.79+2002.99+1000.89+2013.96+997.925C2039.22+991.099+2064.32+984.955+2089.01+975.303C2092.51+973.932+2096.63+968.198+2099.52+961.304ZM2173.42+997.002C2158.46+997.781+2143.56+1003.75+2132.07+1016.86C2118.33+1032.54+2114.27+1056.76+2117.55+1076.62C2117.3+1078.88+2118.08+1081.8+2118.94+1084.72C2118.95+1086.3+2119.12+1087.77+2119.88+1088.37C2119.93+1088.41+2119.92+1088.38+2119.96+1088.41C2120.01+1088.63+2120.25+1089.38+2120.25+1089.5C2120.25+1089.29+2120.21+1088.87+2120.21+1088.65C2120.48+1088.88+2120.66+1089.07+2120.74+1089.18C2120.77+1089.26+2120.79+1089.37+2120.82+1089.46C2120.73+1089.51+2120.59+1089.54+2120.25+1089.54C2120.24+1089.53+2120.26+1089.5+2120.25+1089.5C2115.81+1087.21+2100.69+1091.24+2094.98+1092.42C2093.44+1092.63+2092.16+1092.81+2090.64+1093.03C2084.52+1093.65+2071.46+1094.18+2070.44+1097.28C2069.96+1098.74+2071.04+1099.01+2072.28+1098.92C2072.36+1099.04+2072.54+1099.68+2072.52+1099.52C2072.27+1096.57+2073.01+1116.23+2073.34+1116.57C2074.38+1117.66+2070.44+1148.57+2069.46+1152.91C2067.07+1163.43+2059.55+1172.66+2056.37+1183.59C2055.38+1186.99+2054.3+1191.35+2053.71+1192.5C2053.13+1193.65+2051.97+1196.25+2052.77+1195.95C2051.58+1197.82+2051.65+1202.92+2052.12+1201.24C2052.17+1201.04+2052.31+1200.12+2052.4+1199.52C2052.45+1199.63+2052.38+1199.84+2052.57+1199.84C2052.59+1199.84+2052.69+1199.54+2052.73+1199.48C2052.72+1198.89+2052.56+1199.15+2052.65+1198.31C2052.79+1198.05+2052.89+1197.8+2053.06+1197.51C2052.96+1197.88+2053+1198.25+2053.1+1198.64C2053.09+1198.65+2053.1+1198.66+2053.1+1198.68C2052.95+1199.04+2052.82+1199.33+2052.73+1199.48C2052.73+1199.76+2052.75+1199.87+2052.77+1200.04C2052.77+1200.05+2052.77+1200.07+2052.77+1200.08C2052.05+1202.5+2051.36+1205.11+2052.93+1205.33C2056.33+1205.81+2064.65+1197.21+2067.94+1194.95C2082.86+1184.71+2098.64+1176.28+2115.18+1168.07C2170.29+1140.74+2203.66+1132.54+2230.02+1081.83C2234.73+1072.78+2242.29+1052.37+2236.48+1040.96C2234.33+1036.73+2235.48+1032.77+2232.88+1027.65C2223.37+1008.88+2198.34+995.704+2173.42+997.002ZM2182.33+1000.57C2201.24+1000.04+2219.27+1007.97+2228.59+1027.81C2232.42+1035.96+2233.95+1040.86+2232.02+1040.56C2230.36+1040.3+2232.51+1043.86+2232.96+1045.46C2233.82+1048.48+2234.39+1056.4+2233.05+1059.21C2232.73+1059.87+2231.32+1073.22+2230.47+1073.45C2228.61+1073.97+2221.62+1089.53+2219.75+1093.79C2204.03+1129.62+2160.7+1140.12+2129.17+1158.41C2111.18+1168.84+2091.92+1177.84+2074.65+1188.09C2070.18+1190.74+2057.59+1199.55+2055.18+1202.12C2055.49+1200.72+2055.25+1199.35+2055.06+1198.47C2055.22+1197.92+2055.36+1197.36+2055.55+1196.75C2055.6+1196.61+2055.35+1197.23+2055.35+1197.23C2055.59+1196.46+2055.88+1195.36+2056.08+1194.99C2056.11+1194.94+2056.1+1194.87+2056.12+1194.82C2056.13+1195.31+2056.25+1195.59+2056.53+1195.59C2056.57+1195.59+2056.61+1195.14+2056.66+1195.03C2056.77+1195.25+2056.81+1195.59+2057.06+1195.59C2060.41+1195.59+2058.14+1189.15+2059.11+1185.96C2058.46+1187.8+2057.75+1189.84+2057.19+1191.5C2057.58+1189.85+2058.1+1188.11+2058.62+1186.24C2059.71+1183.34+2060.2+1182.12+2061.03+1180.02C2061.06+1180.12+2061.1+1180.14+2061.15+1180.1C2061.21+1179.94+2061.26+1179.82+2061.32+1179.66C2061.31+1179.65+2061.28+1179.43+2061.28+1179.34C2061.56+1178.62+2062.05+1177.35+2062.18+1176.98C2062.12+1177.12+2062.15+1177.24+2062.09+1177.38C2061.81+1178.19+2061.6+1178.87+2061.32+1179.66C2061.32+1179.68+2061.32+1180.06+2061.32+1179.98C2061.24+1180.15+2061.21+1180.07+2061.15+1180.1C2060.49+1181.99+2059.93+1183.59+2059.31+1185.36C2059.85+1183.98+2062.28+1178.53+2062.46+1176.25C2062.51+1176.12+2062.58+1175.99+2062.63+1175.85C2062.66+1175.75+2062.67+1175.63+2062.71+1175.53C2062.7+1175.48+2062.68+1175.53+2062.67+1175.49C2062.63+1175.58+2062.59+1175.68+2062.54+1175.77C2062.57+1175.66+2062.6+1175.56+2062.63+1175.45C2062.57+1175.37+2062.53+1175.2+2062.42+1175.33C2062.61+1174.8+2062.84+1174.3+2063.04+1173.77C2063.89+1171.43+2064.68+1169.19+2065.57+1166.83C2065.45+1167.18+2065.48+1167.35+2065.37+1167.71C2064.26+1170.5+2063.17+1173.22+2063.04+1173.77C2062.94+1174.15+2062.77+1174.88+2062.63+1175.45C2062.64+1175.47+2062.66+1175.46+2062.67+1175.49C2062.72+1175.38+2062.78+1175.25+2062.83+1175.13C2062.78+1175.26+2062.75+1175.4+2062.71+1175.53C2062.71+1175.56+2062.75+1175.5+2062.75+1175.53C2062.75+1175.55+2062.63+1175.83+2062.63+1175.85C2064.18+1172.81+2066.52+1169.37+2067.08+1166.35C2067.88+1164.66+2068.39+1163.05+2069.09+1161.37C2070.22+1160.37+2071.71+1156.27+2072.97+1151.87C2073.68+1150.52+2074.22+1148.37+2074.61+1146.01C2074.56+1146.63+2074.58+1147.49+2074.49+1147.98C2074.25+1149.2+2074.62+1145.46+2074.94+1144.25C2075.07+1143.74+2075.09+1143.23+2075.18+1142.72C2075.12+1143.01+2074.95+1143.39+2074.85+1143.72C2074.9+1143.39+2074.9+1143.25+2074.94+1142.92C2074.96+1142.75+2075.14+1142.1+2075.14+1142C2075.23+1141.86+2075.28+1141.73+2075.35+1141.64C2075.56+1140.17+2075.81+1138.73+2076+1137.23C2076.78+1131.22+2077.93+1122.09+2077.14+1115.49C2077.19+1115.36+2077.22+1114.98+2077.27+1114.89C2079.37+1110.32+2076.99+1102.36+2076.04+1099.48C2078.78+1099.41+2082.44+1098.34+2084.02+1097.96C2092.17+1096.01+2113.13+1096.22+2120.09+1091.58C2120.81+1091.32+2121.4+1091.05+2121.4+1090.62C2121.46+1090.56+2121.59+1090.52+2121.64+1090.46C2121.68+1090.41+2121.54+1089.63+2121.56+1089.5C2121.82+1088.39+2121.67+1087.24+2121.19+1086.05C2120.88+1083.21+2120.52+1080.56+2119.76+1077.82C2124.72+1067.71+2115.7+1049.53+2121.64+1037.47C2132.22+1015.98+2158.02+1001.26+2182.33+1000.57ZM2075.35+1141.64C2075.29+1142+2075.25+1142.36+2075.18+1142.72C2075.28+1142.25+2075.68+1141.35+2075.67+1141.04C2075.67+1140.98+2075.45+1141.49+2075.35+1141.64ZM2059.31+1185.36C2059.28+1185.43+2059.12+1185.79+2059.11+1185.84C2059.1+1185.87+2059.12+1185.93+2059.11+1185.96C2059.18+1185.76+2059.24+1185.56+2059.31+1185.36ZM2074.57+1096.15C2074.7+1096.08+2074.41+1096.4+2074.45+1096.44C2074.37+1096.43+2074.35+1096.43+2074.24+1096.39C2074.36+1096.31+2074.35+1096.27+2074.57+1096.15ZM2076.61+1128.76C2076.74+1129.67+2076.76+1130.3+2076.37+1130.09C2076.53+1129.98+2076.52+1129.21+2076.61+1128.76ZM2075.55+1131.97C2076.03+1131.97+2075.81+1132.4+2075.47+1132.94C2075.48+1132.53+2075.49+1132.51+2075.51+1132.09C2075.51+1132.09+2075.55+1131.97+2075.55+1131.97ZM2074.69+1144.09C2074.69+1144.19+2074.69+1144.27+2074.69+1144.37C2074.64+1144.52+2074.58+1144.64+2074.53+1144.81C2074.57+1144.58+2074.66+1144.28+2074.69+1144.09ZM2062.38+1175.45C2062.46+1175.55+2062.46+1175.81+2062.46+1176.01C2061.95+1177.11+2061.72+1177.98+2061.28+1179.02C2061.27+1178.87+2061.28+1178.9+2061.28+1178.7C2061.21+1179.02+2061.04+1179.37+2061.03+1179.62C2060.33+1181.3+2059.46+1183.11+2059.07+1184.56C2059.76+1182.65+2060.56+1180.53+2061.28+1178.54C2061.28+1178.65+2061.27+1178.6+2061.28+1178.7C2061.32+1178.51+2061.34+1178.34+2061.4+1178.14C2061.72+1177.25+2062.05+1176.35+2062.38+1175.45ZM2053.59+1196.67C2053.58+1196.96+2053.44+1197.42+2053.34+1197.83C2053.27+1197.43+2053.37+1197.44+2053.3+1197.03C2053.21+1197.19+2053.19+1197.31+2053.1+1197.47C2053.17+1197.22+2053.19+1197.15+2053.3+1196.95C2053.31+1196.99+2053.3+1196.99+2053.3+1197.03C2053.35+1196.94+2053.42+1196.88+2053.47+1196.79C2053.51+1196.73+2053.55+1196.71+2053.59+1196.67ZM2052.89+1197.11C2052.82+1197.51+2052.69+1197.83+2052.65+1198.23C2052.73+1197.78+2052.78+1197.57+2052.89+1197.11ZM2054.86+1197.47C2054.87+1198.01+2054.99+1198.06+2055.1+1197.87C2055.11+1197.83+2055.1+1197.83+2055.1+1197.79C2055.1+1197.79+2055.14+1197.8+2055.14+1197.79C2055.13+1197.82+2055.11+1197.85+2055.1+1197.87C2055.09+1197.96+2055.08+1197.95+2055.06+1198.03C2055.04+1198.1+2055.01+1198.12+2054.98+1198.19C2054.93+1198.05+2054.85+1197.19+2054.86+1197.47ZM1963+1294.58C1957.26+1294.74+1950.57+1298.91+1944.11+1299.95C1923.13+1303.33+1900.72+1308.57+1879.73+1310.34C1899.99+1311.88+1948.52+1303.83+1966.6+1299.27L1963+1294.58Z" stroke="#000000" stroke-width="1" fill="#000000" opacity="1" stroke-linejoin="round"/>
</g>
<g id="Layer 3" vectornator:layerName="Layer 3">
<path d="M1821.07+846.191C1807.28+852.788+1784.91+854.514+1771.17+846.974C1757.99+839.746+1750.06+823.159+1756.32+809.072C1764.53+790.594+1785.85+783.252+1800.8+771.201C1831.4+746.528+1857.5+693.965+1832.63+656.98C1820.52+638.979+1798.1+618.045+1775.65+615.244C1761.01+613.415+1744.21+622.323+1739.22+637.192C1729.48+666.219+1766.15+658.518+1775.94+654.833C1776.65+654.566+1793.21+645.072+1793.21+645.072C1793.21+645.072+1783.99+652.641+1777.99+658.527C1767.54+668.78+1738.51+668.204+1731.16+651.481C1721.83+630.238+1760.85+601.417+1778.71+600.433C1803.01+599.094+1827.68+613.536+1841.93+631.136C1872.66+669.102+1841.43+743.215+1806.88+770.993C1792.7+782.394+1770.82+791.313+1761.05+807.096C1752.57+820.796+1759.47+839.222+1774.45+845.377C1789.68+851.63+1805.74+848.526+1820.98+845.804" fill-opacity="0.412916" fill="#ffffff" opacity="1"/>
</g>
<g id="Layer 7">
<path d="M1911.52+807.087C1888.46+801.702+1888.04+762.7+1897.94+746.024C1902.47+738.391+1909.18+732.509+1913.82+724.831C1917.77+718.299+1921.55+712.266+1921.71+704.412C1922.46+668.727+1865.15+656.272+1876.12+608.809C1886.68+563.12+1933.85+538.516+1960.39+529.417C1968.64+526.59+2029.39+526.463+1988.65+559.478C1980.09+566.416+1955.12+565.483+1955.12+565.483C1955.12+565.483+1989.24+556.4+1980.7+547.596C1974.91+541.633+1963.19+545.278+1956.88+547.415C1932.02+555.833+1908.63+575.359+1895.75+598.72C1893.97+601.943+1889.61+613.667+1888.63+617.289C1877.63+657.786+1927.84+668.249+1926.9+704.874C1926.38+725.056+1907.87+735.883+1899.84+752.254C1891.66+768.935+1894.55+795.77+1911.84+804.888" fill-opacity="0.412916" fill="#ffffff" opacity="1"/>
</g>
<g id="Layer 8">
<path d="M1968.49+865.806C1974.69+855.234+1995.25+852.89+1997.81+839.626C1999.74+829.66+1987.75+822.878+1980.92+819.18C1968.3+812.348+1950.74+797.48+1953.51+780.942C1955.97+766.288+1970.28+755.702+1981.96+748.781C2008.7+732.935+2048.37+720.517+2057.61+684.876C2064.93+656.679+2019.11+646.996+2010.57+646.24C2007.18+645.939+1993.06+645.259+1989.67+658.613C1986.27+671.968+2005.2+669.063+2013.32+668.408C2020.73+667.809+2037.68+665.089+2037.68+665.089C2037.68+665.089+1970.17+700.533+1971.24+659.359C1972.27+619.85+2050.8+625.02+2065.09+659.226C2070.09+671.217+2072.41+689.142+2066.55+700.719C2057.35+718.893+2051.33+725.936+2033.17+733.89C2014.78+741.947+1974.07+754.83+1963.5+774.382C1948.26+802.585+1993.75+812.327+2000.72+832.736C2005.81+847.613+1977.95+860.069+1968.49+865.806" fill-opacity="0.412916" fill="#ffffff" opacity="1"/>
</g>
</svg>
