<?xml version="1.0" encoding="UTF-8" standalone="no"?> <!-- Created with Vectornator Pro for iOS (http://vectornator.io/) --><!DOCTYPE svg PUBLIC "-//W3C//DTD SVG 1.1//EN" "http://www.w3.org/Graphics/SVG/1.1/DTD/svg11.dtd">
<svg height="100%" style="fill-rule:evenodd;clip-rule:evenodd;stroke-linecap:round;stroke-linejoin:round;" xmlns:xlink="http://www.w3.org/1999/xlink" xmlns="http://www.w3.org/2000/svg" xml:space="preserve" width="100%" xmlns:vectornator="http://vectornator.io" version="1.1" viewBox="0 0 3840 2160">
<metadata>
<vectornator:setting key="RulersVisible" value="1"/>
<vectornator:setting key="SnapToEdges" value="0"/>
<vectornator:setting key="Units" value="Pixels"/>
<vectornator:setting key="DynamicGuides" value="0"/>
<vectornator:setting key="SnapToPoints" value="0"/>
<vectornator:setting key="CMYKEnabledKey" value="0"/>
<vectornator:setting key="SnapToGrid" value="0"/>
<vectornator:setting key="ShowGrid" value="1"/>
<vectornator:setting key="GridSpacing" value="36"/>
</metadata>
<defs/>
<g id="Layer 1" vectornator:layerName="Layer 1">
<path d="M-514.622-554.543L4751.9-554.543L4742.93+2701.37L-520.166+2700.68L-514.622-554.543Z" stroke="#8f4620" stroke-width="0.48" fill="#850000" opacity="1" stroke-linejoin="round"/>
</g>
<g id="Layer 2" vectornator:layerName="Layer 2">
<path d="M1817.1+782.864C1799.82+789.37+1765.23+832.968+1780.73+812.641C1796.23+792.313+1752.38+829.921+1734.57+845.441C1686.8+887.045+1698.7+892.438+1679.5+943.17C1673.85+958.119+1658.72+963.082+1652.83+996.262C1649.31+1016.04+1580.24+1058.98+1619.94+1067.8C1659.65+1076.63+1628.09+1084.9+1633.1+1092.22C1639.36+1101.36+1629.34+1152.6+1635.04+1178.04C1640.64+1203.01+1661.94+1202.12+1669.12+1218.43C1675.63+1233.22+1685.84+1226.98+1694.15+1240.32C1701+1251.3+1795.69+1324.01+1805.24+1331.41C1830.52+1350.99+1765.58+1310.39+1796.71+1319.77C1815.55+1325.45+1848+1301.38+1867.01+1303.84C1888.92+1306.66+1950.83+1307.15+1935.39+1319.28C1919.95+1331.41+1996.05+1324.79+1996.05+1324.79C1996.05+1324.79+2036.15+1334.12+2052.3+1330.31C2068.66+1326.45+2063.11+1338.82+2079.88+1334.72C2104.03+1328.81+2135.61+1316.01+2155.98+1298.32C2173.62+1283.01+2230.88+1202.67+2222.16+1228.84C2216.64+1245.38+2204.31+1179.46+2203.09+1166.01C2202.24+1156.55+2216.74+1143.18+2223.21+1128.23C2229.68+1113.28+2184.42+1115.62+2182.29+1089.55C2179.62+1056.88+2191.11+1034.02+2191.11+1034.02C2190.76+1021.63+2178.38+951.412+2175.96+939.241C2171.09+914.729+2149.82+883.883+2134.42+866.117C2123.14+853.107+2127.66+852.398+2114.05+844.492C2103.1+838.133+2097.93+807.345+2087.48+799.903C2067.69+785.798+2023.13+778.364+2023.13+778.364C2023.13+778.364+1948.75+763.914+1957.51+751.519C1966.27+739.123+1864.36+761.086+1856.99+764.133C1847.85+767.914+1811.86+798.683+1856+764.801C1874.12+750.893+1818.97+777.209+1815.29+779.604C1811.75+781.906+1810.4+790.287+1806.09+790.962C1806.09+790.962+1832.01+826.386+1805.43+789.841C1794.21+774.418+1809.9+779.133+1815.1+776.755C1819.53+774.729+1834.99+756.048+1839.87+753.416C1873.68+735.189+1874.78+759.356+1911.63+758.348C1924.4+757.999+1917.5+774.422+1938.7+777.727C1959.89+781.032+1983.94+753.44+1999.36+743.535C2014.78+733.63+2046.14+788.798+2066.39+802.723C2076.04+809.359+2072.45+895.791+2092.16+838.965C2111.86+782.139+2122.69+932.928+2138.02+907.743C2153.35+882.557+2175.78+919.669+2178.86+939.041C2183.87+970.448+2187.62+1019.12+2201.02+1020.13C2214.41+1021.15+2183.64+1088.61+2189.09+1107.47C2192.52+1119.32+2251.33+1113.85+2255.25+1125.16C2258.53+1134.63+2206.01+1165.31+2206.01+1165.31C2206.01+1165.31+2216.28+1264.13+2181.35+1297.22C2168.13+1309.74+2133.28+1257.93+2139.11+1286.4C2144.95+1314.87+2114.07+1303.63+2095.32+1308.25C2019.21+1327+2048.31+1315.44+2031.89+1319.65C2015.72+1323.79+1946.44+1326.74+1923.26+1354.57C1900.08+1382.41+1938.92+1337.31+1916.11+1339.83C1893+1342.4+1843.33+1354.92+1871.71+1336.55C1900.09+1318.18+1841.08+1317.44+1821.78+1311.56C1790.23+1301.93+1745.82+1288.81+1720.22+1268.98C1711.28+1262.06+1678.28+1277.48+1702.05+1266.39C1725.83+1255.31+1652.52+1251.45+1656.34+1191.34C1658.55+1156.52+1623.42+1144.29+1623.31+1106.04C1623.21+1074.08+1677.3+967.435+1648.62+972.95C1619.94+978.465+1684.45+989.924+1672.88+971.847C1661.32+953.77+1680.26+906.358+1728.03+864.86C1745.62+849.582+1840.73+717.821+1779.97+809.539C1719.21+901.258+1806.45+793.483+1817.53+781.995" opacity="1" fill="#c2c2c2"/>
</g>
<g id="Layer 3" vectornator:layerName="Layer 3">
<path d="M2013.5+901.906C2008.13+900.848+2004.11+896.811+1999.05+894.968C1985.2+889.916+1949.55+869.245+1953.53+887.481C1957.51+905.716+1905.84+874.008+1890.48+875.36C1881.79+876.125+1895.21+885.587+1887.16+889.217C1870.99+896.501+1877.84+914.483+1863.23+924.659C1847.5+935.617+1752.55+938.805+1778.17+945.288C1803.79+951.771+1782.81+962.488+1781.4+971.589C1780+980.689+1757.12+1004.04+1752.36+1011.71C1735.75+1038.42+1756.1+1009.32+1752.47+1017.65C1748.95+1025.71+1748.66+1033.96+1745.72+1042.05C1742.81+1050.07+1740.6+1057.58+1738.18+1065.7C1735.09+1076.12+1742.61+1074.64+1734.21+1082.47C1728.96+1087.36+1732.92+1057.29+1759.61+1122.97C1786.3+1188.65+1758.11+1123.44+1762.58+1128.41C1768.39+1134.87+1771.44+1142.82+1777.26+1149.28C1786.01+1159.01+1797.99+1165.68+1806.45+1175.44C1816.89+1187.5+1824.55+1174.64+1835.43+1189.03C1840.84+1196.2+1827.69+1184.46+1833.79+1206.7C1839.89+1228.93+1842.26+1218.93+1848.61+1224.27C1856.6+1231+1897.83+1210.26+1906.7+1215.72C1917.7+1222.5+1892.5+1249.79+1905.59+1251.28C1908.12+1251.56+1924.53+1215.95+1927.13+1215.72C1935.27+1215.01+1917.73+1249.25+1925.52+1244.6C1933.31+1239.95+1952.58+1230.93+1957.17+1227.74C1966.99+1220.89+1991.32+1184.31+1971.24+1194.01C1951.16+1203.71+2004.96+1160.47+2008.83+1164.06C2012.7+1167.65+2049.07+1194.28+2057.22+1190C2067.23+1184.76+2039.06+1182.85+2049.37+1179.51C2055.14+1177.65+2066.81+1149.78+2049.68+1174.87C2032.55+1199.97+2063.22+1150.84+2070.1+1146.04C2088.14+1133.48+2130.48+1115.55+2108.7+1116.38C2086.92+1117.2+2085.93+1092.3+2084.52+1082.36C2083.3+1073.78+2056.47+1046.33+2054.48+1037.91C2052.68+1030.24+2078.75+1021.73+2077.31+1013.88C2075.63+1004.72+2137.31+1022.87+2095.33+1015.08C2053.36+1007.29+2075.59+970.716+2068.9+963.418C2063.13+957.112+2093.2+984.652+2088.92+977.364C2085.82+972.076+2091.71+976.039+2089.73+970.152C2088.71+967.118+2067.42+965.294+2066.5+962.217C2062.85+950.039+2062.98+928.355+2052.68+923.907C2042.39+919.458+2039.34+903.424+2025.78+901.645C2021.8+901.122+2017.41+902.678+2013.5+901.906Z" stroke="#000000" stroke-width="1" fill="#ea4d4d" opacity="1" stroke-linejoin="round"/>
</g>
<g id="Layer 4" vectornator:layerName="Layer 4">
<path d="M1821.4+938.187C1816.74+941.597+1821.33+930.032+1817.8+934.583C1803.52+952.95+1737.9+1027.11+1734.98+1053.02C1733.82+1063.3+1748.42+1096.14+1751.11+1108.67C1754.67+1125.21+1808.59+1170.24+1802.18+1184.49C1795.77+1198.73+1805.51+1189.48+1809.39+1194.1C1822.04+1209.19+1813.99+1252.14+1838.22+1222.93C1862.45+1193.73+1848.46+1274.99+1858.45+1271.16C1863.26+1269.32+1875.27+1239.46+1880.74+1239.73C1894.27+1240.41+1894.07+1257.74+1908.05+1252.79C1919.19+1248.84+1926.35+1235.65+1938.12+1234.37C1961.69+1231.83+2015.47+1173.97+2011.23+1162.86C2006.99+1151.75+2027.53+1246.75+2038.61+1218.02C2049.68+1189.29+2057.21+1177.08+2058.09+1173.67C2063.31+1153.46+2077.66+1137.72+2059.95+1129.39C2042.25+1121.05+2058.99+1099.37+2071.99+1096.57C2084.99+1093.77+2067.8+926.997+2011.14+912.429C1998.85+909.27+1954.09+917.361+1956.67+901.316C1959.25+885.271+1801.11+943.011+1837.02+922.568C1872.93+902.126+1800.42+912.635+1803.38+929.777L1765.78+979.909C1765.78+979.909+1791.25+956.642+1788.52+944.18C1785.78+931.718+1827.27+916.082+1837.02+912.957C1865.59+903.797+1876.63+918.366+1905.5+908.151C1917.87+903.776+1965.49+858.152+1958.32+877.144C1951.16+896.136+2011.04+923.541+2026.83+932.887C2069.31+958.023+2067.03+949.953+2074+998.138C2076.77+1017.31+2064.21+1057.58+2062.93+1076.52C2062.22+1087.13+2074.76+1123.21+2076.89+1133.09C2080.86+1151.52+2074.59+1171.45+2065.53+1190.1C2060.43+1200.6+2006.73+1261.99+2018.44+1207.31C2030.15+1152.63+1927.37+1212.67+1937.46+1239.05C1947.56+1265.44+1906.43+1232.92+1910.77+1247.33C1915.11+1261.74+1895.69+1251.94+1884.41+1254.38C1857.53+1260.19+1832.46+1215.77+1843.03+1221.73C1853.6+1227.69+1817.03+1196.58+1806.98+1179.68C1806.68+1179.17+1775.3+1236.89+1798.95+1212.49C1822.6+1188.09+1803.7+1191.01+1799.78+1185.69C1793.34+1176.97+1754.05+1092.83+1753.52+1082.01C1752.5+1061.01+1733.3+1075.22+1730.21+1053.8C1727.66+1036.15+1809.92+964.734+1820.2+953.806C1824.63+949.095+1782.73+965.832+1787.95+963.779" stroke="#000000" stroke-width="1" fill="#000000" opacity="1" stroke-linejoin="round"/>
</g>
</svg>
