<?xml version="1.0" encoding="UTF-8" standalone="no"?> <!-- Created with Vectornator Pro for iOS (http://vectornator.io/) --><!DOCTYPE svg PUBLIC "-//W3C//DTD SVG 1.1//EN" "http://www.w3.org/Graphics/SVG/1.1/DTD/svg11.dtd">
<svg height="100%" style="fill-rule:evenodd;clip-rule:evenodd;stroke-linecap:round;stroke-linejoin:round;" xmlns:xlink="http://www.w3.org/1999/xlink" xmlns="http://www.w3.org/2000/svg" xml:space="preserve" width="100%" xmlns:vectornator="http://vectornator.io" version="1.1" viewBox="0 0 3840 2160">
<metadata>
<vectornator:setting key="RulersVisible" value="1"/>
<vectornator:setting key="SnapToEdges" value="0"/>
<vectornator:setting key="Units" value="Pixels"/>
<vectornator:setting key="DynamicGuides" value="0"/>
<vectornator:setting key="SnapToPoints" value="0"/>
<vectornator:setting key="CMYKEnabledKey" value="0"/>
<vectornator:setting key="SnapToGrid" value="0"/>
<vectornator:setting key="ShowGrid" value="1"/>
<vectornator:setting key="GridSpacing" value="36"/>
</metadata>
<defs/>
<g id="Layer 1" vectornator:layerName="Layer 1">
<path d="M-514.622-554.543L4751.9-554.543L4742.93+2701.37L-520.166+2700.68L-514.622-554.543Z" stroke="#8f4620" stroke-width="0.48" fill="#850000" opacity="1" stroke-linejoin="round"/>
</g>
<g id="Layer 2" vectornator:layerName="Layer 2">
<path d="M1817.1+782.864C1799.82+789.37+1765.23+832.968+1780.73+812.641C1796.23+792.313+1752.38+829.921+1734.57+845.441C1686.8+887.045+1713.92+882.938+1694.72+933.671C1689.06+948.619+1658.72+963.082+1652.83+996.262C1646.93+1029.44+1620.7+1074.1+1633.1+1092.22C1645.5+1110.33+1654.63+1185.51+1669.12+1218.43C1675.63+1233.22+1685.84+1226.98+1694.15+1240.32C1701+1251.3+1724.71+1262.58+1734.27+1269.97C1759.55+1289.55+1765.58+1310.39+1796.71+1319.77C1815.55+1325.45+1834.83+1319.28+1853.83+1321.73C1875.75+1324.56+1893.02+1338.4+1916.09+1335.71C1938.7+1333.08+1985.98+1308.48+2008.45+1305.05C2024.79+1302.56+2015.24+1319.63+2031.39+1315.81C2047.75+1311.95+2062.76+1300.82+2079.53+1296.72C2103.68+1290.81+2131.08+1290.81+2151.45+1273.12C2169.09+1257.81+2202.74+1233.48+2207.39+1206.29C2209.75+1192.45+2204.31+1179.46+2203.09+1166.01C2202.24+1156.55+2216.74+1143.18+2223.21+1128.23C2229.68+1113.28+2184.42+1115.62+2182.29+1089.55C2179.62+1056.88+2192.04+1066.73+2191.11+1034.02C2190.76+1021.63+2178.38+951.412+2175.96+939.241C2171.09+914.729+2149.82+883.883+2134.42+866.117C2123.14+853.107+2127.66+852.398+2114.05+844.492C2103.1+838.133+2097.93+807.345+2087.48+799.903C2067.69+785.798+2023.13+778.364+2023.13+778.364C2023.13+778.364+1979.85+752.498+1957.51+751.519C1948.44+751.121+1864.36+761.086+1856.99+764.133C1847.85+767.914+1887.31+757.211+1856+764.801C1850.95+766.024+1818.97+777.209+1815.29+779.604C1811.75+781.906+1810.4+790.287+1806.09+790.962L1805.43+789.841C1809.7+786.654+1809.9+779.133+1815.1+776.755C1819.53+774.729+1834.99+756.048+1839.87+753.416C1873.68+735.189+1874.78+759.356+1911.63+758.348C1924.4+757.999+1928.4+751.549+1949.6+754.854C1970.79+758.16+1987.99+788.365+2003.41+778.46C2018.83+768.555+2046.14+788.798+2066.39+802.723C2076.04+809.359+2073.11+848.617+2092.16+838.965C2111.2+829.313+2115.58+871.843+2138.02+907.743C2148.1+923.875+2175.78+919.669+2178.86+939.041C2183.87+970.448+2187.62+1019.12+2201.02+1020.13C2214.41+1021.15+2183.64+1088.61+2189.09+1107.47C2192.52+1119.32+2230.03+1112.63+2233.95+1123.94C2237.23+1133.41+2205.63+1155.53+2206.01+1165.31C2207.72+1209.21+2217.79+1215.74+2182.86+1248.83C2169.65+1261.35+2154.67+1278.23+2139.11+1286.4C2121.75+1295.52+2099.02+1295.94+2080.31+1300.73C2063.45+1305.03+2048.31+1315.44+2031.89+1319.65C2015.72+1323.79+1999.21+1319.96+1982.83+1322.33C1960.17+1325.6+1938.92+1337.31+1916.11+1339.83C1893+1342.4+1893.63+1339.18+1871.71+1336.55C1852.25+1334.21+1814.72+1329.53+1795.42+1323.65C1763.87+1314.02+1745.82+1288.81+1720.22+1268.98C1711.28+1262.06+1709.14+1275.91+1702.05+1266.39C1690.88+1251.39+1696.1+1211.37+1687.74+1194.09C1672.52+1162.69+1623.42+1144.29+1623.31+1106.04C1623.21+1074.08+1622.47+1041.65+1635.9+1013.36C1642.57+999.315+1668.52+985.953+1656.95+967.876C1645.39+949.799+1690.08+874.073+1737.85+832.576C1755.43+817.298+1759.21+818.137+1779.97+809.539C1793.66+803.872+1806.45+793.483+1817.53+781.995" opacity="1" fill="#c2c2c2"/>
</g>
<g id="Layer 3" vectornator:layerName="Layer 3">
<path d="M1881.65+893.525C1877.04+896.464+1871.34+896.323+1866.41+898.482C1852.9+904.399+1812.85+914.071+1828.32+924.509C1843.8+934.946+1784.53+947.702+1774.36+959.285C1768.59+965.846+1784.84+963.415+1781.52+971.603C1774.86+988.036+1792.23+996.311+1788.7+1013.76C1784.89+1032.55+1718.42+1100.43+1741.43+1087.43C1764.43+1074.42+1756.66+1096.66+1761.93+1104.21C1767.2+1111.77+1766.78+1144.46+1768.63+1153.29C1775.07+1184.07+1769.69+1148.97+1772.81+1157.5C1775.84+1165.77+1781.33+1171.94+1784.79+1179.81C1788.22+1187.62+1791.81+1194.59+1795.67+1202.12C1800.63+1211.79+1805.05+1205.53+1804.38+1216.99C1803.96+1224.16+1786.06+1199.68+1850.72+1228.74C1915.38+1257.8+1849.96+1230.12+1856.62+1230.63C1865.29+1231.28+1872.98+1234.92+1881.65+1235.58C1894.7+1236.57+1907.97+1233.12+1920.83+1234.34C1936.71+1235.85+1933.37+1221.26+1951.18+1224.16C1960.04+1225.6+1942.42+1226.19+1962.19+1238.06C1981.96+1249.93+1976.77+1241.06+1985.05+1240.54C1995.47+1239.88+2032.62+1223.47+2042.81+1221.29C2055.44+1218.6+2034.41+1228.68+2044.91+1220.71C2046.93+1219.17+2049.72+1218.95+2051.44+1216.99C2056.83+1210.85+2052.28+1210.87+2054.7+1202.12C2057.13+1193.38+2075.34+1186.68+2076.45+1181.21C2078.83+1169.47+2048.26+1145.12+2052.83+1133.96C2058.44+1120.26+2076.63+1110.48+2081.91+1110.41C2087.19+1110.33+2109.3+1080.4+2112.25+1071.68C2115.86+1060.97+2094.17+1079.05+2099.33+1069.51C2102.21+1064.18+2104.18+1022.18+2109.12+1052.16C2114.07+1082.14+2135.56+1031.91+2137.23+1023.69C2141.6+1002.14+2109.92+942.433+2098.63+982.877C2087.33+1023.32+2090.88+944.355+2083+938.141C2076.19+932.773+2070.1+919.62+2062.85+914.901C2056.25+910.603+2049.19+915.558+2042.73+910.876C2035.19+905.409+2043.77+919.181+2030.76+903.44C2017.75+887.698+2022.13+902.862+2012.26+902.2C2003.72+901.629+1996.44+898.318+1988.31+896.004C1982.41+894.325+1989.42+893.118+1983.92+890.228C1981.08+888.739+1963.89+887.678+1961.1+886.089C1950.06+879.8+1935.71+878.476+1925.19+882.371C1914.67+886.266+1901.39+876.776+1890.36+884.85C1887.11+887.224+1885.02+891.38+1881.65+893.525Z" stroke="#000000" stroke-width="1" fill="#ea4d4d" opacity="1" stroke-linejoin="round"/>
</g>
<g id="Layer 4" vectornator:layerName="Layer 4">
<path d="M1864.28+925.279C1858.75+926.936+1849.91+923.057+1845.05+926.166C1825.47+938.717+1796.56+968.18+1785.16+991.631C1780.64+1000.93+1783.44+1036.76+1781.8+1049.48C1779.64+1066.25+1788.07+1129.27+1777.28+1140.56C1766.48+1151.86+1785.76+1146.78+1787.88+1152.43C1794.77+1170.88+1777.5+1199.04+1792.25+1215.57C1799.62+1223.82+1818.07+1238.75+1828.76+1238.48C1833.91+1238.34+1855.2+1214.2+1860.26+1216.28C1872.79+1221.44+1866.82+1237.7+1881.65+1237.7C1893.47+1237.7+1904.62+1227.65+1916.14+1230.38C1939.2+1235.84+1981.11+1240.77+1980.82+1228.88C1980.53+1217+2002.57+1250.69+2016.32+1248.5C2020.71+1247.8+2056.59+1237.1+2058.56+1234.18C2070.22+1216.87+2079.93+1185.83+2066.02+1172.07C2052.11+1158.3+2075.13+1143.44+2088.32+1145.14C2101.51+1146.84+2140.96+983.896+2092.4+951.255C2081.87+944.176+2036.98+936.866+2044.77+922.602C2052.55+908.338+1920.45+881.399+1893.15+899.142C1882.79+905.873+1841.99+915.768+1839.06+932.915L1838.59+932.99C1838.59+932.99+1870.36+919.555+1871.95+906.896C1873.53+894.237+1896.35+893.688+1906.58+893.995C1936.57+894.894+1976.56+887.488+2007.19+887.494C2020.3+887.496+2045.25+890.194+2054.39+900.368C2060.21+906.846+2088.6+961.697+2100.37+975.778C2132.03+1013.65+2132.57+1005.28+2123.06+1053.03C2119.27+1072.03+2094+1105.8+2086.48+1123.22C2082.26+1132.99+2082.04+1171.19+2080.75+1181.21C2078.34+1199.91+2065.78+1216.6+2051.02+1231.16C2042.7+1239.36+1976.97+1248.29+1962.63+1250.65C1938.49+1254.61+1913.25+1206.33+1913.96+1234.57C1914.67+1262.82+1886.75+1218.43+1886.03+1233.46C1885.32+1248.5+1870.28+1232.78+1858.83+1231.32C1831.55+1227.83+1790.62+1198+1798.6+1207.14C1806.57+1216.28+1788.05+1173.78+1784.22+1154.5C1784.11+1153.92+1792.68+1163.65+1792.25+1163.31C1788.45+1160.22+1774.78+1147.6+1772.85+1141.27C1769.7+1130.91+1789.85+1035.52+1792.97+1025.15C1799.01+1005.01+1776.17+1012.01+1780.4+990.777C1783.89+973.284+1836.9+920.113+1850.23+913.243C1855.99+910.281+1859.27+925.376+1864.87+925.183" stroke="#000000" stroke-width="1" fill="#000000" opacity="1" stroke-linejoin="round"/>
</g>
</svg>
