<?xml version="1.0" encoding="UTF-8" standalone="no"?> <!-- Created with Vectornator Pro for iOS (http://vectornator.io/) --><!DOCTYPE svg PUBLIC "-//W3C//DTD SVG 1.1//EN" "http://www.w3.org/Graphics/SVG/1.1/DTD/svg11.dtd">
<svg height="100%" style="fill-rule:evenodd;clip-rule:evenodd;stroke-linecap:round;stroke-linejoin:round;" xmlns:xlink="http://www.w3.org/1999/xlink" xmlns="http://www.w3.org/2000/svg" xml:space="preserve" width="100%" xmlns:vectornator="http://vectornator.io" version="1.1" viewBox="0 0 3840 2160">
<metadata>
<vectornator:setting key="RulersVisible" value="1"/>
<vectornator:setting key="SnapToEdges" value="0"/>
<vectornator:setting key="Units" value="Pixels"/>
<vectornator:setting key="DynamicGuides" value="0"/>
<vectornator:setting key="SnapToPoints" value="0"/>
<vectornator:setting key="CMYKEnabledKey" value="0"/>
<vectornator:setting key="SnapToGrid" value="0"/>
<vectornator:setting key="ShowGrid" value="1"/>
<vectornator:setting key="GridSpacing" value="36"/>
</metadata>
<defs/>
<g id="Layer 1" vectornator:layerName="Layer 1">
<path d="M-514.622-554.543L4751.9-554.543L4742.93+2701.37L-520.166+2700.68L-514.622-554.543Z" stroke="#8f4620" stroke-width="0.48" fill="#850000" opacity="1" stroke-linejoin="round"/>
</g>
<g id="Layer 2" vectornator:layerName="Layer 2">
<path d="M1821.55+780.317C1811.97+794.23+1795.6+792.236+1782.16+799.039C1761.97+809.259+1740.95+820.238+1723.13+835.757C1675.37+877.362+1694.7+889.781+1675.51+940.513C1669.85+955.461+1660.72+968.193+1654.26+982.66C1641.47+1011.28+1634.59+1046.69+1634.53+1078.62C1634.46+1118.01+1664.24+1146.87+1678.73+1179.79C1685.23+1194.58+1687.27+1213.38+1695.58+1226.72C1702.43+1237.7+1714.07+1244.66+1723.63+1252.06C1748.91+1271.63+1767.01+1296.79+1798.14+1306.17C1816.98+1311.85+1836.26+1305.68+1855.26+1308.13C1877.18+1310.96+1894.45+1324.8+1917.53+1322.11C1940.13+1319.47+1961.33+1308.24+1983.79+1304.81C2000.14+1302.31+2016.67+1306.02+2032.82+1302.21C2049.18+1298.35+2064.2+1287.22+2080.96+1283.12C2105.11+1277.21+2132.51+1277.21+2152.89+1259.52C2170.53+1244.21+2204.17+1219.88+2208.82+1192.69C2211.18+1178.85+2205.74+1165.86+2204.52+1152.41C2203.67+1142.95+2207.89+1132.94+2205.28+1123.86C2200.02+1105.52+2185.86+1102.02+2183.73+1075.95C2181.06+1043.27+2175.51+1009.83+2174.58+977.13C2174.23+964.739+2176.97+951.106+2174.56+938.935C2169.69+914.423+2151.25+870.281+2135.85+852.516C2124.57+839.506+2109.3+838.124+2095.68+830.218C2084.73+823.859+2079.7+810.071+2069.26+802.629C2049.46+788.525+2027.57+788.616+2007.17+779.202C1987.23+770.003+1967.74+756.277+1945.4+755.298C1936.33+754.9+1868.81+758.538+1861.44+761.586C1852.3+765.367+1842.66+771.051+1833.9+775.639C1829.3+778.047+1823.42+774.661+1819.74+777.056C1816.2+779.359+1814.85+787.739+1810.54+788.414L1809.88+787.294C1814.15+784.107+1814.35+776.585+1819.55+774.207C1823.98+772.181+1827.96+775.698+1832.85+773.066C1866.66+754.839+1879.23+756.808+1916.08+755.801C1928.85+755.452+1941.21+750.438+1954.05+752.307C1972.9+755.051+1990.64+768.571+2007.86+775.912C2028.84+784.851+2050.59+786.25+2070.84+800.175C2080.49+806.811+2084.78+818.21+2093.59+825.363C2116.35+843.844+2126.47+830.468+2148.91+866.368C2159+882.501+2174.37+919.363+2177.46+938.734C2182.47+970.142+2177.11+1004.13+2182.82+1035.73C2186.31+1055.05+2185.08+1075.01+2190.52+1093.87C2193.95+1105.72+2203.96+1111.97+2207.87+1123.27C2211.16+1132.74+2207.06+1141.93+2207.44+1151.7C2209.16+1195.61+2219.23+1202.14+2184.29+1235.23C2171.08+1247.75+2156.1+1264.63+2140.54+1272.8C2123.18+1281.92+2100.45+1282.34+2081.74+1287.12C2064.88+1291.43+2049.75+1301.84+2033.32+1306.05C2017.16+1310.19+2000.64+1306.36+1984.27+1308.73C1961.6+1312+1940.35+1323.71+1917.55+1326.23C1894.43+1328.79+1877.11+1314.69+1855.2+1312.07C1835.74+1309.73+1816.16+1315.93+1796.86+1310.04C1765.3+1300.42+1747.25+1275.21+1721.65+1255.38C1712.71+1248.46+1702.34+1241.81+1695.26+1232.3C1684.08+1217.3+1682.09+1194.72+1673.72+1177.45C1658.51+1146.05+1631.26+1116.73+1631.14+1078.48C1631.04+1046.52+1638.15+1009.09+1651.58+980.805C1658.25+966.757+1667.08+954.198+1672.56+939.412C1691.47+888.304+1673.46+874.222+1721.23+832.725C1738.82+817.447+1760.64+804.535+1781.4+795.938C1795.09+790.27+1810.9+790.936+1821.98+779.447" opacity="1" fill="#c2c2c2"/>
</g>
<g id="Layer 3" vectornator:layerName="Layer 3">
<path d="M1882.37+883.503C1877.76+886.441+1872.06+886.301+1867.13+888.46C1853.62+894.377+1841.78+906.746+1829.04+914.486C1816.74+921.956+1803.29+926.45+1793.12+938.034C1787.36+944.594+1785.56+953.393+1782.24+961.581C1775.58+978.014+1773.8+993.707+1770.26+1011.15C1766.46+1029.94+1758.44+1046.03+1757.2+1065.69C1756.5+1076.84+1759.81+1083.84+1762.65+1094.19C1765.02+1102.83+1767.62+1112.57+1769.18+1121.46C1770.74+1130.36+1770.41+1138.95+1773.53+1147.48C1776.55+1155.74+1782.04+1161.92+1785.5+1169.79C1788.93+1177.6+1792.53+1184.57+1796.39+1192.1C1801.34+1201.77+1797.07+1200.12+1805.09+1206.97C1820.3+1219.96+1839.58+1219.26+1857.33+1220.6C1866.01+1221.26+1873.7+1224.9+1882.37+1225.56C1895.42+1226.55+1908.69+1223.1+1921.55+1224.32C1937.43+1225.83+1917.89+1225.14+1935.7+1228.04C1944.56+1229.48+1953.98+1227.19+1962.91+1228.04C1970.94+1228.8+1977.48+1231.04+1985.76+1230.52C1996.19+1229.86+2006.05+1226.5+2016.24+1224.32C2028.87+1221.62+2035.13+1218.66+2045.62+1210.69C2047.65+1209.15+2050.43+1208.93+2052.15+1206.97C2057.55+1200.83+2054.39+1199.17+2055.42+1192.1C2056.23+1186.56+2058.66+1181.46+2059.77+1175.99C2062.15+1164.25+2062.82+1153.68+2067.39+1142.52C2073+1128.83+2076.4+1113.56+2082.63+1100.39C2086.5+1092.2+2091.65+1084.32+2094.6+1075.6C2098.22+1064.9+2094.89+1069.03+2100.04+1059.49C2102.93+1054.15+2107.93+1048.23+2109.84+1042.14C2112.33+1034.21+2111.44+1024.34+2113.1+1016.11C2117.47+994.57+2116.33+967.151+2105.49+947.948C2100.1+938.407+2091.6+934.333+2083.72+928.119C2076.91+922.751+2071.38+915.487+2064.13+910.768C2057.52+906.47+2049.91+905.536+2043.45+900.854C2035.9+895.387+2040.52+895.624+2031.48+893.418C2022.08+891.125+2022.85+892.84+2012.97+892.178C2004.44+891.607+1997.16+888.296+1989.03+885.982C1983.13+884.303+1974.94+885.153+1969.44+882.264C1966.6+880.774+1964.61+877.656+1961.82+876.067C1950.77+869.778+1937.61+873.46+1925.9+872.349C1914.23+871.241+1902.1+866.753+1891.07+874.827C1887.83+877.202+1885.73+881.357+1882.37+883.503Z" stroke="#000000" stroke-width="1" fill="#ea4d4d" opacity="1" stroke-linejoin="round"/>
</g>
<g id="Layer 4" vectornator:layerName="Layer 4">
<path d="M1854.26+909.529C1848.73+911.187+1839.88+907.308+1835.03+910.417C1815.45+922.968+1786.54+952.431+1775.14+975.882C1770.61+985.181+1773.42+1021.02+1771.78+1033.73C1769.61+1050.5+1762.54+1109.76+1767.25+1124.81C1769.19+1130.99+1775.74+1131.03+1777.85+1136.68C1784.75+1155.13+1777.41+1172.05+1792.16+1188.57C1799.53+1196.82+1814.02+1215.55+1824.72+1215.28C1829.87+1215.15+1835.97+1212.4+1841.04+1214.48C1853.57+1219.64+1856.8+1221.96+1871.63+1221.95C1883.45+1221.95+1894.59+1211.9+1906.12+1214.63C1929.18+1220.09+1947.34+1213.19+1970.8+1213.13C1984.31+1213.1+1995.76+1217.09+2009.51+1214.89C2013.9+1214.19+2038.49+1213.95+2040.46+1211.03C2052.12+1193.72+2048.11+1172.51+2056+1156.32C2060.98+1146.1+2074.03+1139.84+2078.3+1129.39C2096.85+1083.91+2118.05+946.043+2069.49+913.401C2058.96+906.323+2043.94+913.722+2034.74+906.853C2009.67+888.125+1898.44+873.065+1871.14+890.809C1860.78+897.54+1831.96+900.019+1829.03+917.166L1828.57+917.241C1826.5+908.402+1853.08+887.568+1861.93+891.147C1865.17+892.459+1886.32+877.939+1896.56+878.245C1926.55+879.144+1956.29+883.333+1986.92+883.338C2000.04+883.341+2026.97+892.046+2036.11+902.221C2041.92+908.698+2066.08+900.266+2077.85+914.347C2109.51+952.218+2109.21+1022.27+2099.7+1070.01C2095.91+1089.01+2089.24+1114.9+2081.71+1132.32C2077.49+1142.09+2060.86+1147.38+2059.57+1157.4C2057.17+1176.11+2055.76+1200.85+2041+1215.41C2032.68+1223.61+1971.85+1217.71+1957.51+1220.07C1933.37+1224.04+1924.71+1219.57+1903.94+1218.82C1892.93+1218.43+1883.08+1226.73+1871.62+1226.69C1856.04+1226.63+1850.14+1219.94+1838.69+1218.47C1811.41+1214.98+1808.12+1214.08+1788.57+1191.39C1774.44+1174.99+1778.03+1158.03+1774.2+1138.75C1774.09+1138.17+1774.13+1137.41+1773.7+1137.07C1769.9+1133.98+1764.76+1131.85+1762.83+1125.53C1759.67+1115.16+1762.04+1053.27+1765.15+1042.89C1771.19+1022.76+1766.15+996.256+1770.38+975.028C1773.87+957.535+1821.36+914.596+1834.7+907.725C1840.45+904.764+1849.25+909.627+1854.85+909.434" stroke="#000000" stroke-width="1" fill="#000000" opacity="1" stroke-linejoin="round"/>
</g>
</svg>
